<svg width="1600" height="300" xmlns="http://www.w3.org/2000/svg">
 <defs>
  <style>.cls-1{fill:#fff;}.cls-2{fill:#eff7ff;}.cls-3{fill:none;}.cls-4{fill:#f9e6d2;}.cls-5{fill:#e5e0dc;}.cls-6{fill:#ffe8a0;}.cls-7{fill:#525c7a;}.cls-8{fill:#fcc8d2;}.cls-9{fill:#b4eefc;}.cls-10{fill:#f8dfdf;}.cls-11{fill:#daeafc;}.cls-12{fill:#edeef1;}.cls-13{fill:#daebfc;}</style>
 </defs>
 <title>Artboard 1</title>
 <g>
  <title>background</title>
  <rect fill="none" id="canvas_background" height="602" width="802" y="-1" x="-1"/>
 </g>
 <g>
  <title>Layer 1</title>
  <path d="m1,1l1600,0l-6,298l-1594,2l0,-300z" class="cls-2" id="a-2"/>
  <defs>
   <style>.cls-1{fill:#1b2251}</style>
  </defs>
  <g stroke="null" id="svg_1580">
   <g stroke="null" transform="matrix(0.5918232787394717,0,0,0.5918232787394717,-6116.505393179472,-1422.7415304192787) " id="svg_1574">
    <g stroke="null" id="svg_1575">
     <path stroke="null" id="svg_1577" d="m11127.64689,2536.68161c-0.51,-1 -0.39,-1.4 0.58,-2.09c6.69,-4.77 11.8,-8.46 16.56,-12a2.4,2.4 0 0 1 2.77,-0.32a4.14,4.14 0 0 0 4,-0.35a4.52,4.52 0 0 0 1.95,-3.83a6.12,6.12 0 0 0 -2.14,-4.64c-1.6,-1.45 -4.48,-2 -6,-1.19a4,4 0 0 0 -2.14,4.86c0.21,0.93 -0.14,1.35 -1,2c-2.45,1.7 -4.88,3.52 -7.23,5.29l-0.91,0.68c-2.27,1.7 -4.56,3.46 -6.78,5.16l-0.83,0.64c-1.5,1.15 -1.5,1.15 -2.94,0a20.11,20.11 0 0 0 -3.25,-2.14c-3.64,-1.82 -7.7,-2.63 -13.16,-2.64c-10.81,0 -21.13,2.64 -29.79,5.23a260.33,260.33 0 0 0 -24.77,8.85a7,7 0 0 1 -4.24,0.45c-8.3,-1.76 -16.21,-0.36 -22.85,1.24c-8.44,2 -16.77,5.88 -25.46,11.72c-0.59,0.4 -1.21,0.79 -1.81,1.17l-0.06,0c-1,0.61 -2,1.24 -2.92,1.93c-9.66,7.13 -16.48,14.26 -21.5,22.37a8.26,8.26 0 0 1 -3,2.76l-3.24,1.91c-6.65,3.9 -13.52,7.94 -20.07,12.25a27,27 0 0 1 -9.33,3.71a168.26,168.26 0 0 1 -30.34,3.89c-3.17,0.12 -6.38,0.31 -9.5,0.49c-2.75,0.16 -5.61,0.32 -8.41,0.44l-2.8,0.11c-9.16,0.38 -18.63,0.76 -27.9,1.93l-4.3,0.5c-3.37,0.38 -6.87,0.78 -10.29,1.42c-2,0.38 -4,0.91 -5.94,1.43c-0.94,0.25 -2,0.54 -3.06,0.79a73.89,73.89 0 0 0 -18.93,7.06c-1.6,0.9 -3.21,1.78 -4.77,2.63c-4.46,2.45 -9.08,5 -13.38,7.89l-0.25,0.17c-1.27,0.87 -1.85,1.26 -1.92,1.9s0.45,1.17 1.57,2.32a4.44,4.44 0 0 1 0.48,0.64c0.09,0.14 0.18,0.28 0.28,0.41l3.67,4.94c2.94,3.95 6,8 8.94,12.11c0.53,0.73 1.11,1.44 1.7,2.16a30.73,30.73 0 0 1 2.88,3.9l-20.12,4l-0.14,0l0.19,1.35a3.37,3.37 0 0 0 -1.62,-0.63l-1,-0.12l0.6,0.83c7.84,10.91 15.93,21.17 24.5,32l5.28,6.72a158.93,158.93 0 0 0 -19.63,10.5l-4.38,2.6c-1,0.58 -1.44,1.11 -1.44,1.71s0.47,1.15 1.51,1.76a6.07,6.07 0 0 1 2.11,2.11c4.28,6.6 9.1,13.48 15.17,21.64c4.71,6.34 9.44,12.83 14,19.11l0.14,0.19c7,9.68 14.32,19.68 21.73,29.37c0.79,1 1.47,1.51 2.22,1.52s1.47,-0.44 2.32,-1.48c0.32,-0.38 0.61,-0.77 0.94,-1.21a14.75,14.75 0 0 1 2,-2.27c3.83,-3.37 7.36,-7.12 10.77,-10.75c1.3,-1.38 2.64,-2.81 4,-4.19c0.27,-0.28 0.84,-0.86 1,-0.85s0.39,0.29 0.81,0.82c2,2.58 3.92,5.22 5.81,7.77l0.37,0.51c1.24,1.69 2.49,3.38 3.73,5.08l0.34,0.46c1.22,1.66 2.43,3.32 3.66,5l0.1,0.15c0.37,0.52 1.07,1.49 2.22,0.78a1.76,1.76 0 0 0 0.52,-0.45a1.81,1.81 0 0 0 0.42,0.61a1.72,1.72 0 0 0 2.47,0.45l0.76,-0.57l0.08,-0.06l0.68,-0.51l3.13,-2.35c2.9,-2.17 5.89,-4.41 8.83,-6.67c0.45,-0.34 0.76,-0.48 1,-0.45s0.46,0.24 0.77,0.68c1.46,2.07 3,4.07 4.82,6.28l2.61,3.27c9.47,11.97 19.3,24.29 29.02,36.29c0.87,1.08 1.73,2.18 2.51,3.17a106.64,106.64 0 0 0 7.05,8.4c0.76,0.79 1.2,1.18 1.65,1.29c0.65,0.16 1.21,-0.28 2.24,-1.25a158.81,158.81 0 0 0 14.66,-16.14a166.68,166.68 0 0 0 11.5,-16.25c6.83,-10.78 11.52,-20.78 14.34,-30.58a213.8,213.8 0 0 0 6.39,-27.94c1,-6.64 1.56,-13.25 2.11,-21.14c0.33,-4.74 0.68,-11 0.48,-17.19a43.35,43.35 0 0 1 0.34,-5.92a49.27,49.27 0 0 0 0.35,-5.47a3.5,3.5 0 0 1 1.34,-2.93c6.35,-5.72 12.48,-11.48 19.73,-18.38c9.67,-9.22 19.32,-18.88 28.68,-28.73c13.2,-13.89 23.77,-25.93 33.24,-37.88c8.6,-10.84 18.44,-23.88 26.21,-38.47c3,-5.66 6.68,-13.25 8.15,-21.68c0.69,-3.91 1.15,-9.12 -1.44,-14.06zm-20.08,50.44l-0.07,0.09c-13.09,-18 -26.34,-34.93 -37.6,-49.11c3.76,-1.64 3.78,-1.61 6.17,1.63l0.2,0.27c5.21,7.09 10.66,14.21 16.19,21.17c2.92,3.67 5.85,7.43 8.7,11.06l0.19,0.24c2.12,2.72 4.25,5.45 6.39,8.16a9.22,9.22 0 0 0 1.13,1.12c0.4,0.35 1.15,1 1.11,1.27c-0.25,1.4 -1.27,2.65 -2.41,4.1zm15.88,-29.29c-2.8,7.82 -7,15.1 -10.79,21.52a5.58,5.58 0 0 1 -0.54,0.7l-0.17,0.2c-4,-5 -8,-10.07 -11.82,-15c-7.58,-9.67 -15.41,-19.67 -23.61,-29.29l0.93,-0.32c1,-0.34 2,-0.66 2.92,-0.93c7.21,-2 15,-3.89 23.13,-4.4a41.68,41.68 0 0 1 12.5,0.9l0.08,0a17.59,17.59 0 0 1 5.34,2.31a10.09,10.09 0 0 1 4.62,7.5c0.85,6.05 -0.74,11.66 -2.59,16.81zm-174,263.79c2.64,-1.83 5.19,-3.65 8.2,-5.83c0.33,-0.23 0.55,-0.31 0.74,-0.26s0.4,0.22 0.66,0.56c1.8,2.32 3.66,4.64 5.45,6.89l0.16,0.2l2.33,2.92l0.15,0.18c0.28,0.33 0.41,0.48 0.24,0.86l-0.14,0.16c-0.2,0.22 -0.42,0.46 -0.62,0.72a57.84,57.84 0 0 1 -5.23,5.7l-0.18,0.18l-1,1c-0.29,0.29 -0.61,0.59 -0.84,0.57s-0.4,-0.18 -0.65,-0.5c-3.31,-4.24 -6.42,-8.12 -9.5,-11.89c-0.28,-0.34 -0.41,-0.6 -0.38,-0.79s0.16,-0.38 0.57,-0.67l0.04,0zm-11.21,-14.92l0.24,-0.18c1.18,-0.88 2.38,-1.75 3.54,-2.59l0.24,-0.17c1.2,-0.88 2.45,-1.78 3.66,-2.69c0.58,-0.42 0.75,-0.4 1.17,0.13c2.55,3.24 5.27,6.64 8.32,10.38a1.18,1.18 0 0 1 0.35,0.81a1.4,1.4 0 0 1 -0.59,0.81l-3.76,3.05l-3.6,2.92c-0.27,0.22 -0.55,0.44 -0.9,0.7l-0.22,0.17l-9.65,-12.11a3.3,3.3 0 0 1 1.16,-1.23l0.04,0zm-25.09,-30.14c2.24,-1.39 4.44,-2.89 6.56,-4.35c0.84,-0.56 1.67,-1.13 2.5,-1.7c0.26,-0.17 0.39,-0.24 0.61,-0.19l0.14,0.15c0.17,0.19 0.39,0.42 0.58,0.66l3.23,4.11l0.58,0.74l5.1,6.46a1.42,1.42 0 0 1 0.42,1c0,0.25 -0.26,0.53 -0.68,0.85c-2.46,1.85 -5,3.85 -7.63,6.13c-0.42,0.37 -0.73,0.53 -1,0.5s-0.48,-0.21 -0.81,-0.62c-2.23,-2.78 -4.53,-5.58 -6.75,-8.3l-0.54,-0.66l-2.51,-3.06c-0.29,-0.36 -0.55,-0.72 -0.51,-1s0.13,-0.4 0.67,-0.72l0.04,0zm-12.12,-13a0.67,0.67 0 0 1 0.29,-0.37c2.61,-2 5.2,-4 7.71,-6l2.42,-1.87l2.22,2.93c1.94,2.57 3.95,5.23 6,7.77a1.59,1.59 0 0 1 0.5,1c0,0.24 -0.28,0.51 -0.79,0.88c-2.82,2.05 -5.68,4.2 -8.48,6.38c-0.52,0.41 -0.75,0.31 -1.2,-0.23q-3.65,-4.33 -7.27,-8.69l-1.09,-1.31c-0.26,-0.13 -0.37,-0.32 -0.35,-0.44l0.04,-0.05zm29.58,26l0.05,0c1.37,-0.93 2.79,-1.88 4.12,-2.91c0.49,-0.38 0.79,-0.33 1.2,0.21c3.07,3.95 5.57,7.14 7.87,10a1.2,1.2 0 0 1 0.35,0.83c0,0.24 -0.22,0.49 -0.61,0.79c-2.12,1.68 -4.18,3.33 -6.38,5.1l-2.21,1.77l-9.62,-12c1.66,-1.34 3.45,-2.52 5.19,-3.72l0.04,-0.07zm8.62,-4.24c-5.32,-6.64 -10.87,-13.28 -16.24,-19.7l-1.72,-2c-1.77,-2.12 -3.54,-4.31 -5.25,-6.43l-1.79,-2.22c-0.37,-0.46 -0.76,-0.93 -0.74,-1.08s0.52,-0.55 1.05,-1l9.36,-7.41c8.23,-6.5 16.74,-13.23 25.21,-20c7.15,-5.71 14.35,-11.49 21.31,-17.09q7.81,-6.27 15.63,-12.54c9.22,-7.38 19,-15.13 26.78,-21.36l2.37,-1.88l0.36,-0.31a3.46,3.46 0 0 1 1,-0.69a2.79,2.79 0 0 1 -0.51,1.41l-0.13,0.22a75.86,75.86 0 0 0 -7.21,19.14a68.77,68.77 0 0 0 -1.69,15.19c-0.35,14.45 -0.9,29.81 -3.52,44.63a155.05,155.05 0 0 1 -8.82,31.84c-5.34,13.09 -13.05,24.59 -19.89,34.11l-0.2,0.29a33.17,33.17 0 0 1 -4.35,5.23l-1.49,-1.8c-1.12,-1.36 -2.27,-2.75 -3.39,-4.14l-6.29,-7.78c-6.5,-7.98 -13.28,-16.32 -19.88,-24.56l0.04,-0.07zm-120.15,-151.25l6.68,9.17a56,56 0 0 1 -8.13,6.1c-0.58,0.39 -1.17,0.77 -1.75,1.17l-8.06,-10.06l11.26,-6.38zm75.57,-25.64l-2.15,0.89l3.36,-0.52a3.49,3.49 0 0 1 -0.15,0.46a2.27,2.27 0 0 0 -0.22,1.12a1.85,1.85 0 0 0 1.4,1.78l0.05,0a1.53,1.53 0 0 0 1.57,-0.65a1.74,1.74 0 0 0 0.07,-2.29a3.38,3.38 0 0 0 -0.75,-0.71a99.74,99.74 0 0 1 11.59,-1a134.77,134.77 0 0 0 19.53,-2c0.52,-0.09 1.07,-0.14 1.61,-0.18a10.88,10.88 0 0 0 2.62,-0.4a1.36,1.36 0 0 1 -0.23,0.14l-0.23,0.14c-2,1.29 -4,2.61 -5.65,3.67l-0.35,0.23c-0.85,0.55 -1.2,0.69 -1.79,0.13s-1.65,-0.66 -2.83,0a1.69,1.69 0 0 0 -0.87,1.08a2.14,2.14 0 0 0 0.46,1.66a0.38,0.38 0 0 1 0.09,0.2c0,0.12 -0.31,0.31 -0.51,0.45l-1.95,1.29l-1.23,0.81c-0.72,0.48 -1.13,0.46 -1.58,-0.06c-1,-1.19 -2,-0.5 -2.68,0l-0.26,0.16a2,2 0 0 0 -1,1.29a1.8,1.8 0 0 0 0.45,1.4c0.12,0.15 0.16,0.25 0.15,0.29s-0.06,0.15 -0.37,0.36q-2.7,1.8 -5.38,3.62l-0.63,0.43l-4.83,3.26a1.8,1.8 0 0 1 -1.45,0.24a3.36,3.36 0 0 0 -2.6,0.31a2.91,2.91 0 0 0 -1.05,2c-0.18,1.08 -0.81,1.45 -1.62,1.93a8.49,8.49 0 0 0 -0.87,0.56a0.34,0.34 0 0 1 -0.43,-0.05l-0.09,-0.07c-0.55,-0.45 -1.39,-1.14 -2.4,-0.32c-0.62,0.51 -1.67,1.37 -1.42,2.43s-0.23,1.24 -1,1.73l-3.28,2.24a5.11,5.11 0 0 1 -0.63,-0.74a3,3 0 0 0 -2,-1.42a2,2 0 0 0 -1.57,0.59a2.3,2.3 0 0 0 -1,2.08a4.85,4.85 0 0 0 1.24,2.22l-1.36,1l-5.46,3.9c-0.18,0.13 -0.36,0.24 -0.58,0.37a7.15,7.15 0 0 0 -1,0.73a10.51,10.51 0 0 1 -7.69,3.15a1.64,1.64 0 0 0 0,-0.39c-0.33,-1.75 -1.33,-2.7 -2.69,-2.56a2.62,2.62 0 0 0 -1.84,1a2.54,2.54 0 0 0 -0.44,2c0.1,0.53 0,0.71 0,0.77a1.38,1.38 0 0 1 -0.74,0.23l-2.45,0.38l-0.11,0l-2,0.32l-0.14,0c-1.35,0.2 -2.32,0.35 -3.36,-0.79a2.23,2.23 0 0 0 -2,-0.91a2.64,2.64 0 0 0 -1.85,1.78a2.12,2.12 0 0 1 -1.84,1.43c-2.5,0.38 -4.59,0.7 -6.72,1.13a2.16,2.16 0 0 1 -2.52,-1c-4.48,-6 -9.09,-12 -13.4,-17.51c-1.53,-2 -3.18,-4 -4.51,-5.65l-0.45,-0.55l-2,-2.51c-0.21,-0.26 -0.41,-0.54 -0.62,-0.83s-0.44,-0.62 -0.68,-0.92s-0.32,-0.54 -0.3,-0.62s0.1,-0.22 0.47,-0.42l1.87,-1a59,59 0 0 1 7.13,-3.4a124.59,124.59 0 0 1 25.92,-6.76c8,-1.14 16.28,-2.33 24.51,-2.26a60.59,60.59 0 0 0 7,-0.5a53.89,53.89 0 0 1 7.32,-0.49c0.76,0 1.53,0 2.28,-0.08a17.42,17.42 0 0 1 3.23,0l-0.11,0l-0.01,0.18zm-66.48,38c1.3,1.76 2.61,3.51 4,5.3l1.48,2.1a3.52,3.52 0 0 1 -1,0.24c-0.15,0 -0.31,0 -0.46,0.06l-2.29,0.39c-2.59,0.44 -5.26,0.9 -7.88,1.45a2.45,2.45 0 0 1 -3.1,-1.29a14.17,14.17 0 0 0 -0.93,-1.4l-0.08,-0.11l-0.19,-0.26a4.21,4.21 0 0 1 1.51,-1.19c0.25,-0.14 0.53,-0.3 0.79,-0.48l3.13,-2.11l0.12,-0.08c1.15,-0.77 2.46,-1.65 3.73,-2.53c0.7,-0.53 0.83,-0.53 1.17,-0.07l0,-0.02zm-1.95,74c-0.61,0.49 -0.91,0.52 -1.05,0.48s-0.33,-0.18 -0.54,-0.7a7.52,7.52 0 0 0 -1.15,-1.82l-0.07,-0.08l1.87,-1.2l7.19,-4.65c0.28,-0.18 0.42,-0.17 0.83,0.26a7.13,7.13 0 0 1 1.31,2a70.47,70.47 0 0 0 -8.39,5.77l0,-0.06zm5,6.32c-0.26,0.23 -0.81,0.73 -1.05,0.7s-0.68,-0.63 -1,-1.07c-0.17,-0.23 -0.32,-0.46 -0.48,-0.7a9.81,9.81 0 0 0 -0.94,-1.26c-0.8,-0.87 -0.94,-1.23 -0.92,-1.38s0.4,-0.41 0.8,-0.66l0.5,-0.33c1.3,-0.87 2.67,-1.69 4,-2.5c1.1,-0.66 2.24,-1.34 3.35,-2.06a1.6,1.6 0 0 1 1.16,-0.36c0.29,0.07 0.56,0.33 0.86,0.82c0.42,0.7 0.89,1.37 1.39,2.08l0.47,0.67c-1.23,1 -2.49,1.9 -3.71,2.76a45.38,45.38 0 0 0 -4.4,3.37l-0.03,-0.08zm-1.09,-16.21l-6.12,4.16l-2.44,1.71l-2.4,-3.09a42.08,42.08 0 0 1 7.21,-4.34c0.67,-0.34 1.33,-0.68 2,-1s0.9,-0.13 1.41,0.69a3.71,3.71 0 0 0 0.75,0.95c0.15,0.11 0.23,0.22 0.22,0.31s-0.03,0.27 -0.6,0.67l-0.03,-0.06zm13.72,17.87l-0.14,0.1c-1.19,0.92 -2.36,1.76 -3.49,2.51l-0.4,0.26a17.91,17.91 0 0 0 -3.54,2.78c-0.31,0.34 -0.59,0.52 -0.8,0.5s-0.43,-0.2 -0.67,-0.56c-0.56,-0.83 -1.17,-1.64 -1.78,-2.45l-1.11,-1.49c-0.23,-0.33 -0.26,-0.51 -0.24,-0.6a0.67,0.67 0 0 1 0.31,-0.37l4.16,-2.8c1.31,-0.89 2.61,-1.78 3.93,-2.66a4.63,4.63 0 0 1 0.74,-0.36l0.2,-0.09l0.11,0l0.65,0.86c0.84,1.14 1.72,2.31 2.51,3.5c0.21,0.35 0.21,0.46 -0.41,0.93l-0.03,-0.06zm-18,-24.45a1.45,1.45 0 0 1 0.79,1.06c0,0.2 -0.12,0.34 -0.56,0.59a64,64 0 0 0 -7.79,5a1.07,1.07 0 0 1 -0.79,0.3c-0.19,0 -0.37,-0.18 -0.58,-0.52s-0.49,-0.7 -0.81,-1.13l-0.23,-0.3c1,-0.61 1.93,-1.25 2.86,-1.87a42.8,42.8 0 0 1 5.64,-3.26a1.7,1.7 0 0 1 1.5,0.19l-0.03,-0.06zm-17.28,9.87l-0.33,0.26a11.66,11.66 0 0 0 -1.38,1.18a1.39,1.39 0 0 0 -0.14,2a1.35,1.35 0 0 0 2,0.11c1.49,-1.1 3.26,-2.38 5.1,-3.57c1.35,-0.87 1.35,-0.87 2.3,0.51a4,4 0 0 1 0.27,0.46c-6.18,3.58 -6.62,3.94 -7.66,6.22l-0.38,0.82l0.88,-0.2a9.7,9.7 0 0 0 3.22,-1.53a14,14 0 0 1 1.47,-0.86a16.69,16.69 0 0 0 2.65,-1.49a1.7,1.7 0 0 1 1.19,-0.47c0.31,0 0.65,0.32 1,0.86l0.16,0.22c0.61,0.82 1,1.41 1,1.68s-0.7,0.74 -1.7,1.42s-1.94,1.33 -2.91,2a1.21,1.21 0 0 0 -0.52,0.8a1,1 0 0 0 0.24,0.77a1.15,1.15 0 0 0 1.55,0.24c0.34,-0.21 0.69,-0.41 1,-0.61c1,-0.62 2.13,-1.26 3.15,-2a1.23,1.23 0 0 1 0.88,-0.32c0.21,0 0.42,0.27 0.66,0.67c0.41,0.71 0.88,1.38 1.39,2.1l0,0.07l0.36,0.53l-1.15,0.65c-1.27,0.7 -2.46,1.36 -3.66,2.08c-1,0.58 -1.9,1.26 -2.72,1.87a1.21,1.21 0 0 0 -0.37,1.79a1.23,1.23 0 0 0 1.77,0.24l1.89,-1.06l0.48,-0.27l2.37,-1.33c3.06,-1.7 3.09,-1.72 5,0.94a10.12,10.12 0 0 1 -1.77,1.4a8.32,8.32 0 0 0 -3.29,3.76l-0.38,0.89l0.93,-0.29a11.6,11.6 0 0 0 3.91,-2.28c0.4,-0.32 0.78,-0.62 1.18,-0.89c0.86,-0.57 1,-0.55 1.55,0.17l1,1.36c1.49,2 1.49,2 -0.56,3.56l-0.12,0.1l-0.73,0.57c-1,0.75 -1.84,1.56 -2.7,2.34l-1,0.9l-0.16,0.12a1.07,1.07 0 0 0 -0.41,1.55a0.92,0.92 0 0 0 0.67,0.43a1.19,1.19 0 0 0 0.93,-0.44l0.13,-0.11l1.46,-1.09c1.45,-1.07 3.09,-2.28 4.62,-3.51a1.13,1.13 0 0 1 0.68,-0.32c0.18,0 0.37,0.21 0.61,0.56c0.66,1 1.35,1.88 2,2.78l0.56,0.75a1.3,1.3 0 0 1 0.34,0.86a1.34,1.34 0 0 1 -0.64,0.77c-1,0.72 -2,1.52 -2.94,2.31l-0.1,0.08l-1,0.84c-0.77,0.62 -0.6,1.2 -0.43,1.49a1,1 0 0 0 0.7,0.55a1.39,1.39 0 0 0 1.11,-0.29c0.75,-0.51 1.5,-1.06 2.22,-1.58l0.19,-0.14l1.38,-0.98c1.27,-0.9 1.27,-0.9 2.16,0.26c1.72,2.25 3.52,4.68 5.67,7.65c5,6.86 10.35,14.08 16.48,22.05c1,1.37 1,1.37 0,2.55l-4.7,5.18l-1.67,1.83c-5.79,-7.67 -11.57,-15.47 -17.16,-23c-11.29,-15.22 -23,-31 -35,-46c0.84,-0.67 3,-2.1 5.22,-3.52zm33.48,26.1c0.33,-0.25 0.61,-0.46 0.89,-0.69a14.4,14.4 0 0 0 2.2,-2.23c0.26,-0.33 0.81,-1 0,-1.69a1.25,1.25 0 0 0 -1.56,0a5.66,5.66 0 0 0 -0.87,0.8a17.17,17.17 0 0 1 -4,3a10.56,10.56 0 0 1 -1.41,-1.84l-0.4,-0.59a18.18,18.18 0 0 1 4.35,-3.19c0.74,-0.43 1.5,-0.88 2.22,-1.37c0.29,-0.21 0.58,-0.46 0.87,-0.71c0.68,-0.6 1.31,-1.15 1.93,-1s1,0.86 1.44,1.62a9.85,9.85 0 0 0 0.65,1.07l5.27,7.09c5.81,7.83 11.83,15.93 17.65,23.95c0.36,0.5 0.68,0.91 1,1.27c1.18,1.53 1.18,1.53 -0.28,3l-1,1.05c-0.61,0.65 -1.19,1.3 -1.82,2a44.22,44.22 0 0 1 -3.83,4c-5.6,-8 -11.39,-15.79 -17,-23.32l0,-0.05c-2.58,-3.47 -5.25,-7.07 -7.86,-10.62a9.2,9.2 0 0 1 1.53,-1.53l0.03,-0.02zm-25.78,-109.37a1.47,1.47 0 0 1 -0.73,0.86c-0.67,0.45 -1.33,0.91 -2,1.38l-0.06,0c-1.15,0.81 -2.34,1.64 -3.55,2.38a11.41,11.41 0 0 0 -1.49,1.17c-0.91,0.8 -1.78,1.57 -2.73,1.4c-0.77,-0.19 -1.3,-1 -1.88,-1.9a9.5,9.5 0 0 0 -1.26,-1.64a17.55,17.55 0 0 1 -1.77,-2.13l-0.61,-0.8a54.85,54.85 0 0 1 7.08,-4c1.59,-0.79 3.24,-1.62 4.8,-2.54a0.74,0.74 0 0 1 0.54,-0.13a1.11,1.11 0 0 1 0.55,0.62a23.67,23.67 0 0 0 2.28,3.6l0.38,0.52a1.71,1.71 0 0 1 0.45,1.21zm195.36,-77.5a12.49,12.49 0 0 0 2.22,19.9l1.3,0.86l0.14,0.09a67.25,67.25 0 0 0 6.47,3.9c3.55,1.79 5.32,5.14 7,8.38a2.45,2.45 0 0 1 0.17,1.11c-0.12,5.86 -1.49,10 -4.45,13.32a44.08,44.08 0 0 1 -13.89,10.88a10.77,10.77 0 0 1 -2.19,0.69a9.46,9.46 0 0 0 -3,1.07l-0.32,0.21l0.15,0.35a2.27,2.27 0 0 0 2.51,1.34a13.77,13.77 0 0 0 6.22,-1.6c6.54,-3.65 11.24,-7.49 14.79,-12.08a21,21 0 0 0 4.3,-13.48a4.08,4.08 0 0 0 -0.36,-1.77a25.89,25.89 0 0 0 -10.02,-11.46c-0.91,-0.56 -1.87,-1.06 -2.79,-1.55a24.51,24.51 0 0 1 -4.84,-3a9.25,9.25 0 0 1 -3.57,-8.45a15.05,15.05 0 0 1 5.22,-9.79a7,7 0 0 1 0.58,-0.47c0.86,-0.65 2,-1.54 1.52,-3.36a2.58,2.58 0 0 1 0.41,-0.14l0.26,-0.09c8.84,-3.21 16.8,-4.62 24.35,-4.29c5.14,0.2 9.06,1.2 12.34,3.2c5.27,3.14 8.06,8.14 8.29,14.84c0.18,5.19 -1.16,10.51 -4.09,16.25a66.83,66.83 0 0 1 -17.65,21.32a93.66,93.66 0 0 1 -24,14.51c-10.13,4.08 -19.32,5.73 -28.23,5.08a24.52,24.52 0 0 1 -9.05,-2.18c-6.29,-3 -9.69,-8.16 -10.11,-15.37c-0.36,-6.22 1.29,-12.33 5,-18.68c5.21,-8.84 12.31,-16.52 21.72,-23.49c5.4,-4 11.24,-6.8 17.76,-9.79l0.08,0a1.7,1.7 0 0 1 0.51,-0.17a27.29,27.29 0 0 0 -4.75,3.91zm-8.18,69.1c16.7,-2.5 31.86,-10 46.35,-23a68.17,68.17 0 0 0 12.77,-15.33c3.29,-5.4 7.05,-12.72 6.88,-21.44c-0.14,-7.34 -3.46,-13.06 -10.12,-17.49c-0.68,-0.45 -1.38,-0.86 -2.08,-1.27c0.86,0.3 1.72,0.52 2.58,0.73a24.59,24.59 0 0 1 3.1,1c8,3.26 12.56,11.19 11.61,20.18a40.21,40.21 0 0 1 -7,18.45a96.43,96.43 0 0 1 -26.65,26.27a114.42,114.42 0 0 1 -25.81,13.11c-9.74,3.47 -18.77,4.92 -27.61,4.44c-4.69,-0.26 -9.63,-0.9 -14,-3.82c-6.4,-4.25 -9.51,-10.24 -9.23,-17.8a34.91,34.91 0 0 1 3.61,-14c-0.12,0.58 -0.25,1.15 -0.37,1.7a25.57,25.57 0 0 0 -0.65,3.55c-1,10.67 4.5,19 15,22.92a42.65,42.65 0 0 0 21.62,1.8zm-188.68,38c4.61,-0.66 9.39,-1.39 13.61,-2l5.23,-0.8l5,-0.77c4.5,-0.68 9.16,-1.38 13.75,-2.11c3.23,-0.52 6.39,-1.05 9.9,-1.65l8.61,-1.44c4.5,-0.73 9.08,-1.44 13.51,-2.13l5.29,-0.83l6.32,-1l0.42,-0.07c4,-0.61 8.07,-1.25 12.1,-1.9c4.4,-0.71 8.82,-1.45 13.1,-2.16l4.95,-0.83a3.92,3.92 0 0 1 -0.91,0.83a3.32,3.32 0 0 0 -0.36,0.26c-4.67,3.71 -9.44,7.46 -14.05,11.08l-11.49,9c-13.77,10.84 -28,22.05 -41.85,33.35c-1.72,1.41 -3.49,2.81 -5.2,4.17l-0.13,0.11c-4,3.21 -8.22,6.53 -12.1,10.08c-1,1 -1.67,1.46 -2.12,1.42s-1,-0.64 -1.93,-1.75l-0.45,-0.57l-0.22,-0.28c-1.52,-1.92 -3,-3.94 -4.41,-5.89l0,-0.07c-3.23,-4.43 -6.57,-9 -10.77,-12.83a34,34 0 0 1 -3.75,-4.28l-0.06,-0.09c-0.53,-0.67 -1.06,-1.35 -1.61,-2l-18.07,-21.43c-0.26,-0.31 -0.52,-0.61 -0.81,-0.9c6.18,-0.74 12.3,-1.6 18.5,-2.48l0,-0.04zm77.46,126.67l-6.24,-8.49l-21.82,-29.7c-6.93,-9.41 -14.33,-19.46 -23.3,-31.6c-1.45,-2 -1.45,-2 0.55,-3.51l0.2,-0.17l0.2,-0.16c6.69,-4.6 13.16,-9.67 19.43,-14.58l0.1,-0.08c2.62,-2.05 5.34,-4.18 8,-6.24c6,-4.55 11.93,-9.28 17.71,-13.85l0.2,-0.16l8.66,-6.83l10.65,-8.29l3,-2.33l17,-13.42c1.36,-1.07 2.73,-2.18 4.05,-3.26l2.27,-1.84a2.34,2.34 0 0 0 0.6,-3.21a2.13,2.13 0 0 0 -1.42,-1.23a2.91,2.91 0 0 0 -1.31,0c-2.23,0.45 -4.87,1 -7.46,1.34c-10.7,1.55 -21.54,3.36 -32,5.11l-4.53,0.76c-1.82,0.3 -3.69,0.57 -5.49,0.83l-1.36,0.19c10.47,-9.12 75.56,-51.87 86.29,-56.69c-3.46,5.78 -5.26,11 -5.65,16.33c-0.65,9 2.36,15.43 9.2,19.82c5.17,3.32 11.22,5.15 18.51,5.6a69.55,69.55 0 0 0 27.3,-4.12c22,-7.58 39.07,-19.38 52.12,-36.08c6.06,-7.75 9.54,-14.9 11,-22.49c1.48,-7.9 -0.1,-14.26 -4.8,-19.47c-3.33,-3.67 -7.58,-5.71 -11.31,-7.23a5.2,5.2 0 0 0 -0.61,-0.18a2.63,2.63 0 0 1 -0.94,-0.39l1.45,-0.54l4.09,-1.57c0.62,-0.24 0.87,-0.14 1.21,0.45a46.3,46.3 0 0 0 2.86,4.37l3.65,5c5.31,7.34 11.34,15.66 17.16,23.58c2.38,3.22 4.85,6.44 7.25,9.56l0.09,0.12c1.7,2.23 3.47,4.52 5.18,6.8c1.24,1.65 1.24,1.65 0.08,3.22l-1.8,2.43c-2.37,3.23 -4.83,6.56 -7.35,9.75c-8.33,10.53 -17.45,21.21 -27.91,32.65c-7.36,8.06 -15.5,16.53 -24.87,25.91c-6.15,6.14 -12.54,12.25 -18.72,18.15c-2.43,2.33 -4.86,4.65 -7.29,7c-0.73,0.7 -1.48,1.35 -2.28,2l-0.19,0.17l-0.43,0.37a2.72,2.72 0 0 1 0.14,-0.89a3.13,3.13 0 0 0 0.13,-0.53c0.86,-4.92 2.92,-9.52 4.9,-14c0.48,-1.08 1,-2.16 1.43,-3.25a23.23,23.23 0 0 1 4.69,-6.77a10.72,10.72 0 0 1 1.34,-1.14c0.38,-0.3 0.78,-0.6 1.14,-0.94a2,2 0 0 0 -0.35,-3.37a1.74,1.74 0 0 0 -2.24,0.4l-0.19,0.15c-1.47,1.17 -2.95,2.37 -4.38,3.54l-0.18,0.14c-1.3,1.06 -2.6,2.11 -3.92,3.16c-2.68,2.14 -5.37,4.26 -8.06,6.39l-0.47,0.37c-4.13,3.27 -8.41,6.65 -12.59,10c-4.51,3.62 -9.09,7.32 -13.51,10.89l-0.33,0.27c-4.37,3.52 -8.63,7 -12.88,10.38c-3.3,2.64 -6.67,5.31 -9.65,7.67s-6.13,4.84 -9.32,7.41c-3.89,3.11 -7.76,6.23 -12,9.69l-0.06,0c-5.55,4.48 -11.3,9.11 -17,13.63l-2.52,2c-6.38,5.06 -13,10.29 -18.95,16.07c-1,0.92 -1.25,1.68 -0.13,3c2.81,3.4 5.49,6.95 8.09,10.38l1.25,1.64c0.92,1.21 0.92,1.21 -0.27,2.11c-2.37,1.8 -4.81,3.62 -7.16,5.37l-0.91,0.68l-3.07,2.29c-0.71,0.53 -1.44,1.08 -2.14,1.69l-0.23,0.23a2.7,2.7 0 0 0 -0.34,-0.84c-0.37,-0.46 -0.81,-1.07 -1.24,-1.62zm257.4,-268.79c-0.12,0.71 -0.41,1.07 -1,1.18a1.47,1.47 0 0 1 -1.68,-0.57a4,4 0 0 1 -0.62,-3.23a1.56,1.56 0 0 1 1.05,-1.23a0.94,0.94 0 0 1 0.46,0c0.23,0.06 0.42,0.26 0.7,0.6l0.14,0.16a3.61,3.61 0 0 1 0.95,3.09z" class="cls-1"/>
     <path stroke="null" id="svg_1578" d="m10916.21689,2702.83161a13.7,13.7 0 0 0 -5.85,-3.17l-0.75,-0.15a11.73,11.73 0 0 0 -1.71,-0.26a4.35,4.35 0 0 0 -4.57,2.77a14.35,14.35 0 0 0 -0.7,6.34a21.13,21.13 0 0 0 6.47,12.28a11.8,11.8 0 0 0 5.08,2.93l0.4,0.1c3.19,0.77 5.72,0.39 7.31,-1.09s2.15,-4.13 1.48,-7.51a21.3,21.3 0 0 0 -7.16,-12.24zm3.13,15.52a3.3,3.3 0 0 1 -1.65,2.45a2.91,2.91 0 0 1 -2.63,-0.44a20.09,20.09 0 0 1 -8.3,-9.73a12.43,12.43 0 0 1 -1.32,-5.56a3,3 0 0 1 1.44,-2.41a3.13,3.13 0 0 1 2.42,-0.43a3.38,3.38 0 0 1 0.42,0.13c4.67,1.94 9.84,10 9.7,15.18a4.62,4.62 0 0 1 -0.06,0.66l-0.02,0.15zm44.95,-50.73a15.46,15.46 0 0 0 -7.21,-4.08a5.87,5.87 0 0 0 -4.58,0.25a6,6 0 0 0 -2.47,3.94a10.67,10.67 0 0 0 -0.25,5.09a22.07,22.07 0 0 0 5.38,10.77a13.08,13.08 0 0 0 6.73,4.19a13.5,13.5 0 0 0 2.87,0.36c3,0.05 5,-1.44 5.57,-4.21a12.16,12.16 0 0 0 0.14,-5a23.05,23.05 0 0 0 -6.18,-11.31zm-11.17,-0.17a3.22,3.22 0 0 1 3.26,-1.17a4.75,4.75 0 0 1 0.88,0.32c4.63,2.16 9.48,10.09 9.28,15.16l0,0.61a3.13,3.13 0 0 1 -1.64,2.36a2.79,2.79 0 0 1 -2.58,-0.35a20,20 0 0 1 -9.61,-13.77c-0.24,-1.09 -0.48,-2.23 0.41,-3.16zm194.58,-9.3l-0.29,0a12.87,12.87 0 0 1 -10.4,-6.72c-2.54,-4.31 -3.46,-8.07 -2.81,-11.48l0,-1.29a24.89,24.89 0 0 0 -0.25,-5.87c-0.14,-0.66 -0.46,-1 -0.95,-1.07s-0.86,0.29 -1,1a37.1,37.1 0 0 0 -1,9.46c0.23,4.49 -2.08,8 -4.12,10.55a9.32,9.32 0 0 1 -8.23,3.7l-0.29,0a1,1 0 0 0 -1.11,0.92c-0.05,0.7 0.73,1 1,1.05a8.2,8.2 0 0 0 4.11,0.25c2.17,-0.39 3.87,0.35 5.49,2.39a17.6,17.6 0 0 1 3.42,9.52a35.87,35.87 0 0 1 0,4.85c-0.05,1.33 0.84,1.6 1.61,1.68l0.15,0c1,0.05 1.27,-0.82 1.35,-1.48a28.42,28.42 0 0 0 0.09,-4.92c0,-0.22 -0.06,-0.43 -0.1,-0.64a2.4,2.4 0 0 1 0,-1.19c1.41,-5 6,-8.78 10.38,-8.61a21.14,21.14 0 0 0 2.26,-0.09l0.47,0a1.66,1.66 0 0 0 1.2,-0.45a1,1 0 0 0 0.19,-0.78c-0.1,-0.76 -0.72,-0.77 -1.17,-0.78zm-8.86,0.59a16.75,16.75 0 0 0 -5.52,6.28c-1.72,-3.43 -3.5,-6.36 -7.28,-7.65a19.75,19.75 0 0 0 6,-7.44l0.3,0.57c1.71,3.23 3.32,6.33 6.5,8.24zm-181.6,-157.01a14.1,14.1 0 0 1 3.95,-0.14l-1.4,1.82c-1.22,1.6 -2.37,3.1 -3.57,4.59a1.79,1.79 0 0 0 -0.5,1.31a1.79,1.79 0 0 0 0.84,1.15a2.76,2.76 0 0 0 0.93,0.48a1.37,1.37 0 0 0 0.53,0a1.64,1.64 0 0 0 1.06,-0.78l0.32,-0.46c0.35,-0.51 0.72,-1 1.09,-1.53c0.56,-0.75 1.08,-1.55 1.57,-2.32a23,23 0 0 1 2.88,-3.85a2.19,2.19 0 0 1 1,1.07l0.2,0.33l0.69,1.09c1,1.6 2.07,3.26 3,4.92a8.33,8.33 0 0 0 2.73,2.71a1.17,1.17 0 0 0 1.64,-0.05a1.11,1.11 0 0 0 0.19,-1.63c-0.15,-0.21 -0.29,-0.42 -0.43,-0.64s-0.31,-0.48 -0.48,-0.71c-0.58,-0.8 -1.17,-1.59 -1.75,-2.38c-1.13,-1.52 -2.29,-3.09 -3.41,-4.64c-0.07,-0.1 -0.16,-0.19 -0.24,-0.29c-0.32,-0.35 -0.59,-0.66 -0.3,-1.21l2.17,-0.24c2,-0.22 4,-0.45 6.07,-0.66c0.64,-0.06 1.73,-0.17 1.85,-1.14c0.1,-0.76 -0.6,-1.25 -1.16,-1.64l-0.15,-0.13a2.36,2.36 0 0 0 -2,-0.21l-0.27,0l-4.34,0.73l-1.82,0.31a5.56,5.56 0 0 1 1.19,-2.33l0.44,-0.63c0.63,-1 1.28,-1.93 1.92,-2.89l1.39,-2.1l0.06,-0.1c0.27,-0.39 0.67,-1 0,-1.5a1.17,1.17 0 0 0 -1.65,0.32c-0.82,0.94 -1.56,1.8 -2.26,2.72c-0.52,0.68 -1,1.39 -1.53,2.08s-1,1.39 -1.53,2.07c-0.69,0.92 -1.08,1.35 -1.41,1.35s-0.73,-0.46 -1.44,-1.42s-1.48,-2 -2.19,-3c-0.85,-1.18 -1.72,-2.4 -2.6,-3.58a3.46,3.46 0 0 1 -0.22,-0.31a2.67,2.67 0 0 0 -2.29,-1.44l-0.28,0l7,11.51a9.81,9.81 0 0 1 -3.23,0.77a11.13,11.13 0 0 0 -2.34,0.43a7.84,7.84 0 0 1 -1.71,0.3a4.83,4.83 0 0 0 -3.62,1.48l-0.15,0.16l0.21,0.08a11.45,11.45 0 0 0 5.35,0.17z" class="cls-1"/>
     <path stroke="null" id="svg_1579" d="m10875.77689,2704.27161a1.13,1.13 0 0 0 0.88,-0.27l0.07,0c0.62,-0.41 1.25,-0.81 1.88,-1.21c1,-0.66 2.11,-1.34 3.13,-2l2.49,-1.74c5.26,-3.65 10.7,-7.43 16,-11.22c4.67,-3.34 9.56,-6.51 14.29,-9.58c3.27,-2.12 6.66,-4.32 9.94,-6.55l2,-1.38c5.74,-3.91 11.68,-7.95 17.87,-11.4a77,77 0 0 1 22.36,-8.15a17.4,17.4 0 0 1 3.76,-0.29a96.45,96.45 0 0 1 12.32,1.24c1.72,0.24 3.49,0.5 5.24,0.71a54.67,54.67 0 0 0 14.66,-0.33a86.54,86.54 0 0 0 14.35,-3.82l0.36,-0.12a53.64,53.64 0 0 0 11.19,-5.27a67.7,67.7 0 0 0 11.09,-8.78c4.29,-4 9,-8.15 15.41,-13.37l0.51,-0.4a5.06,5.06 0 0 0 2.36,-3.27l0,-0.13l-0.13,0a3.34,3.34 0 0 0 -3.08,1l-0.26,0.2a182,182 0 0 0 -17,14.05l-0.75,0.72c-1.62,1.55 -3.29,3.16 -5.07,4.56c-7.5,5.88 -16.24,8.81 -23.8,10.89c-8.32,2.3 -17.12,2.48 -26.88,0.55a61.71,61.71 0 0 0 -7.39,-0.85l-2.9,-0.24c-3.21,-0.3 -6.26,0.59 -9.21,1.44c-0.67,0.2 -1.34,0.39 -2,0.57c-10.67,2.88 -19.79,8.52 -28,14.19c-1.72,1.17 -3.42,2.35 -5.12,3.54c-4.54,3.15 -9.24,6.41 -14,9.43l-0.93,0.59c-3.24,2.06 -6.59,4.19 -9.76,6.47c-6.31,4.53 -12.53,9.19 -18.54,13.7c-0.81,0.61 -1.66,1.19 -2.49,1.75a28,28 0 0 0 -5.38,4.32l-0.09,0.11l0.1,0.1a1.25,1.25 0 0 0 0.52,0.24zm264.48,-145.11c1.58,-4 3.21,-8.12 4.77,-12.2q0.23,-0.6 0.48,-1.2a15.24,15.24 0 0 0 1.55,-6.77l0,-0.47l-0.24,0.4a4,4 0 0 1 -0.22,0.34a6.41,6.41 0 0 0 -0.44,0.77l-1.59,3.48c-1.49,3.34 -3,6.79 -4.47,10.21c-1.11,2.64 -2.19,5.34 -3.24,8s-2.13,5.27 -3.23,7.89c-2.2,5.24 -4.49,10.54 -6.7,15.66q-1,2.42 -2.09,4.83a2.56,2.56 0 0 1 -0.11,0.24c-0.24,0.53 -0.52,1.13 0,1.68a2,2 0 0 0 1,0.57a2.14,2.14 0 0 0 0.91,0c0.8,-0.17 1,-0.83 1.21,-1.41l0.12,-0.35q1.74,-4.47 3.46,-8.94c1.81,-4.72 3.69,-9.6 5.56,-14.39c1.08,-2.81 2.18,-5.58 3.27,-8.34zm5.54,11.96a1.17,1.17 0 0 0 1.62,-0.89c0.09,-0.3 0.18,-0.6 0.28,-0.9s0.25,-0.79 0.34,-1.19q1.56,-6.37 3.08,-12.74l0.88,-3.65l0.63,-2.53c0.95,-3.82 1.94,-7.78 3.09,-11.62a26.87,26.87 0 0 0 0.71,-3.55c0.06,-0.42 0.13,-0.85 0.2,-1.27a0.79,0.79 0 0 0 -0.11,-0.55a0.59,0.59 0 0 0 -0.4,-0.24a0.7,0.7 0 0 0 -0.81,0.44l-0.15,0.37c-0.2,0.46 -0.39,0.93 -0.57,1.4c-1,2.73 -1.75,5.58 -2.5,8.34c-0.2,0.77 -0.41,1.55 -0.63,2.31c-0.9,3.27 -1.86,6.57 -2.78,9.77c-1,3.55 -2.1,7.22 -3.09,10.85c-0.38,1.37 -0.72,2.76 -1,4a1.32,1.32 0 0 0 0.1,1a1.67,1.67 0 0 0 1.11,0.65zm-65.41,-54.29a14.36,14.36 0 0 0 2.26,0.26l3.08,0.2c9.9,0.64 20.15,1.29 30.22,1.9l0.2,0a2.28,2.28 0 0 0 2.4,-1l0.14,-0.19l-0.23,0l-1.47,-0.28c-1,-0.21 -2.14,-0.42 -3.22,-0.54c-7.28,-0.77 -14.69,-1.52 -21.85,-2.24l-1.11,-0.11c-3.73,-0.37 -6.86,-0.67 -10,-0.93l-0.29,0a1.77,1.77 0 0 0 -1.31,0.15a1,1 0 0 0 -0.32,0.71a2,2 0 0 0 1.5,2.07zm33.94,55.32c-1.75,-1.85 -3.36,-3.89 -4.91,-5.85c-1.25,-1.58 -2.54,-3.22 -3.9,-4.75l-0.05,-0.06a1.8,1.8 0 0 0 -2.28,-0.68l-0.18,0.07l0.11,0.16l2.05,2.91c2,2.83 3.87,5.51 5.81,8.22a8.27,8.27 0 0 0 1.76,1.73a1.22,1.22 0 0 0 0.46,0.22a1.36,1.36 0 0 0 1.24,-0.34a1,1 0 0 0 0.34,-0.68a1.37,1.37 0 0 0 -0.45,-0.95zm3.44,-7.39l-0.07,-0.09a72.26,72.26 0 0 0 -6,-7.39c-0.36,-0.39 -0.81,-0.68 -1.72,-0.19l-0.15,0.07l1.68,2.54c1.4,2.12 2.77,4.2 4.13,6.28a1.54,1.54 0 0 0 0.93,0.73a1.51,1.51 0 0 0 1.13,-0.22a1,1 0 0 0 0.52,-0.62a1.48,1.48 0 0 0 -0.45,-1.11zm2.93,-7.23c-0.05,-0.08 -0.11,-0.15 -0.15,-0.23c-0.28,-0.43 -0.56,-0.87 -0.83,-1.31c-0.49,-0.77 -1,-1.57 -1.51,-2.34a2.11,2.11 0 0 0 -3,-0.95l-0.18,0.07l0.12,0.15a19.86,19.86 0 0 1 2.54,4.58a3.91,3.91 0 0 0 0.91,1.41a1.58,1.58 0 0 0 0.69,0.38a1.77,1.77 0 0 0 1.49,-0.4c0.58,-0.47 0.2,-0.98 -0.08,-1.36zm-308.56,194.98a2.67,2.67 0 0 0 1.43,-2.18l0,-0.22l-0.21,0.08a14.52,14.52 0 0 0 -4.07,2.51c-0.45,0.35 -0.91,0.71 -1.37,1c-3.59,2.55 -7.19,5.21 -10.67,7.79l-2.92,2.16l-3,2.23c-4.25,3.13 -8.64,6.37 -12.93,9.6c-8.45,6.35 -16.83,12.78 -24.75,18.77c-1.79,1.36 -3.2,2.52 -4.43,3.64c-0.63,0.57 -0.69,1 -0.63,1.33c0.09,0.46 0.52,0.84 1.25,1.09l0.21,0.06a2.17,2.17 0 0 0 2,-0.67l0.17,-0.13l3.53,-2.69c2.68,-2 5.46,-4.14 8.16,-6.25c6.09,-4.75 12.55,-9.83 20.34,-16c8.55,-6.76 17.55,-13.9 27.52,-21.84l0.37,-0.28zm-34.9,-55.75a1.14,1.14 0 0 0 1.63,-0.25a1,1 0 0 0 0.12,-1.4c-0.5,-0.75 -1,-1.5 -1.56,-2.24l-4.05,-5.57l-1.52,-2.09l2.46,-0.29l5.58,-0.67l0.48,0a4.54,4.54 0 0 0 1.16,-0.19q0.75,-0.28 0.87,-0.78a1.24,1.24 0 0 0 -0.41,-1.11a3,3 0 0 0 -3,-1c-0.64,0.1 -1.29,0.23 -1.92,0.36a20.1,20.1 0 0 1 -4.43,0.57a21.48,21.48 0 0 1 2.17,-3.49c0.52,-0.73 1,-1.42 1.45,-2.16c0.29,-0.5 0.62,-1 0.94,-1.46c0.19,-0.27 0.37,-0.53 0.55,-0.81s0.59,-0.9 0,-1.4a1,1 0 0 0 -1.44,0a5.69,5.69 0 0 0 -0.54,0.56c-0.13,0.14 -0.26,0.29 -0.4,0.42a20.83,20.83 0 0 0 -2.68,3.44a27.19,27.19 0 0 1 -1.92,2.63c-0.75,0.88 -1.21,1.4 -1.57,1.39s-0.79,-0.58 -1.47,-1.5s-1.3,-1.8 -2,-2.7c-1,-1.36 -2,-2.77 -3,-4.13l-0.24,-0.36a2.33,2.33 0 0 0 -2,-1.32l-0.23,0l0.11,0.22a68.53,68.53 0 0 0 3.86,6.58c1.06,1.66 2.07,3.24 3,4.92a3.72,3.72 0 0 1 -2,0.68a3,3 0 0 0 -0.43,0.06c-2.16,0.33 -4.32,0.7 -6.45,1.09l-0.27,0c-0.6,0.09 -1.36,0.2 -1.55,1.24l0,0.12l0.12,0.05a10.14,10.14 0 0 0 5.22,0.17a15.29,15.29 0 0 1 3.9,-0.21c-0.47,0.6 -0.92,1.2 -1.37,1.78c-1.22,1.6 -2.38,3.11 -3.56,4.61a2,2 0 0 0 -0.58,1.41a1.64,1.64 0 0 0 0.75,1.06a3,3 0 0 0 1,0.53a1.48,1.48 0 0 0 0.55,0a1.84,1.84 0 0 0 1.16,-0.88c0.37,-0.54 0.77,-1.12 1.25,-1.78s1.07,-1.55 1.57,-2.32a30,30 0 0 1 2.9,-4a3,3 0 0 1 1.24,1.44a4.88,4.88 0 0 0 0.34,0.58c1.09,1.7 2.33,3.61 3.45,5.54a8.1,8.1 0 0 0 2.76,2.66zm118.33,86.16a0.8,0.8 0 0 0 0.67,-0.21l0.09,-0.07a1.73,1.73 0 0 0 0.78,-1.07a1.16,1.16 0 0 0 -0.34,-0.86a5.78,5.78 0 0 1 -0.33,-0.48l-0.28,-0.42c-0.73,-1 -1.44,-1.93 -2.16,-2.9c-1.63,-2.2 -3.31,-4.49 -5.11,-6.62c-4.29,-5.09 -8.19,-10.55 -12,-15.84c-5.65,-7.93 -10.5,-14.45 -15.24,-20.52c-0.26,-0.33 -0.64,-0.31 -1.14,-0.2l-0.15,0l0,0.15a9.93,9.93 0 0 0 1.71,3.53a49.4,49.4 0 0 1 3.42,4.85a291.6,291.6 0 0 0 17.41,25.3c1.28,1.71 2.69,3.35 4.06,4.95c0.84,1 1.71,2 2.53,3l1.24,1.49a44.91,44.91 0 0 1 3.9,5.15a1.41,1.41 0 0 0 0.81,0.73l0.13,0.04zm174.26,-62.96l-0.26,-0.13c-0.51,-0.28 -1.05,-0.55 -1.57,-0.81a20.36,20.36 0 0 1 -3.44,-2a1.41,1.41 0 0 1 0.78,-0.65l0.18,-0.08l1.21,-0.59c1,-0.47 2,-1 2.93,-1.48l0.25,-0.11c0.41,-0.19 1,-0.47 0.75,-1.16c-0.36,-0.87 -1.19,-0.57 -1.73,-0.36l-0.12,0c-0.48,0.17 -0.95,0.37 -1.41,0.56s-1.08,0.45 -1.62,0.64a7.4,7.4 0 0 0 -1.23,0.61c-0.84,0.48 -1.64,0.94 -2.36,0.53s-0.79,-1.29 -0.91,-2.25a6.6,6.6 0 0 0 -0.26,-1.42c-0.46,-1.43 -0.85,-2.85 -1.29,-4.43c-0.16,-0.59 -0.41,-1.5 -1.37,-1.27c-0.77,0.18 -0.65,1 -0.58,1.55s0.14,0.89 0.22,1.31s0.2,1.09 0.26,1.64c0,0.39 0.13,0.78 0.21,1.16a6.26,6.26 0 0 1 0.18,2.55a10,10 0 0 1 -2.71,-1.11a8,8 0 0 0 -4.25,-1.26l-0.28,0l0.16,0.23a13.65,13.65 0 0 0 4.44,3.56a23.42,23.42 0 0 1 2.39,1.52a16.06,16.06 0 0 1 -3.45,1.62c-0.63,0.23 -1.29,0.48 -1.91,0.77l-0.2,0.08c-0.36,0.16 -0.73,0.32 -0.86,0.67a1,1 0 0 0 0.1,0.77c0.3,0.62 0.79,1.66 2.05,1.17c0.37,-0.15 0.73,-0.33 1.07,-0.5l0.41,-0.2l4.06,-2a6,6 0 0 1 0.6,2.15l0,0.15c0.13,0.87 0.27,1.74 0.41,2.62c0.18,1.16 0.37,2.37 0.54,3.56c0.12,0.9 0.53,1.24 1,1.36a3.39,3.39 0 0 0 1.1,0a5.53,5.53 0 0 1 0.56,0a1.2,1.2 0 0 0 1,-0.35a1.94,1.94 0 0 0 0.11,-1.61c-0.12,-0.59 -0.28,-1.17 -0.44,-1.73c-0.12,-0.39 -0.23,-0.78 -0.32,-1.17c-0.24,-1 -0.47,-2 -0.72,-3.08c-0.09,-0.41 -0.19,-0.83 -0.29,-1.27a16,16 0 0 1 2.14,1.15a8.45,8.45 0 0 0 3.18,1.37l0.33,0.05c0.68,0.12 1.52,0.26 1.86,-0.84s-0.32,-1.19 -0.9,-1.49zm-309.43,35.42l-0.12,0.11a1.18,1.18 0 0 0 -0.48,0.87a1.3,1.3 0 0 0 0.57,0.91a2.71,2.71 0 0 0 1.07,0.58a1.76,1.76 0 0 0 1.55,-0.43c0.66,-0.53 1.36,-1 2,-1.53s1.12,-0.82 1.67,-1.25q13.13,-10.12 26.26,-20.28l0.6,-0.47a42,42 0 0 0 5.18,-4.47l0.2,-0.21l-0.29,0a4.36,4.36 0 0 0 -3.37,0.9c-2.33,1.57 -4.43,3 -6.48,4.47c-8.89,6.44 -17.67,12.83 -26.63,19.36a20.87,20.87 0 0 0 -1.73,1.44zm70.25,27.45l-0.24,0.15c-5.25,3.46 -10.42,7.21 -15.43,10.83c-2.08,1.5 -4.23,3 -6.36,4.57c-2.95,2.1 -5.93,4.28 -8.81,6.39l-3.09,2.25l-0.06,0.05c-0.58,0.42 -1.3,0.94 -1.2,1.78s0.79,1.13 1.4,1.46l0.18,0.1a1.53,1.53 0 0 0 0.34,0.14a1.48,1.48 0 0 0 1.36,-0.59c0.11,-0.1 0.21,-0.21 0.32,-0.3q14.27,-11.16 28.51,-22.33l1,-0.76a27.09,27.09 0 0 0 5.23,-4.83l0.22,-0.28l-0.35,0a6.71,6.71 0 0 0 -3.02,1.37zm50.51,-32.3a2.11,2.11 0 0 0 -1.76,-1.12l-0.27,0l0.13,0.24l0.4,0.73c0.26,0.49 0.51,1 0.78,1.41c2.34,3.81 4.93,7.58 7.69,11.22c2.34,3.07 4.65,6.25 6.89,9.32q1.38,1.9 2.78,3.8l0.11,0.16a1.38,1.38 0 0 0 0.71,0.64a0.9,0.9 0 0 0 0.64,-0.12a1.49,1.49 0 0 0 0.78,-2a3.82,3.82 0 0 0 -0.54,-0.83a3.81,3.81 0 0 1 -0.24,-0.32c-3.05,-4.3 -6.43,-8.44 -9.69,-12.45c-2.82,-3.47 -5.72,-7.03 -8.41,-10.68zm11.01,-87.41a1.3,1.3 0 0 0 -0.52,0.89a1,1 0 0 0 0.31,0.73a1.3,1.3 0 0 0 0.67,0.42a1.09,1.09 0 0 0 1,-0.27l0.31,-0.25c0.18,-0.14 0.36,-0.28 0.54,-0.44c5.18,-4.7 10.82,-9 16.28,-13.19l0.11,-0.09l0.76,-0.55a8.2,8.2 0 0 0 2.88,-2.94l0.2,-0.4l-0.43,0.21a53.68,53.68 0 0 0 -5.2,2.8c-2.48,1.58 -4.85,3.38 -7.14,5.13c-1.24,0.94 -2.52,1.92 -3.8,2.85a50,50 0 0 0 -4.3,3.63c-0.57,0.49 -1.12,0.99 -1.67,1.47zm-9.44,-0.81a1.62,1.62 0 0 0 -0.72,1a1.06,1.06 0 0 0 0.32,0.78a1.62,1.62 0 0 0 0.77,0.51a1.23,1.23 0 0 0 1.1,-0.33l0.34,-0.3l0.48,-0.42l2,-1.65c1.74,-1.44 3.54,-2.93 5.33,-4.38c2.4,-2 4.65,-4.11 6.84,-6.21c0.34,-0.33 0.74,-0.7 0.36,-1.27a0.8,0.8 0 0 0 -1.06,0.15l-0.08,0.06c-1.21,0.89 -2.41,1.84 -3.57,2.75c-1.91,1.49 -3.88,3 -5.93,4.43a48.92,48.92 0 0 0 -4.22,3.32c-0.68,0.5 -1.32,1.08 -1.96,1.56zm-7.33,0.3a1.18,1.18 0 0 0 0.64,0.44l0.13,0a1.45,1.45 0 0 0 1.05,-0.46c0.85,-0.72 1.73,-1.44 2.59,-2.14a53.09,53.09 0 0 0 8.15,-7.65l0.11,-0.15l-0.17,-0.08a1.68,1.68 0 0 0 -2.19,0.44l-0.1,0.1a52.11,52.11 0 0 1 -7.59,5.95a14.3,14.3 0 0 0 -2.19,1.85l-0.09,0.08c-0.33,0.33 -0.93,0.91 -0.34,1.62zm114.74,90.45a1.53,1.53 0 0 0 -0.57,1.17a1.84,1.84 0 0 0 0.89,1.25a2,2 0 0 0 0.68,0.34c0.75,0.18 1.26,-0.42 1.72,-0.95l0.06,-0.06l7.79,-9c0.2,-0.24 0.39,-0.49 0.56,-0.72a3.16,3.16 0 0 1 0.2,-0.27a1,1 0 0 0 -0.32,-1.21a1.09,1.09 0 0 0 -1.64,0.15l-4.48,4.47l-4.89,4.83zm2.93,-24.01a1.73,1.73 0 0 0 -0.65,1.17c0,0.56 0.41,1 0.86,1.48a1.49,1.49 0 0 0 0.7,0.47a0.6,0.6 0 0 0 0.23,0c0.45,0 0.78,-0.43 1.09,-0.82l0.12,-0.16c2.21,-2.72 4.59,-5.64 7,-8.62a5.4,5.4 0 0 0 0.51,-0.77l0.22,-0.36l0,-0.05a1.07,1.07 0 0 0 -0.38,-0.8a0.79,0.79 0 0 0 -0.65,-0.1a2.11,2.11 0 0 0 -1,0.61c-0.92,0.91 -1.83,1.82 -2.74,2.74c-1.71,1.71 -3.5,3.5 -5.31,5.21zm6.76,4.34a4.53,4.53 0 0 0 -1,0.74c-2.33,2.37 -4.8,4.9 -7.2,7.44a1.68,1.68 0 0 0 -0.54,1.6a1.66,1.66 0 0 0 1.19,1.08l0.1,0c0.75,0.19 1.2,-0.34 1.56,-0.76l0.07,-0.09c1.94,-2.28 4,-4.72 6.68,-7.91a3.61,3.61 0 0 0 0.59,-1a1,1 0 0 0 -0.39,-1.11a0.76,0.76 0 0 0 -0.92,-0.1l-0.14,0.11zm-4.67,-15.82a1.14,1.14 0 0 0 0.45,0.79a1.49,1.49 0 0 0 0.66,0.37a0.77,0.77 0 0 0 0.76,-0.2a40.32,40.32 0 0 0 5.49,-6.34a0.59,0.59 0 0 0 0.07,-0.24l0,-0.12c0,-0.05 0,-0.11 -0.05,-0.16s-0.08,-0.34 -0.22,-0.4s-0.66,-0.26 -0.89,0c-2.23,2.1 -4.2,4 -6,5.79a0.77,0.77 0 0 0 -0.27,0.51zm-27.9,19.92a3.21,3.21 0 0 0 -0.54,-2.36a3.55,3.55 0 0 0 -1.89,-1.69c-1.2,-0.27 -2.49,0.84 -2.94,2.53c-0.38,1.44 0.4,2.57 2.14,3.11l0.16,0a2.66,2.66 0 0 0 1.91,-0.26a2.26,2.26 0 0 0 1.16,-1.33zm12.43,17.72a2,2 0 0 0 1.36,-0.26a3.53,3.53 0 0 0 1.75,-2a2.13,2.13 0 0 0 -0.22,-1.64a2.17,2.17 0 0 0 -1.37,-1a2.63,2.63 0 0 0 -1.86,0.45a3.07,3.07 0 0 0 -1.46,1.71a2.81,2.81 0 0 0 1.7,2.76l0.1,-0.02zm-19.57,42.19c-1,-0.31 -2.08,0.44 -2.53,1.77a2.15,2.15 0 0 0 0.13,1.72a2.7,2.7 0 0 0 1.7,1.32l0.07,0a2.24,2.24 0 0 0 1.64,-0.3a2.78,2.78 0 0 0 1.31,-1.71c0.25,-1.03 -0.87,-2.37 -2.32,-2.8zm-24.87,-27.43a1.84,1.84 0 0 0 -1.44,0.1a2.23,2.23 0 0 0 -0.93,1.43a3.15,3.15 0 0 0 0.27,2.41a2.25,2.25 0 0 0 1.39,1a2.71,2.71 0 0 0 2.83,-2c0.33,-1.08 -0.71,-2.55 -2.12,-2.94zm14.12,14.1a1.43,1.43 0 0 0 -1.14,0.14a3.36,3.36 0 0 0 -1.19,2.19a2.06,2.06 0 0 0 1.53,2.63l0.06,0a2.08,2.08 0 0 0 1.55,-0.27a3,3 0 0 0 1.37,-1.82c0.32,-1.11 -0.74,-2.51 -2.18,-2.87zm20.1,26.34a1.58,1.58 0 0 0 -1.18,0.19a2.52,2.52 0 0 0 -1,1.61a2.7,2.7 0 0 0 1.84,3.33a1.57,1.57 0 0 0 1.22,-0.24a3,3 0 0 0 1.28,-2a3.12,3.12 0 0 0 -2.16,-2.89zm3.51,-87.14l0.1,0a2.51,2.51 0 0 0 2.68,-1.7c0.19,-0.95 -1.12,-2.54 -2.34,-2.83a2.19,2.19 0 0 0 -1.73,0.31a2,2 0 0 0 -0.87,1.33a3.13,3.13 0 0 0 2.16,2.89zm-21.41,8.56a2.81,2.81 0 0 0 -1.57,-1.32a1.62,1.62 0 0 0 -1.21,0.3a2.9,2.9 0 0 0 -1.2,1.74a2.7,2.7 0 0 0 1.82,2.9a2.66,2.66 0 0 0 2.57,-1.86a2.32,2.32 0 0 0 -0.41,-1.76zm9.23,35l0.08,0c1,0.24 2,-0.53 2.44,-1.82a2.37,2.37 0 0 0 -0.37,-2a2.13,2.13 0 0 0 -1.51,-1.08c-1.33,-0.15 -1.82,0.9 -2.21,1.75l-0.14,0.3a1.59,1.59 0 0 0 0,1.38a2.69,2.69 0 0 0 1.72,1.41l-0.01,0.06zm-24.03,-7.57a2,2 0 0 0 1.33,-0.18a2.72,2.72 0 0 0 1.35,-1.63a1.67,1.67 0 0 0 -0.19,-1.29a3,3 0 0 0 -1.83,-1.4a1.77,1.77 0 0 0 -1.45,0.09a2,2 0 0 0 -0.85,1.38a2.3,2.3 0 0 0 1.45,3a1.39,1.39 0 0 0 0.19,0.03zm18.29,-11.74c-1,-0.24 -2.08,0.64 -2.53,2.14a2,2 0 0 0 0.11,1.61a2.14,2.14 0 0 0 1.41,1a2.42,2.42 0 0 0 1.07,-4.7l-0.06,-0.05zm25.51,45.11a1.45,1.45 0 0 0 -1.13,0.14a3,3 0 0 0 -1.25,1.88c-0.28,1 -0.37,2.13 1,2.64l0.26,0.08a1.93,1.93 0 0 0 1.36,-0.14a2.59,2.59 0 0 0 1.27,-1.6a2.48,2.48 0 0 0 -0.19,-1.88a2.26,2.26 0 0 0 -1.32,-1.12zm-13.57,-45.37c-1.26,-0.3 -1.6,0.66 -1.85,1.36l-0.09,0.26a2,2 0 0 0 0.06,1.59a2.63,2.63 0 0 0 1.55,1.3l0.14,0a1.89,1.89 0 0 0 1.31,-0.18a2.4,2.4 0 0 0 1.16,-1.49a1.68,1.68 0 0 0 -0.26,-1.26a3.54,3.54 0 0 0 -2.02,-1.58zm21.49,-9.43a1.92,1.92 0 0 0 -0.33,-1.44a3.35,3.35 0 0 0 -1.81,-1.58a1.19,1.19 0 0 0 -0.89,0.22a3.29,3.29 0 0 0 -1.31,2c-0.15,0.75 0.88,2.07 1.78,2.29a2.62,2.62 0 0 0 2.56,-1.49zm-10.85,-1.94a1.64,1.64 0 0 0 -1.26,0.26a2.64,2.64 0 0 0 -1.13,1.74a2.61,2.61 0 0 0 1.78,2.6l0.08,0a2.27,2.27 0 0 0 2.25,-1.89a2.55,2.55 0 0 0 -1.72,-2.71zm-27.47,37.61a2.73,2.73 0 0 0 -1.56,-1.32a2.14,2.14 0 0 0 -2.55,1.73a1.85,1.85 0 0 0 0.15,1.42a2.43,2.43 0 0 0 1.49,1.16l0.06,0a2.59,2.59 0 0 0 2.58,-1.72a1.66,1.66 0 0 0 -0.17,-1.27zm10.6,1.69c-0.9,-0.21 -2.18,0.76 -2.53,1.93a1.59,1.59 0 0 0 0.14,1.27a2.17,2.17 0 0 0 1.42,0.93l0.12,0a2.34,2.34 0 0 0 2.69,-1.6a1.68,1.68 0 0 0 -0.25,-1.29a2.75,2.75 0 0 0 -1.59,-1.24zm8.8,10.53a1.68,1.68 0 0 0 -1.13,0.3a3,3 0 0 0 -1.36,1.72c-0.2,1.11 0.58,1.51 1.22,1.84l0.29,0.15a3.77,3.77 0 0 0 2.47,-0.51a1.63,1.63 0 0 0 0.79,-0.87c0.22,-0.71 -1.38,-2.37 -2.28,-2.63zm1.2,17.43a1.91,1.91 0 0 0 2.05,-3.07a3.13,3.13 0 0 0 -1.79,-1.47c-1.1,-0.13 -1.34,0.65 -1.54,1.28a3.26,3.26 0 0 1 -0.2,0.53a2.27,2.27 0 0 0 0.15,1.8a2,2 0 0 0 1.33,0.93zm3.04,-40.75a2.21,2.21 0 0 0 -1.51,-2.43a1.58,1.58 0 0 0 -1.2,0.38a3.21,3.21 0 0 0 -1.32,2c-0.13,1.09 0.64,1.53 1.26,1.87l0.29,0.17a1.87,1.87 0 0 0 1.43,-0.29a2.67,2.67 0 0 0 1.05,-1.7zm20.76,-61.36l0.21,0.06a1.91,1.91 0 0 0 1.28,-0.15a2,2 0 0 0 1.06,-1.19a2.2,2.2 0 0 0 -0.32,-1.6a2.77,2.77 0 0 0 -1.49,-1.35c-0.7,-0.17 -1.65,0 -2.18,1.44a2.37,2.37 0 0 0 1.44,2.79zm-19.19,77.46l0.12,0a2,2 0 0 0 1.4,-0.21a2,2 0 0 0 1,-1.2a1.9,1.9 0 0 0 -0.33,-1.26a3.18,3.18 0 0 0 -1.69,-1.45a1.79,1.79 0 0 0 -2.12,1.5a1.89,1.89 0 0 0 0.3,1.57a2.56,2.56 0 0 0 1.32,1.05zm25.71,-88.08l0.09,0a2.14,2.14 0 0 0 2,-1.49a2.62,2.62 0 0 0 -0.39,-1.88a2.3,2.3 0 0 0 -1.23,-1.18c-0.77,-0.16 -2,0.87 -2.31,1.87a2,2 0 0 0 0.34,1.56a2.51,2.51 0 0 0 1.5,1.12zm-16.52,77.8a1.7,1.7 0 0 0 2,-1.36a2.33,2.33 0 0 0 -0.41,-1.87a1.75,1.75 0 0 0 -1.22,-0.76a2.26,2.26 0 0 0 -2.32,1.73a1.23,1.23 0 0 0 0.12,1a2.71,2.71 0 0 0 1.72,1.24l0.11,0l0,0.02zm-1,-62.47l0.05,0a2.11,2.11 0 0 0 1.46,-0.31a2.16,2.16 0 0 0 1,-1.23a1.93,1.93 0 0 0 -0.45,-1.39a2.71,2.71 0 0 0 -1.55,-1.19a1.66,1.66 0 0 0 -1.83,1.52a2.05,2.05 0 0 0 1.32,2.6zm-37.27,55.25l-0.1,0a1.29,1.29 0 0 0 -1,0.27a2.62,2.62 0 0 0 -1,1.78a2.18,2.18 0 0 0 1.84,2.18l0.18,0c0.67,0.06 1.52,-0.18 1.78,-1.69a2.43,2.43 0 0 0 -1.7,-2.54zm13.43,-34.39l0.05,0a1.19,1.19 0 0 0 0.23,0.07c1.05,0.25 1.34,-0.58 1.56,-1.2l0.14,-0.36a2.37,2.37 0 0 0 -1.38,-2.65a1.58,1.58 0 0 0 -1.25,0.27a2.61,2.61 0 0 0 -1.22,1.74c-0.18,1.4 0.96,1.81 1.87,2.13zm28.84,51.44c-1.23,-0.27 -1.78,0.64 -2.19,1.5a1.26,1.26 0 0 0 0,1.05a2.65,2.65 0 0 0 1.55,1.41l0.06,0a1.53,1.53 0 0 0 1.1,-0.19a2.18,2.18 0 0 0 1,-1.33a1.92,1.92 0 0 0 -0.29,-1.47a2.1,2.1 0 0 0 -1.23,-0.97zm-5.39,-66.28a2.5,2.5 0 0 0 1.47,2.58l0.13,0a1.58,1.58 0 0 0 1.1,-0.15a2.08,2.08 0 0 0 1,-1.26a2.4,2.4 0 0 0 -1.42,-2.56a1.67,1.67 0 0 0 -1.3,0.18a2,2 0 0 0 -0.98,1.21zm-60.89,39.57l-0.13,0c-1.23,-0.3 -1.56,0.65 -1.81,1.35l0,0.09c-0.39,1.43 0,2.29 1.18,2.63l0.06,0a1.76,1.76 0 0 0 1.3,-0.23a2.28,2.28 0 0 0 1.06,-1.35a2.59,2.59 0 0 0 -1.66,-2.49zm52.55,-37.51l0.1,0c1.19,0.26 1.79,-0.69 2.18,-1.32a2.23,2.23 0 0 0 -0.55,-1.68a1.87,1.87 0 0 0 -1.29,-0.77a1.91,1.91 0 0 0 -2,1.79c-0.15,0.98 0.38,1.73 1.56,1.98zm1.89,17a1.92,1.92 0 1 0 0.49,-3.8a1.59,1.59 0 0 0 -1.28,0.14a1.61,1.61 0 0 0 -0.62,1.14a2.24,2.24 0 0 0 1.41,2.52zm-33.53,11.26l-0.07,0c-1.07,-0.2 -1.31,0.65 -1.49,1.26l0,0.16a1.72,1.72 0 0 0 0.19,1.39a2.47,2.47 0 0 0 1.53,1.09l0.08,0c1,0.21 1.5,-0.45 1.82,-1.13a1.94,1.94 0 0 0 -0.37,-1.4a3,3 0 0 0 -1.69,-1.37zm41.08,-16.97a2.18,2.18 0 0 0 1.16,0.81l0.28,0a2,2 0 0 0 2.1,-1.48a1.87,1.87 0 0 0 -0.38,-1.4a2.21,2.21 0 0 0 -1.46,-0.87a1.78,1.78 0 0 0 -2.08,1.54a1.71,1.71 0 0 0 0.38,1.4zm-51.71,21.09a1.22,1.22 0 0 0 1.53,-0.81a4.12,4.12 0 0 0 -0.74,-2.54c-0.22,-0.31 -0.41,-0.47 -0.61,-0.49c-1,-0.08 -1.44,0.73 -1.69,1.34a1.61,1.61 0 0 0 0.05,1.34a2.17,2.17 0 0 0 1.33,1.13l0.13,0.03zm-2.64,15.29a1.69,1.69 0 0 0 -2.23,0.87c-0.22,1 0.47,1.39 1.08,1.71l0.29,0.16a2,2 0 0 0 0.54,0.23a1.15,1.15 0 0 0 0.69,0a1.53,1.53 0 0 0 0.87,-1c0.4,-1.26 -0.74,-1.76 -1.24,-1.97zm64.91,2.46c-1,-0.19 -1.67,0.64 -1.92,1.48a1.38,1.38 0 0 0 0.11,1.19a1.7,1.7 0 0 0 1.1,0.72l0.13,0c1.13,0.21 1.42,-0.7 1.69,-1.58l0.07,-0.21a1.11,1.11 0 0 0 -0.07,-0.93a1.55,1.55 0 0 0 -1.11,-0.67zm-36.2,19.96a1.53,1.53 0 0 0 -1.76,1.32c-0.27,1.07 0.66,1.55 1.38,1.91a2,2 0 0 0 0.4,0.16a1.32,1.32 0 0 0 0.71,0a1.57,1.57 0 0 0 0.87,-0.82a1.37,1.37 0 0 0 0,-1.14a2.62,2.62 0 0 0 -1.6,-1.43zm9.5,-54.64a1.06,1.06 0 0 0 0.26,0.1c0.74,0.18 1.2,-0.54 1.42,-0.9a1.93,1.93 0 0 0 -0.35,-1.4a1.9,1.9 0 0 0 -1.11,-0.9a1.31,1.31 0 0 0 -1.51,1.14c-0.28,1.17 0.72,1.67 1.29,1.96zm-11.95,12.7a1.07,1.07 0 0 0 1.16,-0.88c0.17,-0.89 -0.3,-1.54 -1.39,-1.92a0.83,0.83 0 0 0 -0.69,0.06a1.05,1.05 0 0 0 -0.46,0.75c-0.18,1.13 0.68,1.62 1.31,2l0.07,-0.01zm-98.25,-115a2.7,2.7 0 0 0 2.79,-2a2.45,2.45 0 0 0 -1.92,-2.5a2.52,2.52 0 0 0 -2.71,2a1.8,1.8 0 0 0 0.27,1.41a2.47,2.47 0 0 0 1.48,1.08l0.09,0.01zm-20.86,-5.78a2.16,2.16 0 0 0 -0.53,-1.56a3,3 0 0 0 -2,-1.2a2.26,2.26 0 0 0 -2.25,1.88a1.92,1.92 0 0 0 0.45,1.43a3,3 0 0 0 1.66,1.08l0.23,0a2.26,2.26 0 0 0 2.44,-1.63zm44.88,-2.27a17.7,17.7 0 0 0 -2.57,-1.46a1.17,1.17 0 0 0 -1.51,0.73a2.07,2.07 0 0 0 0,2.41a2.72,2.72 0 0 0 1.38,1.07a1.91,1.91 0 0 0 0.79,0a3.16,3.16 0 0 0 2.22,-1.63a0.91,0.91 0 0 0 -0.31,-1.12zm-36.57,18.66a1.35,1.35 0 0 0 -1.08,0.08a2.64,2.64 0 0 0 -1.12,1.66a2.37,2.37 0 0 0 0.1,1.89a2.21,2.21 0 0 0 1.45,1a2.79,2.79 0 0 0 2.59,-1.45a2.21,2.21 0 0 0 -0.32,-1.37a3.91,3.91 0 0 0 -1.62,-1.81zm1.71,-14.92l0.08,0a1.67,1.67 0 0 0 1.36,-0.19a1.39,1.39 0 0 0 0.53,-1a2.13,2.13 0 0 0 -1.51,-3a2.46,2.46 0 0 0 -1.88,0.05a1.57,1.57 0 0 0 -0.78,1a2.13,2.13 0 0 0 0.33,1.69a3.15,3.15 0 0 0 1.87,1.45zm53.35,-2.15l0.06,0a2,2 0 0 0 2.38,-1.53a2.26,2.26 0 0 0 -0.4,-1.76a2.65,2.65 0 0 0 -1.64,-1.28c-1.3,-0.21 -1.66,0.8 -1.95,1.62l0,0.08a2.16,2.16 0 0 0 0.08,1.73a2.38,2.38 0 0 0 1.47,1.14zm-60.57,24.57c-1.1,-0.17 -1.85,0.4 -2.28,1.76a2,2 0 0 0 1.07,2.65l0.18,0.06a2.07,2.07 0 0 0 1.4,-0.21a2.65,2.65 0 0 0 1.32,-1.6a2.17,2.17 0 0 0 -0.35,-1.7a2,2 0 0 0 -1.34,-0.96zm16.02,-6.97c-1.4,-0.23 -1.86,0.89 -2.23,1.79a1.64,1.64 0 0 0 0,1.37a2.2,2.2 0 0 0 1.36,1.11l0.1,0a2.28,2.28 0 0 0 1.52,-0.24a2,2 0 0 0 1,-1.08a2.4,2.4 0 0 0 -0.39,-1.86a2.22,2.22 0 0 0 -1.36,-1.09zm-17.27,-10.23c-1,-0.1 -1.33,0.63 -1.55,1.21a3.54,3.54 0 0 1 -0.22,0.51a2.07,2.07 0 0 0 1.46,2.76a1.55,1.55 0 0 0 1.15,-0.18a2.78,2.78 0 0 0 1.16,-1.76a1.91,1.91 0 0 0 -0.34,-1.57a2.4,2.4 0 0 0 -1.66,-0.97zm36.57,3.04a1.87,1.87 0 0 0 2.33,-1.62a2.24,2.24 0 0 0 -1.73,-2.59a1.66,1.66 0 0 0 -1.36,0.18a2.5,2.5 0 0 0 -1.15,1.61a1.78,1.78 0 0 0 0.26,1.4a2.52,2.52 0 0 0 1.51,1l0.14,0.02zm14.62,-15.98a2.07,2.07 0 0 0 1.78,2.5a2.16,2.16 0 0 0 2.45,-1.53a1.36,1.36 0 0 0 -0.14,-1.1a2.81,2.81 0 0 0 -1.86,-1.13l-0.09,0c-1.29,-0.31 -1.84,0.02 -2.14,1.26zm-23.19,17.05c-0.83,-0.16 -1.92,0.85 -2.17,2c-0.29,1.38 0.81,1.77 1.61,2.06a1.83,1.83 0 0 0 2.22,-1.4a2.13,2.13 0 0 0 -0.3,-1.66a2.19,2.19 0 0 0 -1.36,-1zm22.94,-8.25a1.75,1.75 0 0 0 -2.33,1.21c-0.59,1.44 0.66,2 1.27,2.21a1.31,1.31 0 0 0 0.28,0.09a1.73,1.73 0 0 0 1.16,-0.11a2.33,2.33 0 0 0 1.2,-1.45c0.06,-0.87 -0.49,-1.52 -1.58,-1.95zm-6.3,-13.05l-0.26,-0.16a2.21,2.21 0 0 0 -2.48,1.1a1,1 0 0 0 0,0.86a2.8,2.8 0 0 0 1.76,1.39l0.16,0a1.75,1.75 0 0 0 1.31,-0.13a1.72,1.72 0 0 0 0.8,-1.14c0.19,-1.02 -0.63,-1.52 -1.29,-1.92zm23.9,3.05c1.12,0.27 1.78,-0.43 2.4,-1.23a2.28,2.28 0 0 0 -1.64,-2.09c-1.24,-0.54 -1.76,0.55 -2,1.13a1.44,1.44 0 0 0 0,1.28a1.8,1.8 0 0 0 1.24,0.91zm-57.6,16.8a1.59,1.59 0 0 0 -2.09,1.15a1.41,1.41 0 0 0 0.09,1.13a2.28,2.28 0 0 0 1.48,1.08l0.05,0c0.83,0.14 1.47,-0.37 1.78,-1.42s-0.2,-1.54 -1.31,-1.94zm-16.21,6.28a1.5,1.5 0 0 0 -1.24,0.1a1.64,1.64 0 0 0 -0.69,1.14a1.67,1.67 0 0 0 1.33,2.12l0.08,0c1,0.22 1.42,-0.55 1.72,-1.17a2,2 0 0 1 0.11,-0.21c0.17,-0.7 0.07,-1.58 -1.31,-1.98zm26.84,-19.53l0.32,0.11a1.58,1.58 0 0 0 1.84,-1a2.31,2.31 0 0 0 -1.59,-2.58c-0.9,-0.34 -1.2,0.33 -1.41,0.81l-0.09,0.21a1.79,1.79 0 0 0 -0.13,1.43a1.87,1.87 0 0 0 1.06,1.02zm7.22,6.6l0.26,0.07a1.66,1.66 0 0 0 1.26,-0.12a1.44,1.44 0 0 0 0.67,-1c0.23,-1.17 -0.74,-1.56 -1.52,-1.88l-0.22,-0.09a1.24,1.24 0 0 0 -1,-0.05a1.26,1.26 0 0 0 -0.62,0.88a1.67,1.67 0 0 0 1.17,2.21l0,-0.02zm6.39,16.6c-1.32,-0.24 -1.74,1.18 -1.92,1.78a1.22,1.22 0 0 0 0.13,1a1.55,1.55 0 0 0 0.91,0.6l0.23,0a1.75,1.75 0 0 0 2.23,-1.57a1.78,1.78 0 0 0 -1.58,-1.81zm-2.09,-28.6l-0.06,0a1.41,1.41 0 0 0 -1.2,1.17a1.74,1.74 0 0 0 1.26,2.26l0.27,0.09a1.37,1.37 0 0 0 0.88,-0.07a1.47,1.47 0 0 0 0.76,-0.9a1.35,1.35 0 0 0 -0.18,-1a3.32,3.32 0 0 0 -1.73,-1.55zm-49.03,11.65a1.71,1.71 0 0 1 -0.22,-0.25a3.74,3.74 0 0 0 -0.39,-0.4a1.63,1.63 0 0 0 -1.89,-0.31a1.13,1.13 0 0 0 -0.76,1.19c0.13,0.81 0.83,1.09 1.39,1.31l0.35,0.13l0.36,0.14l0.12,0a1.17,1.17 0 0 0 1.31,-0.33c0.52,-0.64 0.08,-1.11 -0.27,-1.48zm4.49,4.79a1.53,1.53 0 0 0 -1.76,1.26a1.34,1.34 0 0 0 0.12,1.06a1.56,1.56 0 0 0 1,0.63l0.12,0c0.94,0.19 1.2,-0.48 1.39,-1a2.17,2.17 0 0 1 0.15,-0.35a1.4,1.4 0 0 0 -0.12,-1.13a1.24,1.24 0 0 0 -0.9,-0.47zm148.04,-9.06a1.9,1.9 0 0 0 -1.33,0.41a2.94,2.94 0 0 0 -1.3,1.78c-0.09,0.76 1.15,2.07 2.17,2.32l0.06,0a2.12,2.12 0 0 0 2.32,-1.7a2.08,2.08 0 0 0 -0.37,-1.47a2.83,2.83 0 0 0 -1.55,-1.34zm23.07,7.94a2.43,2.43 0 0 0 2.74,-1.52a1.63,1.63 0 0 0 -0.28,-1.22a2.83,2.83 0 0 0 -1.62,-1.29a2.12,2.12 0 0 0 -1.58,0.34a2.24,2.24 0 0 0 -1,1.4a2.32,2.32 0 0 0 1.74,2.29zm-13.5,-0.89l0.08,0a1.91,1.91 0 0 0 2.3,-1.3a2.12,2.12 0 0 0 -0.19,-1.64a1.92,1.92 0 0 0 -1.07,-1a2.65,2.65 0 0 0 -2.52,1.52a1.74,1.74 0 0 0 0.2,1.45a2,2 0 0 0 1.2,0.97zm-15.91,-15.04l-0.09,0.13l0.08,-0.13a2.08,2.08 0 0 0 -2.18,1.55a1.43,1.43 0 0 0 0.15,1.24a1.91,1.91 0 0 0 1.14,0.89l0.16,0c1,0.12 1.71,-0.44 2.07,-1.66s-0.64,-1.6 -1.33,-2.02z" class="cls-1"/>
    </g>
   </g>
  </g>
  <defs>
   <style>.cls-1{fill:#1b2251}</style>
  </defs>
  <g stroke="null" id="svg_1595">
   <g stroke="null" transform="matrix(0.483570262464416,0,0,0.483570262464416,-9915.510985077308,-1900.6013651437079) " id="svg_1585">
    <g stroke="null" id="svg_1586">
     <path stroke="null" id="svg_1588" d="m22811.80567,4501.0811a4.5,4.5 0 0 0 -0.6,-0.7c-3.6,-2.7 -7.3,-5.1 -10.7,-8a42.6,42.6 0 0 1 -5.4,-5.6a53.1,53.1 0 0 1 -3,-4.4a20,20 0 0 0 -11.2,-8c-6.7,-2 -11.9,-6 -14.7,-12.5c-2,-4.6 -5.6,-7 -10.2,-8.4a27,27 0 0 1 -9.4,-4.7c-3.9,-3 -7.9,-5.9 -11.1,-9.6a38,38 0 0 1 -1.7,-2.2a3.4,3.4 0 0 1 -0.4,-3.4a41.4,41.4 0 0 1 24.8,-25.7a29.5,29.5 0 0 1 23.7,1.1c5.5,2.7 11,5.6 15.9,9.8a23.8,23.8 0 0 0 2.6,-4c1.7,-4.3 4.5,-7.8 7,-11.5a216.2,216.2 0 0 1 27.9,-33.5a142,142 0 0 1 16.1,-13.6a3.8,3.8 0 0 0 1.6,-1.7a16.9,16.9 0 0 1 4.6,-7.5a52,52 0 0 1 13.7,-10.6a3.8,3.8 0 0 1 1.3,-0.7c2.2,0 3,-1.8 4.2,-3.3c3.3,-3.8 6.6,-7.7 10.2,-11.3c10.2,-10.2 20.9,-19.9 33,-27.8s25.2,-14 39.5,-17c2.8,-0.6 5.7,-0.8 8.8,-1.2l0.8,-2a24.9,24.9 0 0 1 5.3,-9.3a8.5,8.5 0 0 0 2.2,-5l2.5,-25.2l0.5,-4.2l-4.5,0c-7.3,0 -14.5,0.2 -21.8,-0.5a131.3,131.3 0 0 1 -18.2,-3c-7,-1.6 -14,-2.8 -20.7,-5.2c-8.3,-3 -15.6,-7.1 -21.2,-14.1a38.8,38.8 0 0 1 -5.7,-10c-2.4,-6.1 -3.3,-12.6 -4.3,-19a83.5,83.5 0 0 1 2.3,-36.5c2.3,-8.2 4.4,-16.5 6.9,-24.6a112.7,112.7 0 0 1 6.9,-18.4a7.4,7.4 0 0 1 3.1,-3.8a52,52 0 0 1 4,-35.2c2,-4.3 4,-8.5 7.2,-12a28.9,28.9 0 0 1 4,-4c3,-2.2 6.4,-3 10,-1.5a1.8,1.8 0 0 0 2.3,-0.4a20.5,20.5 0 0 1 2.7,-2c3.4,-2.4 6.7,-2.6 10.9,0.5l1.6,1.4c5.2,-2.5 10.6,-0.5 13.8,5.2a2.6,2.6 0 0 0 0.8,-0.2c4.1,-2.4 10.8,2.3 10.4,8a13.8,13.8 0 0 1 -0.8,4.1c-1.2,2.9 -2.5,5.7 -3.9,8.5l-1.4,2.4a3.3,3.3 0 0 0 3,0c5.6,-1.7 11,5.1 9.4,10.1a26.1,26.1 0 0 1 -4.2,8.3a61.9,61.9 0 0 1 -17.5,16.4a23.2,23.2 0 0 1 -8.7,3.3c-0.2,4.9 -0.1,9.7 -0.5,14.5a141.9,141.9 0 0 1 -1.8,14.4a129,129 0 0 1 -3.4,13.8c-1.4,4.6 -3.2,9 -4.9,13.8a10,10 0 0 0 1.6,-0.3a438.1,438.1 0 0 1 46.4,-14a250.5,250.5 0 0 1 30.7,-5.5a2.9,2.9 0 0 0 2.8,-2.2l5.4,-14.2c2.5,-6.4 7.3,-10 13.7,-11.7l2,-0.4l0,-2.5a76.4,76.4 0 0 1 103.7,-72.9a73.9,73.9 0 0 1 46.1,80.3a79,79 0 0 1 -20.3,41.6l-1.7,2l14.1,7.7l17,10a32.5,32.5 0 0 1 5.7,4.8c5.3,5.3 6.3,11.8 5.3,18.9c-0.9,6 -3,11.5 -5.6,17a6.7,6.7 0 0 0 0.2,6.8a386,386 0 0 1 12.3,22.7a104.7,104.7 0 0 1 9.6,35c0.6,5.6 0.9,11.2 1.2,16.7a8.2,8.2 0 0 0 1.4,4.8a25,25 0 0 1 3.5,24a7.3,7.3 0 0 0 0,4.7a76,76 0 0 1 3,27.8c-0.6,10.4 -2,20.7 -5.3,30.6l-1,2.6a4.7,4.7 0 0 0 -0.3,1.9a81,81 0 0 1 -0.5,21.5a94.5,94.5 0 0 1 -7,23.5a35.8,35.8 0 0 1 -5.3,8.3c-2.6,3.2 -5,3.4 -8.6,1.3l-1.3,-0.6a16.8,16.8 0 0 1 -1.3,1.3a34.1,34.1 0 0 1 -5,3.6c-3.2,1.7 -5.8,1 -8.2,-1.9c-0.5,-0.5 -1,-1 -1.3,-1.6c-5.5,2.6 -7.6,2.6 -12.5,-3l-1.5,1.2c-4.3,3 -9,2 -11.8,-2.3a13.3,13.3 0 0 1 -2.2,-7.6a34.2,34.2 0 0 1 2.7,-12l3,-8a13.2,13.2 0 0 0 0.4,-2l-2.3,1.4a26,26 0 0 1 -4,1.7c-5.1,1.4 -9.6,-1 -11.5,-6a12,12 0 0 1 0.4,-9.2a42.5,42.5 0 0 1 11.5,-15.5c3.3,-2.8 7,-5.3 10.6,-8c-2.9,-10.2 -4.2,-21 -5.2,-31.7s-0.9,-21.5 1.5,-32.1l-0.4,-0.1a4.3,4.3 0 0 0 -0.6,0.8l-12.1,31.4a121.9,121.9 0 0 1 -6.5,13.2a27.4,27.4 0 0 1 -14.4,12.5a45.6,45.6 0 0 1 -14.3,3.4a45.1,45.1 0 0 0 -6.4,1.3c-1.3,3.5 -2.6,7.1 -4.1,10.6a1335,1335 0 0 1 -12,26.5a549,549 0 0 1 -9,18.6c-1.3,2.3 -0.7,4.6 0,6.8c1.4,4.4 3,8.6 4.5,13c4.7,13.9 6.6,28.2 7,42.8c0.1,3.5 0.4,7 2,10.3a2.6,2.6 0 0 1 0.3,0.9c0.2,3.7 2.4,6.3 4.6,9l18.7,24a66.8,66.8 0 0 1 10,17.4a21.1,21.1 0 0 0 7,9.5a27.7,27.7 0 0 1 3.4,3.2c1,1.1 1,1.7 0.2,3a5.2,5.2 0 0 1 -1.4,1.4c-4.7,3 -9.4,6.2 -14.3,9a11.9,11.9 0 0 1 -4.6,1.5a12.1,12.1 0 0 0 -9.3,6.1a31.3,31.3 0 0 1 -7,7.6a22,22 0 0 1 -10.7,5.1c-6.6,1 -11.4,4.8 -15.4,9.8a86,86 0 0 1 -15.1,13.6a3.2,3.2 0 0 1 -4.3,0l-10.3,-8a35,35 0 0 1 -9.4,-11.5c-4.3,-8 -5.8,-16.3 -3.4,-25.2a31.1,31.1 0 0 1 6.5,-11.5a82,82 0 0 1 14.4,-14.3a4.3,4.3 0 0 0 0.6,-0.8l-5.4,-6l-8.7,-10.3a4.6,4.6 0 0 1 -0.6,-1c-3.1,-7.2 -7.6,-13.6 -11.5,-20.3c-4.2,-7.4 -9.1,-14.4 -12.5,-22.3a156.3,156.3 0 0 1 -7,-21c-1.2,-4.6 -2.4,-9.3 -3.2,-14s-1.1,-9.7 -1.7,-14.5a3.9,3.9 0 0 0 -0.4,-1.8c-2,-2.5 -2.3,-5.5 -2.5,-8.4c-0.3,-5.5 -0.8,-11 0.8,-16.4a4.5,4.5 0 0 0 -0.1,-2.1a139,139 0 0 1 -2.3,-34a102.7,102.7 0 0 1 4.4,-26.9c0.5,-1.9 1.2,-3.7 1.7,-5.2l-6.6,-11c-3.7,1.2 -7.7,2.2 -11.5,3.5c-5.3,1.8 -9.6,5.6 -14.6,8c-7.5,3.5 -14.8,7.2 -22.3,10.4c-12.2,5.2 -24.6,10 -37,15a6.2,6.2 0 0 0 -3.3,3a144.6,144.6 0 0 1 -14.6,22.5q-6.6,8.4 -13.5,16.5c-8,9.4 -17.5,17 -27.1,24.6l-12,9a7.3,7.3 0 0 0 -1.8,2a90.3,90.3 0 0 1 -21.1,24.4c-1.6,1.3 -3.7,2.1 -5,3.6s-1.6,3.7 -2.5,5.5c-0.7,1.4 -1.7,2.7 -2.5,4.1s-2,2.5 -3.8,2l-1.7,-0.9zm171.3,-239.2l1,-3c2,-6.2 4,-12.4 6.2,-18.6q5.8,-16 12,-32a141.7,141.7 0 0 1 6.4,-14.3c3,-5.7 7.5,-10 14.2,-11.1a29,29 0 0 0 3.4,-0.6c2.4,-0.6 4.5,0 6.6,1.1l12.1,6l22.7,11.3c5.7,2.9 11.4,5.7 17.3,8.3c7.2,3.3 14.4,6.7 20.9,11.3c5.4,3.9 7.7,9.2 7.2,15.8a34.5,34.5 0 0 1 -2.5,10c-1.8,4.4 -3.8,8.7 -5.2,13.2a405.5,405.5 0 0 1 -16.9,43.8a23.8,23.8 0 0 1 -3,4.5a1.6,1.6 0 0 1 -2.6,0.3c-0.8,-0.8 -0.7,-1.7 -0.1,-2.7a64.9,64.9 0 0 0 3.8,-7.4c3.9,-9.5 7.8,-19 11.3,-28.8c3.1,-8.4 5.6,-17 9.3,-25.1a27.6,27.6 0 0 0 2.2,-9.3c0.3,-4.8 -1.3,-8.8 -5.5,-11.3a228,228 0 0 0 -14.1,-8c-5.8,-3 -11.8,-5.3 -17.6,-8.2c-13.6,-6.7 -27,-13.6 -40.5,-20.3a9.8,9.8 0 0 0 -6.4,-1.3c-4.5,1 -8.6,2.8 -11.2,7a46,46 0 0 0 -3.1,5.5c-1.5,3.3 -2.9,6.8 -4.2,10.2c-5.8,15.2 -11.8,30.4 -16.8,46l-4,13.7a9,9 0 0 0 2.8,9.4a43.1,43.1 0 0 0 9.7,7.1l12.2,5.8l10.8,5.3c6.7,3.1 13.5,6.1 20.1,9.3c6.2,2.8 12.3,5.8 18.9,7.7a18.4,18.4 0 0 0 8.4,0.8l9.9,-2a6.6,6.6 0 0 1 1.9,-0.5a2,2 0 0 1 1.3,0.9c0.2,0.3 -0.1,1 -0.4,1.3a6.9,6.9 0 0 1 -1.6,1.1c-6.9,4.1 -14.2,4.6 -21.7,2.1a54,54 0 0 1 -5.6,-2l-21.4,-10l-13.2,-6l-18.2,-8.6a47.2,47.2 0 0 1 -13.8,-9.8c-3,-3 -4.8,-6.6 -4.3,-11c0.3,-2.7 0,-3.3 -2.9,-4.2a25.5,25.5 0 0 0 -6.7,11.5c1.7,1.5 3.1,2.9 4.8,4.1a142.7,142.7 0 0 0 25.3,16.3a667,667 0 0 0 57,24.6c4.6,1.8 9.2,3.3 13.8,4.6c11.1,3.3 22.3,6.3 33.4,9.5l15.5,4.3a33.1,33.1 0 0 0 2,-12a2.8,2.8 0 0 0 -1.3,-1.8a41.1,41.1 0 0 0 -4.9,-2.4a215.8,215.8 0 0 0 -25,-8.8a5.9,5.9 0 0 1 -2.3,-1.2a2.1,2.1 0 0 1 -0.5,-1.9c0.2,-0.5 1.1,-0.7 1.8,-1a2.5,2.5 0 0 1 1.2,0.3c3.2,0.9 6.5,1.6 9.7,2.7c5.2,1.8 10.3,3.7 15.4,5.7c2.3,0.8 4.6,2 7,3.1l3.5,-6c4,-7 8.5,-13.6 11.8,-21a3.5,3.5 0 0 0 -0.3,-3.6c-2.1,-3.7 -4.5,-7.2 -5.7,-11.4c-3.7,-12.4 -4.5,-13.3 -1.3,-24.6l0.8,-2.8c2.3,-6.9 4.4,-13.8 8.1,-20a116.2,116.2 0 0 1 30,-35a124,124 0 0 0 -25,-14.2l-1.3,1.4a25.3,25.3 0 0 1 -12.2,8.4a81.4,81.4 0 0 1 -41.5,3.2c-12.2,-2.3 -23,-8 -32.8,-15.6a84.8,84.8 0 0 1 -14.3,-13.8a44.8,44.8 0 0 1 -8.8,-15.8a3.3,3.3 0 0 0 -3,-2.7a52.6,52.6 0 0 0 -19.3,-0.5l-0.7,1.2a227,227 0 0 0 -19.3,40.6a200.3,200.3 0 0 0 -11,45.5l-2.2,22.3c-0.3,2.5 -0.2,2.7 2.5,4l0,0.1zm185.9,-150.3a19.5,19.5 0 0 0 -0.7,-3.5c-1.5,-4.2 -2.9,-8.4 -4.7,-12.4a53.7,53.7 0 0 0 -9.2,-14.4a91.6,91.6 0 0 0 -57,-28.4a49.3,49.3 0 0 0 -33.7,5.6a8.1,8.1 0 0 0 -1.8,1.3a67,67 0 0 0 -14,20.6a69.9,69.9 0 0 0 -5,38.7c4.1,26.8 18.1,46.5 43.4,56.8c23.3,9.4 46,7.1 67.3,-6.3a14,14 0 0 0 1.4,-1.1l-1.9,-1.6a16,16 0 0 1 -4,-4.9a23.7,23.7 0 0 1 -2.4,-12.9c0.6,-10 4.3,-19.1 10,-27.3c3,-4.2 6.5,-7.8 11.5,-9.7a4.3,4.3 0 0 0 0.8,-0.5zm-53,244.9l-2.7,-1.8c-7,-3.7 -14.4,-6.2 -22,-8.6a91.6,91.6 0 0 0 -41.2,-3.2a72.8,72.8 0 0 0 -27.6,9.8a10.4,10.4 0 0 0 -4.7,5.5a106.9,106.9 0 0 0 -6.6,35c-0.1,9.4 -0.3,18.7 1.4,28c0.8,4 0.8,4 5,4.4c4.6,0.6 9.3,1.3 14,2.4c9.7,2.2 19.3,4.8 29,6.9c7.5,1.6 15,2.6 22.5,4l1.6,-2.8l16.7,-35.6c2.5,-5.5 4.8,-11.1 6.8,-16.9s3.5,-11.7 5.2,-17.5l2.6,-9.6zm-238.4,-18.9a6.2,6.2 0 0 0 0.6,1.1l3,3.5c7.8,8.8 15.4,17.7 23.8,26l10.5,10.6a4.7,4.7 0 0 0 5.3,1.2a13.4,13.4 0 0 0 1.4,-0.5l8.2,-3.4q12,-5.5 24.4,-10.5a300,300 0 0 0 22,-10.1c5.2,-2.6 10,-5.8 15,-8.7a2.6,2.6 0 0 0 1.3,-3.1a55.3,55.3 0 0 0 -1.4,-6.5a141.6,141.6 0 0 0 -13.6,-28c-6,-9.8 -13.9,-18 -22,-26a3.1,3.1 0 0 0 -3.7,-0.8a128,128 0 0 0 -36.2,19a245,245 0 0 0 -26.3,23.2c-4.2,4.2 -8.2,8.7 -12.3,13zm310,-124l-6.4,2.8a95.2,95.2 0 0 0 -43.3,41.4a18.8,18.8 0 0 0 -1.6,15.6a73.1,73.1 0 0 0 3.5,9.5c6,12.6 14.8,23 25.4,32.1a23.2,23.2 0 0 0 3.8,2.2a2.5,2.5 0 0 0 2.9,-0.2a80.4,80.4 0 0 1 39.6,-12.8c3.1,-0.3 6.3,-0.2 9.5,-0.3a19.6,19.6 0 0 0 0.5,-7.8l-2.3,-18.3a58.8,58.8 0 0 0 -1.7,-8.5a126.3,126.3 0 0 0 -8,-19.5c-3.6,-7.3 -7,-14.7 -11.5,-21.4c-3.2,-5 -6.8,-9.8 -10.3,-14.7l-0.1,-0.1zm-368.8,273c2,-1.4 3.9,-2.5 5.6,-3.9a87.2,87.2 0 0 0 16.6,-17.3a40.8,40.8 0 0 1 4.5,-5.8c3.2,-3 6.7,-5.8 10,-8.7l4.8,-4c-15.1,-15.3 -30,-30.7 -45,-45.7a177.5,177.5 0 0 0 -13.3,21.3l1.7,1.6l1.8,1.7a35.4,35.4 0 0 1 2.8,3a1.8,1.8 0 0 1 -0.3,2.6a1.8,1.8 0 0 1 -2.4,0.2a9,9 0 0 1 -1.7,-1.5a78.6,78.6 0 0 0 -23,-16.7a27.7,27.7 0 0 0 -16,-2.1c-6.7,1 -12.3,4.3 -17.2,8.8a13.2,13.2 0 0 0 -4,5.1c24.6,21 49.6,41.4 75.1,61.4zm312.8,83.6a3.8,3.8 0 0 0 0,-0.7a5.4,5.4 0 0 0 -0.2,-1a67.5,67.5 0 0 0 -8.8,-16.3l-14.5,-18.7l-7.3,-9.5c-2.7,0.5 -4.8,2 -6.8,3.5a137.3,137.3 0 0 1 -38.2,18.8c-0.7,0.2 -1.3,0.6 -2.2,1l2.5,3l10.4,11.5c2,2.2 1.9,3.8 -0.6,5.5c-5.8,4 -10.5,9.1 -15,14.4c-4.8,5.6 -7.2,12 -6.6,19.5c0.7,8 4.5,14.8 10,20.5a6,6 0 0 0 1.4,0.8l0.8,-0.5q16.8,-13 34.8,-24.4c6.4,-4 12.8,-8.2 19.1,-12.5l19,-13.2l2.2,-1.7zm-140.7,-418.2l-1.7,0.2a474.6,474.6 0 0 0 -51.6,15.4a21,21 0 0 0 -8.5,5.9a259.2,259.2 0 0 0 -26.8,35.8a4.5,4.5 0 0 0 -0.3,0.8l2.8,2a59.4,59.4 0 0 0 14.5,5.9a258.8,258.8 0 0 0 32.8,6.6c8,1 16,0.7 24,0.5l4,0l1.5,-6l-2.5,0a196,196 0 0 1 -25.5,0.9a6.8,6.8 0 0 1 -2.2,-0.3a2.3,2.3 0 0 1 -1.1,-1.3c0,-0.3 0.6,-1 1,-1a16.8,16.8 0 0 1 3,-0.3l21.4,-1c2.2,-0.2 4.3,-0.6 6.5,-0.9c0.5,-1.9 1,-3.5 1.3,-5.2a36.3,36.3 0 0 0 0.2,-4.9l0,-9c0.2,-14.4 3.4,-28.2 6.9,-42a13.6,13.6 0 0 0 0.2,-2.1l0.1,0zm92,295l-1.2,0.1c-8.5,1.2 -16.9,2.6 -25.3,3.5c-8.2,0.8 -16.4,1 -24.6,1.6c-5.3,0.3 -10.7,0.9 -16,1.3c-0.6,13.7 9.1,47.8 16.2,57.4l0.9,0a192.4,192.4 0 0 0 38.4,-8.4a91.3,91.3 0 0 0 21.1,-9.8c1,-0.6 1.7,-1 1.5,-2.5c-1,-5.5 -1.5,-11.2 -2.6,-16.7c-1.8,-9 -5,-17.6 -8.3,-26.4l-0.1,-0.1zm-194,-257.7l2.1,-1.3a186.4,186.4 0 0 1 37,-21.2a3.8,3.8 0 0 0 2.4,-2.3l1.8,-4.8a108.2,108.2 0 0 0 7.9,-26.9l0.9,-7.1l-43.7,-11l-0.8,2.3l-6.9,24.6a86.4,86.4 0 0 0 -1,44.4a26.4,26.4 0 0 1 0.3,3.3zm-4.8,235.7c8.8,-8.2 27.7,-34.5 29,-40.2c-19,-8 -38.3,-15.8 -56.3,-26.1a117.5,117.5 0 0 0 -23.4,20.5c17,15.2 33,31.4 50.7,45.8zm288.2,-100.4l-1,5a135,135 0 0 0 1.1,38.2a1.8,1.8 0 0 0 1.5,1.7l6.6,2c5.6,1.6 11.1,3.2 16.8,4.5c7,1.7 14.2,3 21.4,4.5l7.9,1.3a95.4,95.4 0 0 0 -0.9,-45.2c-2.2,0.1 -4.3,0.4 -6.3,0.3s-4.2,-0.6 -6.3,-0.7a104,104 0 0 1 -21,-4a116.4,116.4 0 0 1 -19.8,-7.6zm12.4,110.5a24.7,24.7 0 0 0 9,2.1a9.4,9.4 0 0 0 0.5,-1.2l3.4,-11.3a8,8 0 0 1 1,-2.3c0.7,-1 1.7,-1 2.6,0a3,3 0 0 1 0.6,3.1l-2.9,10.4l-0.4,2c1.7,0.4 3,0.9 4.5,1c3.7,0.6 4.4,0 5.5,-3.4l3,-8.6a2.1,2.1 0 0 1 1.9,-1.6c1.2,0 1.7,1 2,1.9a3.6,3.6 0 0 1 0,1.9a1522.1,1522.1 0 0 0 -2.8,8.6l2.7,-0.1a3.1,3.1 0 0 0 3,-2.6c1.2,-4.7 2.6,-9.3 3.6,-14c1.3,-6 1.1,-12 1.1,-18l0,-3a105.9,105.9 0 0 1 -45.7,-12.2l-11,8.4a5.4,5.4 0 0 0 -2.1,2.9a12.5,12.5 0 0 0 4.2,13c0.8,0.5 1.4,1 2.4,0.7s1.7,0.5 2,1.3a4.4,4.4 0 0 1 0,2.2c-0.4,2.2 -1,4.5 -1.6,6.7l-2.4,7.3l11.7,2.8l0.9,-2.6l2.6,-9.2c0.3,-1 1,-1.9 2.1,-1.6a2.3,2.3 0 0 1 1.9,2.3a8.5,8.5 0 0 1 -0.3,2l-1,3.7a297,297 0 0 0 -2,7.4zm-0.1,-318.6a72.2,72.2 0 0 0 -37.6,-69a69.7,69.7 0 0 0 -43.2,-8.3a71,71 0 0 0 -29.5,10.7c4,-0.5 7.5,-1.2 11,-1.3a99.3,99.3 0 0 1 36.1,6.4a125,125 0 0 1 13.2,6.4a87.2,87.2 0 0 1 20.7,15.7a72.2,72.2 0 0 1 16.8,31a28.7,28.7 0 0 1 0.5,3.2c5,-0.2 8.6,2 12,5.2zm-69.9,261.7c1.7,1.3 1.7,1.3 3.6,1.1a45.3,45.3 0 0 0 16.2,-4.8a21.8,21.8 0 0 0 8.8,-8.3a78.6,78.6 0 0 0 5,-9.6l12.6,-31.2c0.9,-2.3 1.5,-4.6 2.2,-7a111.3,111.3 0 0 1 -19,-20.6l-2.8,5.6l-12.1,20.5a5.3,5.3 0 0 0 -1,2.5a50,50 0 0 1 -2.3,15.1a20.4,20.4 0 0 0 2.3,-0.2l17,-3.6a9.3,9.3 0 0 1 2.5,-0.4a5.7,5.7 0 0 1 1.8,0.8c-0.3,0.6 -0.5,1.3 -1,1.6a13,13 0 0 1 -3.5,1.6l-13.7,2.9l-6.1,1l-2,5.7c1,0 1.8,-0.1 2.5,-0.3l16,-3.2a10.4,10.4 0 0 1 2.5,-0.3a1.5,1.5 0 0 1 1,0.8a1.4,1.4 0 0 1 -0.4,1.3a8.9,8.9 0 0 1 -2.6,1.3c-4.5,1.2 -14.7,3.5 -19.2,4.6c-2.6,0.6 -3.6,1.5 -4,4.1l-1.5,7.3l-0.2,1.9l1.4,-0.1a63.9,63.9 0 0 0 16.2,-3.8c1,-0.4 2.4,-1.4 3,0.1s-1,1.8 -2,2.3a40.6,40.6 0 0 1 -11.3,4l-8.4,1.6l-1.5,5.7zm-201,-322.6a7.3,7.3 0 0 0 -0.7,1a54,54 0 0 0 -7.5,24a37.5,37.5 0 0 0 0.8,11.5a2.9,2.9 0 0 0 2.4,2.5c2.5,0.5 5,1 7.4,1.7c3.3,0.8 6.7,1.5 10,2.4a735,735 0 0 1 13.7,3.9a10.3,10.3 0 0 0 5.8,-0.1a38,38 0 0 0 17,-11.3l0.1,-0.6c-3.7,-2 -6,-5.2 -7,-10l-6.2,6.5a5.3,5.3 0 0 1 -1.4,1.3a1.4,1.4 0 0 1 -1.4,-0.4a2.4,2.4 0 0 1 0,-1.8a36.9,36.9 0 0 1 8.1,-11.3a24.4,24.4 0 0 0 5.2,-8.6l-5.5,-4l-4.8,8.2l2.3,1.9l-0.2,0.5a15.4,15.4 0 0 1 -2.5,0.3l-4.2,-0.6l-27.2,-4.1a3,3 0 0 1 -1.5,-0.6a2.1,2.1 0 0 1 -0.8,-1.6c0.1,-0.4 1,-0.9 1.5,-1a8.6,8.6 0 0 1 2.2,0.1l2.6,-4.5a15.9,15.9 0 0 1 -8.2,-5.3zm235,124.5l13.2,6.6a72.1,72.1 0 0 1 22.1,17.4c4.6,5.3 8.7,11 13,16.6l1.3,1.5a17.5,17.5 0 0 0 0.8,-1.8c1.3,-4.1 2.7,-8.3 3.6,-12.5a43,43 0 0 0 1,-9a13,13 0 0 0 -4.6,-10.3a38.2,38.2 0 0 0 -5.4,-4.2l-28.9,-16.5l-2.2,-1c-2.2,1.7 -4.4,3.5 -6.7,5l-6.9,4.6l-0.3,3.6zm-103.3,-37c-4.6,1.6 -6,4.2 -4.8,8.5a51.2,51.2 0 0 0 16.5,23.1a77.5,77.5 0 0 0 19.7,12.9c4.7,2 9.3,4 14.3,5a76.3,76.3 0 0 0 25.7,0.7a73.3,73.3 0 0 0 16,-3.8a21.6,21.6 0 0 0 11.4,-9.2a13,13 0 0 0 0.7,-1.9a73.5,73.5 0 0 1 -57,2.7a76,76 0 0 1 -42.5,-38zm13,182a6.5,6.5 0 0 0 -0.7,-0.3c-4.4,-1.7 -8.8,-3.3 -13,-5.1q-13.1,-5.5 -26.2,-11.3c-9.8,-4.2 -19.5,-8.6 -28.4,-14.5l-1.9,-1c10.8,14 16.5,30.3 21.2,47.5c14.5,-11.5 31.3,-14.8 49,-15.2l0,-0.1zm122.8,-191c1,-3.4 1.9,-7 2.7,-10.4a4.7,4.7 0 0 0 -0.5,-2.8c-1.8,-4 -7.5,-6.5 -11.9,-5.3a16.8,16.8 0 0 0 -8.8,5.5a58.5,58.5 0 0 0 -4.5,6.2a46.8,46.8 0 0 0 -7.6,24.6c0,4.8 0.9,9.3 5,12.5c2.3,1.8 2.9,1.8 5.1,0a70.5,70.5 0 0 0 13,-14.7c2,-3 7.3,-14.4 7.5,-15.5l0,-0.1zm-167,219.5a8.5,8.5 0 0 0 1.1,-0.7a50,50 0 0 1 15.2,-9c12,-5.1 24.6,-6.5 37.5,-6a97,97 0 0 1 25,4.7a112.8,112.8 0 0 1 20.7,8.2c3.4,1.8 3.5,1.8 5.1,-1.9c0.8,-1.7 1.8,-3.4 1.6,-5.5a5.1,5.1 0 0 0 -0.7,-0.3l-25,-6.8c-7.4,-2.1 -14.8,-4.2 -22.6,-5.1a116.2,116.2 0 0 0 -28.4,-0.2a64.6,64.6 0 0 0 -31.8,13.4l-1.8,1.7l4.2,7.5l-0.1,0zm159.9,-33a11.5,11.5 0 0 0 1.2,0.7a128,128 0 0 0 26.3,8.5c4,0.8 8.2,1.4 12.3,2a30.1,30.1 0 0 0 10.5,-0.2a2,2 0 0 0 1.9,-1.6c2,-7.2 1.3,-14 -3.2,-20.1a3.3,3.3 0 0 0 -2.8,-1.5a71.1,71.1 0 0 0 -17.8,1.2a79.5,79.5 0 0 0 -28.4,11zm-161.6,109a72,72 0 0 0 0.3,17.9a2.1,2.1 0 0 0 0,0.2a1.5,1.5 0 0 0 1.8,1.4l4.4,-0.2c6.9,-0.5 13.7,-1.3 20.6,-1.6a295.4,295.4 0 0 0 38.4,-4a10,10 0 0 0 1.3,-0.3a2.1,2.1 0 0 0 -1.2,-0.5c-9.7,-1.5 -19.4,-3.3 -29,-5.6l-22.1,-5.4a77,77 0 0 0 -14.5,-1.9zm82,67.8c-18.5,11.4 -38.9,15.4 -59.7,18.6l6.2,10.3a94.8,94.8 0 0 0 28,-6.3c6.2,-2.5 12.4,-5.3 18.5,-8.1c2.1,-1 4.1,-2.3 6.2,-3.5a1.9,1.9 0 0 0 1.2,-1.9l-0.4,-9.1zm-89.7,-154.1a40.2,40.2 0 0 0 -0.7,-4.5a143,143 0 0 0 -7,-21.4c-3.5,-8.1 -7.5,-16 -13.4,-22.6l-12.6,-14.2a3.6,3.6 0 0 0 -2.3,-1.2a27.8,27.8 0 0 0 -9.1,1.5l2.5,2.6c3.3,3.5 6.8,6.8 10,10.5a131,131 0 0 1 18.9,30a67.8,67.8 0 0 1 6.8,20.8l0.5,0.4l6.4,-1.9zm-146.8,11.2l5.5,3.3c4.8,2.5 9.6,5 14.5,7.3l28.4,12.8a21,21 0 0 0 2,0.7a3.7,3.7 0 0 0 -1,-1.6l-26.7,-28.4c-2.5,-2.6 -5.3,-5 -8.2,-7.7c-5.2,4.1 -10.8,7.4 -14.4,13.6l-0.1,0zm-117,74.2l-2.5,5.2a2.3,2.3 0 0 0 0.6,3c5.6,5.2 11.2,10.4 19,12.6a16.6,16.6 0 0 1 9.3,6.5c1,1.6 1.9,3.4 3,5a25.9,25.9 0 0 0 3.4,4.8a20,20 0 0 0 8.1,4.4a22.7,22.7 0 0 1 10.9,7c1.8,2 3.3,4.4 5,6.5a50.2,50.2 0 0 0 5.1,5.6c2.2,1.9 4.5,3.5 6.9,5.2c1.1,0.8 2.4,1.5 3.8,2.3l3.2,-5.9c-25.7,-20.3 -51,-40.3 -75.8,-62.2zm81.1,-36.8l-4.3,5.7l46,46.6l7,-5.9a15.7,15.7 0 0 0 -1,-1.3c-3.6,-3.7 -7.1,-7.5 -10.8,-11q-15,-14.3 -30.3,-28.4c-2,-2 -4.2,-3.7 -6.6,-5.7zm119.4,-271.4a54.6,54.6 0 0 0 0.2,-11.6a2.4,2.4 0 0 0 -2.2,-2.3l-7.3,-1.9l-25.6,-6.8a2.5,2.5 0 0 0 -3.2,1.2a64.4,64.4 0 0 0 -4.3,10.6c2.3,1.3 37.7,10.3 42.4,10.8zm-67.5,314.7a55.5,55.5 0 0 0 6.8,-6.6l-50.5,-46.3a30.8,30.8 0 0 0 -5,6l24.7,23.2c8.2,7.6 16.4,15.2 24,23.7zm221.7,77.4c-16.4,8.7 -33.1,16.6 -52.3,18.2l7,12.2c1,-0.3 2,-0.4 3,-0.8a139,139 0 0 0 31,-13.8l13,-8.4a15.4,15.4 0 0 0 -1.7,-7.4zm-30.9,117.9l1.1,-0.6a60.7,60.7 0 0 0 13.7,-11.8c4.7,-5.6 10.2,-10 17.8,-11a19.8,19.8 0 0 0 10.8,-5.9a54.2,54.2 0 0 0 4.7,-5.6c2.6,-3.4 5.5,-6.3 9.8,-6.9a20.4,20.4 0 0 0 8.2,-3.3l6.3,-4.2l4.1,-2.9l-5.6,-4.8l-16.6,11.7c-4.7,3.3 -9.3,7 -14.2,10a614.5,614.5 0 0 0 -40.6,27.2l-4.7,3.7l5.2,4.4zm108.8,-256.5a7.1,7.1 0 0 0 0,1l1,4.9a4,4 0 0 0 2.5,3.2a109.5,109.5 0 0 0 24.8,9.1a98.5,98.5 0 0 0 19.6,2.7c0.7,0 1.8,-0.3 2,-0.6c0.8,-2.5 1.4,-5.1 2.1,-7.9c-17.7,-3 -35,-6.4 -52,-12.4zm11,-163.4c-2,-3.3 -7.1,-8.5 -9.5,-10a3.8,3.8 0 0 0 -0.6,0.4a107.9,107.9 0 0 0 -22.6,23.8c-3.8,5.6 -7.8,11.2 -10.1,17.6l-0.5,1.4l-0.4,1.8a94.8,94.8 0 0 1 43.7,-35zm-146.7,-91c-4,1.5 -8.4,2.8 -10.3,7.4c-2.3,5.1 -4.4,10.4 -6.5,15.6l0,0.6l14.8,1.9l7.1,-6.4l-5,-19l-0.1,-0.1zm-115.7,55c-6,1.9 -27.5,15 -31.4,19.2a22.4,22.4 0 0 0 8,13c3.6,-5.4 7.2,-11 11,-16.2s8,-10.5 12.4,-16zm65.2,20.3l0.5,0l4.3,-11.7a227.9,227.9 0 0 1 10.4,-23c1.9,-3.8 4,-7.4 6.2,-11.6c-4,0.6 -7.3,1.3 -10.7,1.7c-2.4,0.2 -3.5,1.3 -4,3.7c-0.9,5 -2.1,9.8 -3.2,14.7a141.3,141.3 0 0 0 -3.4,23l-0.1,3.2zm180.1,238.7a26.9,26.9 0 0 0 -2.5,10.9a12,12 0 0 0 0.7,3.8c0.8,2 2.3,2.6 4.4,2a6.1,6.1 0 0 0 3.4,-2.6l3.9,-6.3c0.8,-1.4 1.3,-3 2,-4.6l-11.9,-3.2zm-0.6,-18.5a15.9,15.9 0 0 1 -6.8,-13c-0.5,0.2 -0.8,0.2 -0.9,0.4a74.1,74.1 0 0 0 -5,7.5a14.2,14.2 0 0 0 -1.5,6c-0.1,3.5 2,5 5.6,4.4c3.4,-0.7 5.8,-2.8 8.6,-5.3zm-196.4,-333.5a37,37 0 0 0 1.5,-4.6c0.5,-2.7 -0.8,-4 -3.4,-3.6a25.1,25.1 0 0 0 -5.4,1.5c-3.6,1.6 -4,2.7 -3,6.5a8.2,8.2 0 0 0 0.5,1.6a7,7 0 0 0 4.3,3.8a1.7,1.7 0 0 0 2.1,-0.7l3.4,-4.5zm-27.2,-26.6c1.7,2.7 4.2,3.3 7,2.8a2.7,2.7 0 0 0 1.8,-1.2a46.2,46.2 0 0 0 2.7,-6c1.5,-4.2 -1.8,-6.6 -5.4,-6.6a2.8,2.8 0 0 0 -3,2.6a27.4,27.4 0 0 1 -1.1,4l-2,4.4zm-12.2,0.3c3.3,2.3 5.7,1.9 7.5,-1.2a29.1,29.1 0 0 0 1.5,-2.9a40.8,40.8 0 0 0 2,-5.4c0.6,-2 0,-2.9 -2,-3.7c-2.2,-1 -6.1,0.2 -7.4,2.5a2.4,2.4 0 0 0 0,1.6a9.5,9.5 0 0 1 -0.5,6l-1.1,3.1zm252.7,383.4l-4.5,8.4a2.8,2.8 0 0 0 0,2.8c1.2,2.8 4.2,3.3 6.6,1c2.7,-2.8 4.5,-6.2 6.2,-9.8l-8.3,-2.4zm21.5,4.6l-8,-2l-5.5,9.4c-0.7,1.3 -0.2,2.3 0.5,3.4a2.1,2.1 0 0 0 2.9,0.7a11.6,11.6 0 0 0 3.3,-1.9c3,-2.7 4.8,-6.1 6.8,-9.6zm-278.6,-389.7a49.6,49.6 0 0 0 1.7,-4.8c0.5,-1.9 -0.1,-2.8 -2,-3.2a6,6 0 0 0 -5,0.7l-3.8,3.3c-1.9,1.5 -1.6,3 0.2,4.7a9.6,9.6 0 0 0 1.8,1.2c2.8,1.7 5.5,0.9 7,-2l0.1,0.1zm18,16.4l4,-7.3l-7.7,-3.8l-5.5,9.3l9.2,1.8zm19,-9.9a19,19 0 0 0 2.1,-7c0,-2 -0.6,-3 -2.3,-3.4a4.2,4.2 0 0 0 -4.4,2.3l-2,5a2.3,2.3 0 0 0 0.5,2.9a12.6,12.6 0 0 0 1.7,1.4c2.2,1.4 3.1,1.2 4.3,-1.2l0.1,0zm-34.7,-1.3l-4.5,7.6l6,1l3.8,-6.3l-5.3,-2.3zm277.7,391.4c1.8,1.2 2.5,1.3 3.7,0c2.4,-2.4 4,-5.4 5.6,-8.5l-3.4,-0.5a1.5,1.5 0 0 0 -1.8,1l-4.1,8z" class="cls-1"/>
     <path stroke="null" id="svg_1589" d="m23095.30567,4123.8811l-0.8,-0.7c0.3,-0.3 0.5,-0.8 0.9,-1l8.2,-2.6c5.1,-1.5 10.3,-3.1 15.5,-4.5c3.1,-0.8 6.4,-1.2 9.6,-1.7l7.3,-0.8a3.6,3.6 0 0 1 2,0.2a2.3,2.3 0 0 1 1.2,1.3a1.3,1.3 0 0 1 -1.2,1.6l-4.5,0.5a161,161 0 0 0 -21.6,4c-5.1,1.4 -10.4,2.4 -15.7,3.5l-0.9,0.2zm16.8,-15.3l-0.9,-0.7c0.3,-0.3 0.5,-0.8 1,-1q4,-1.4 8.1,-2.6c5.2,-1.5 10.3,-3.1 15.6,-4.5c3.1,-0.8 6.4,-1.1 9.6,-1.6l7.3,-1a3.7,3.7 0 0 1 1.9,0.4a2.2,2.2 0 0 1 1.2,1.3a1.3,1.3 0 0 1 -1.2,1.5l-4.5,0.5a159.6,159.6 0 0 0 -21.5,4c-5.2,1.4 -10.5,2.4 -15.7,3.5l-0.9,0.2zm-280.2,83.6c3,-1.3 6,-1.2 8.9,-1.2l9.2,0l-1.2,-2.8l-3.3,-6.9c-0.2,-0.3 -0.5,-0.7 -0.5,-1a2.6,2.6 0 0 1 0.7,-1.8a2,2 0 0 1 1.7,0.2a4.7,4.7 0 0 1 1.4,1.7l3,5.7c0.2,0.6 0.5,1 1,1.9c2,-2.4 4,-4.6 6,-6.7c1,-1.3 2,-2.5 3.2,-3.7s2,-1.3 2.7,-0.5s1,1.7 0.1,2.8c-1.9,2.6 -4,5 -6,7.5l-3.2,3.9l8.6,0.5c1.7,0 3.3,0 5,0.3a5,5 0 0 1 2.3,1a1.4,1.4 0 0 1 -0.7,2.7a6,6 0 0 1 -1.7,0l-10,-0.2l-2.7,0c1.4,4.2 3.7,7.8 4,12.3a9.3,9.3 0 0 1 -1.4,-1.4l-5.1,-8l-1.7,-3c-3.2,3.2 -5.3,7.3 -9.7,9.3c-0.3,-2.2 1,-3.7 1.8,-5.2a46.4,46.4 0 0 1 3.2,-4.7c-5.3,-1 -10.6,-0.9 -15.6,-2.7zm166.8,356c-0.1,1.5 -1.4,2.1 -2.6,1.1a4,4 0 0 1 -1,-2c-0.7,-2.6 -1,-5.3 -1.7,-7.9a19,19 0 0 0 -2.6,-5.2c-1.6,-2.2 -4,-3 -6.6,-3.3a25.6,25.6 0 0 1 -3,-0.4c-0.9,-0.2 -1.9,-0.6 -1.9,-1.9c0,-1 0.8,-1.7 2.2,-2l3.6,-0.3a15.4,15.4 0 0 0 6.9,-2.5c2.7,-2 4.5,-4.5 3.8,-8.2a6.3,6.3 0 0 1 0,-1.2c0,-0.9 0.2,-1.8 1.2,-1.9a2.8,2.8 0 0 1 2,1a4.9,4.9 0 0 1 1,2.7c0,5 3,8 7,10.1a8.8,8.8 0 0 1 2,1a2.5,2.5 0 0 1 1,1.8c0,0.5 -0.9,1 -1.4,1.3c-0.2,0.2 -0.5,0.1 -0.7,0.2c-5,1 -8.1,4.2 -8.9,9.2a55.8,55.8 0 0 0 -0.3,6.8a14.2,14.2 0 0 0 0,1.6zm-2.4,-12.7a16.7,16.7 0 0 1 6.7,-7.5l-4.9,-4.7a15.6,15.6 0 0 1 -7.6,5.7l5.8,6.5zm40.9,-474.7a3.7,3.7 0 0 1 0.3,-1.4c6.4,-8.8 13.3,-17 22.1,-23.6c1.3,-1.3 5.6,-4.2 13.1,-8.1a16.2,16.2 0 0 1 2.8,-1a1.5,1.5 0 0 1 1.8,1.2a2.7,2.7 0 0 1 -0.6,1.7a2.4,2.4 0 0 1 -1,0.7a98.9,98.9 0 0 0 -23.4,16.9q-5.6,5.1 -11,10.4c-1.2,1.1 -2.2,2.4 -3.3,3.5l-0.8,-0.3zm214.8,90.9l8.6,0.8a7.9,7.9 0 0 1 1.7,0.7c-0.6,0.5 -1,1 -1.3,1c-1.9,0.5 -3.7,0.9 -5.6,1.2l-2.6,0.3c0,1 0,1.8 0.2,2.6l0.9,8.8a13,13 0 0 1 -0.4,2.7l-0.6,0.2a12.4,12.4 0 0 1 -1.8,-1.7a10.6,10.6 0 0 1 -1.6,-5.6l-0.6,-7l-8.8,0.3a10,10 0 0 1 -2.7,-0.2c-0.5,-0.2 -0.9,-0.8 -1.3,-1.2c0.4,-0.4 0.8,-1 1.4,-1c2.7,-0.6 5.5,-0.9 8.2,-1.3l2.7,-0.3l-0.7,-3.8l-1.2,-5.7a4.1,4.1 0 0 1 -0.1,-1.7c0.1,-0.6 0.4,-1.4 0.9,-1.5a1.4,1.4 0 0 1 1.9,1l0.6,2.4l2.2,9zm-5.8,130.5a22,22 0 0 1 -1,-2.9a190,190 0 0 0 -12.1,-36.7l-1.7,-3.6a1.5,1.5 0 0 1 0.6,-2a1.3,1.3 0 0 1 1.9,0.5a20.5,20.5 0 0 1 1.7,2.7a133,133 0 0 1 10.4,28.3a99.3,99.3 0 0 1 1.3,11a11.4,11.4 0 0 1 -0.4,2.7l-0.7,0zm-383.5,41.6c0.2,-1.1 0.4,-2.3 0.8,-3.4a73.5,73.5 0 0 1 12.6,-21.8c1.3,-1.6 2.8,-3.2 4.3,-4.7a3.3,3.3 0 0 1 1.7,-1a1.6,1.6 0 0 1 1.6,2.2a4.3,4.3 0 0 1 -0.8,1.5c-6.3,7 -11.2,15 -16.2,23l-2.7,3.9a3.1,3.1 0 0 1 -0.7,0.5l-0.6,-0.2zm249.6,178.6a22.5,22.5 0 0 1 0.1,-3.3l1.9,-8.9l2.5,-12a4.2,4.2 0 0 1 0.3,-1.1a1.4,1.4 0 0 1 2.4,-0.2a3.6,3.6 0 0 1 0.6,3.3l-3,13.4a41.8,41.8 0 0 1 -2.2,6a26.4,26.4 0 0 1 -1.8,3l-0.8,-0.2zm-63,-227.7c-9.6,-6 -14.2,-11.8 -16.3,-19.3a20.9,20.9 0 0 1 3,-17.4a22.8,22.8 0 0 1 22.4,-11.2a26.6,26.6 0 0 1 17.4,8.6c3.3,3.6 5.7,7.7 6.2,12.6a24,24 0 0 1 -8,21.3a34.3,34.3 0 0 1 -7.9,5.3a18.2,18.2 0 0 1 -16.8,0.1zm24.2,-22.1c-1.2,-1.4 -1.3,-1.4 -1.7,-3.6a18.2,18.2 0 0 0 -12.4,-15c-9.6,-3.3 -14.6,-2 -19.3,4.7l-0.2,0.2a18.5,18.5 0 0 0 -3,17.5a25,25 0 0 0 11,13.5c4.6,2.9 9.3,3 14.2,-0.3a25.2,25.2 0 0 0 9.3,-12l1,-2.4c1.8,0.8 1.4,2 1,2.9a26,26 0 0 1 -5.8,10.6c-0.4,0.3 -0.6,0.7 -1,1.3a20.3,20.3 0 1 0 -5.5,-38.7l0,0.2l2.7,1.6c5.9,3.4 9.2,8.6 10.6,15.2a4.5,4.5 0 0 1 -0.9,4.3zm-63.6,-1.4l-4.6,-2.7c-2.3,-1.5 -2.6,-2.2 -1.6,-4.7a1275.7,1275.7 0 0 1 12,-31.4a20.5,20.5 0 0 1 2,-3.5c1,-1.6 2,-2 3.7,-1c3.7,1.9 7.4,3.8 11,6c1.9,1 2.2,2.8 1.3,5.2l-5.3,12.7l-7.3,17.7a31.5,31.5 0 0 1 -1.5,3.3a3.1,3.1 0 0 1 -4.5,1.4l-5.1,-3l-0.1,0zm21.1,-34.2c-3.5,-2 -6.7,-4.2 -10.3,-5.4l-2.4,4.1l10.5,6.3l2.2,-5zm-18.6,13l10.3,6.2l2,-4.9l-10.3,-6.1l-2,4.9l0,-0.1zm9,9l-10,-5.8l-2,5c3.5,2 6.6,4 10.2,5.6l1.9,-4.7l-0.1,-0.1zm6.3,-14.3c-3.7,-2.1 -7,-4.4 -10.5,-6.5l-1.7,4l10.6,6.4l1.7,-3.8l-0.1,-0.1zm-11,26.3l1.7,-4.2l-10,-5.9l-1.6,4.2l9.9,5.9z" class="cls-1"/>
     <path stroke="null" id="svg_1590" d="m23078.70567,4289.5811a35,35 0 0 1 0.8,-3.6c2.1,-6.7 4.4,-13.3 6.4,-19.9c2.6,-8 5,-16 7.3,-24c1.3,-4.3 0,-7.4 -3.9,-9.6c-6.3,-3.5 -12.7,-6.8 -19,-10.1l-30.2,-15.2l-19.6,-10.2a3.3,3.3 0 0 1 -1.2,-1.1a1.2,1.2 0 0 1 1,-2a5,5 0 0 1 2,0.5c3.1,1.3 6.2,2.7 9.2,4.2l21.3,11.3c8.5,4.3 17.1,8.3 25.6,12.6a140.4,140.4 0 0 1 13,7.3c5.4,3.5 7,8.4 5,14.6c-2,6.4 -4,12.8 -6.3,19.1c-2.7,7.7 -5.8,15.2 -8.8,22.7a41,41 0 0 1 -2,3.7l-0.6,-0.3zm-54.5,-4.7a14.9,14.9 0 0 1 -2.7,0a54.2,54.2 0 0 1 -17.3,-7.5a19,19 0 0 1 -4.6,-4.7c-2.2,-3 -2,-6.4 -0.1,-9.5s5.1,-4.3 8.7,-3.7a46.7,46.7 0 0 1 16.7,6.2a23,23 0 0 1 6.7,5.7a8.6,8.6 0 0 1 0.5,10.5a3.8,3.8 0 0 1 -3.5,1.8a2.1,2.1 0 0 1 -1.4,-0.7c-0.2,-0.3 0.2,-0.9 0.4,-1.3c0,-0.2 0.2,-0.3 0.3,-0.4c3.1,-3.6 3,-6.9 -0.7,-10a36.4,36.4 0 0 0 -11.2,-6a51.8,51.8 0 0 0 -6,-2a10.9,10.9 0 0 0 -3.7,-0.1a5,5 0 0 0 -3.7,7.7a11.5,11.5 0 0 0 3.8,3.7c5,2.7 10,5.1 15.2,7.6c1.6,0.8 1.6,0.7 2.6,2.7zm15.9,8.1c-2.6,-1.4 -3,-2.3 -2.2,-4.5l2.6,-6.4a24.2,24.2 0 0 0 1,-3.2c0.3,-1.3 0.8,-1.8 2,-1.5a14.6,14.6 0 0 1 2.7,1l14.3,7.3a21.8,21.8 0 0 0 2.5,1c2.4,0.9 3,2 2.3,4.5l-2,5.3l-1,2.8c-1,2.3 -1.6,2.6 -4,1.8l-5.7,-2.2l-12.6,-5.9l0.1,0zm12.8,-7.4l-3,7.8a43.2,43.2 0 0 0 8.8,3.5l2.8,-7l-8.6,-4.3zm-3,-2l-5.5,-2.4l-3.3,8.5l5.3,2.8l3.4,-8.9l0.1,0zm58,-16.5c1.2,0.5 1.3,1.5 1.2,2.5c-0.1,2 -0.5,3.9 -0.6,5.9c-0.3,3.6 -0.5,7.3 -0.6,11a11,11 0 0 0 3.1,7.8c2.5,2.7 5.2,5.3 7.6,8a62.5,62.5 0 0 1 4.2,5.4a8.8,8.8 0 0 1 1,2.3c0.3,0.9 0.3,1.8 -0.6,2.4s-1.7,-0.2 -2.3,-1a3.1,3.1 0 0 1 -0.4,-0.5c-1.3,-3.6 -4,-6 -6.5,-8.5c-2.1,-2.2 -4.2,-4.5 -6.1,-6.8a15.4,15.4 0 0 1 -3.4,-10.3c0,-6 1.5,-11.6 2.8,-17.4c0,-0.3 0.4,-0.5 0.6,-0.8zm20.2,-57.5a18.9,18.9 0 0 1 -3.3,1.4l-10.9,2a3,3 0 0 1 -1.2,0c-0.8,-0.2 -1.7,-0.7 -1.5,-1.7a2.2,2.2 0 0 1 1.4,-1.4c4.8,-0.8 9.6,-1.4 14.4,-0.8c0.2,0 0.3,0.1 1,0.6l0.1,-0.1zm-28.4,-152.8l-1.5,0.3a19,19 0 0 0 -10.1,5.1c-4.4,4.2 -4.7,10 -0.5,14.5c2.2,2.3 4.7,4.5 7,6.8a38.6,38.6 0 0 1 8.5,12.2c2.5,5.7 0.5,13.1 -4.8,16.3l-7.9,4.4a46,46 0 0 0 -6.9,4.2c-3.6,3 -4.9,7.2 -4.3,12c0.4,3.8 2.5,6.6 5.6,8.8c3.3,2.5 7,4 10.8,5.8s7.3,3.3 10.3,6.1a15.4,15.4 0 0 1 3.8,5.6a13.7,13.7 0 0 1 1,2.8c1.2,7.3 9.5,12.7 16.8,12.6l6.4,0.2l1.8,0.3l-0.8,0.8a21.7,21.7 0 0 1 -22.5,-4.3a15.8,15.8 0 0 1 -4.3,-6.5a12.3,12.3 0 0 1 -0.7,-2c-1,-5.3 -4.5,-8.3 -9,-10.3l-9,-4a30.9,30.9 0 0 1 -9.1,-6.3a17,17 0 0 1 2.3,-26.3c2.8,-2 6,-3.3 9,-5l3.9,-2c4.5,-2.7 5.7,-8.7 3.9,-12.8a35.8,35.8 0 0 0 -7.8,-10.7c-2,-2 -4.2,-3.8 -6,-6a18.8,18.8 0 0 1 -3.5,-5.3c-1.9,-5 -0.7,-9.5 3,-13.3a18.8,18.8 0 0 1 12,-5.3c1,-0.1 2.1,-0.3 2.6,1.3zm-27.9,57.6l-2.7,2.4a2,2 0 0 1 -3.1,-0.6a3.8,3.8 0 0 1 -0.4,-4.1a14.4,14.4 0 0 1 3,-3.2a2,2 0 0 1 2.7,0a2.7,2.7 0 0 1 1.3,2.8a24.7,24.7 0 0 1 -0.8,2.7zm-1,-43.8c-1,1.8 -2.8,2 -4,0.5a7,7 0 0 1 -1,-6.5c0.3,-1.3 1.8,-2.5 2.6,-2.2a4.8,4.8 0 0 1 2.4,2.2a9.6,9.6 0 0 1 0,6zm-15.7,16.5c1,-1.5 2.5,-1.9 3.8,-1a5,5 0 0 1 2.1,5.7a2.9,2.9 0 0 1 -3,2c-1.6,0 -2.5,-0.4 -3,-2a8.3,8.3 0 0 1 0.2,-4.7l-0.1,0zm41.3,79.7a3.3,3.3 0 0 1 -1.4,-4.8c0.9,-1.5 3,-2.1 4.2,-1.4a4.2,4.2 0 0 1 1.2,5.7c-0.9,1.5 -2,1.7 -4,0.5zm-43.9,-42.6c-1.2,2 -2.8,2.2 -4,0.8a4.2,4.2 0 0 1 0,-5.4c0.7,-0.8 1.5,-1.6 2.7,-1.3a3.3,3.3 0 0 1 2,2.8a23.5,23.5 0 0 1 -0.7,3l0,0.1zm8.2,18.4a2.3,2.3 0 0 1 4.2,0a7.5,7.5 0 0 1 0.7,3.8a2.3,2.3 0 0 1 -3.7,1.6a4.5,4.5 0 0 1 -1.2,-5.5l0,0.1z" class="cls-1"/>
     <path stroke="null" id="svg_1591" d="m23085.70567,4091.5811a2.5,2.5 0 0 1 -3.5,0.8a3.6,3.6 0 0 1 -1.2,-4.7c1,-1.5 2.3,-2 3.4,-1.3a4,4 0 0 1 1.3,5.1l0,0.1zm-0.9,65.5a11.3,11.3 0 0 1 1.2,1.3a3,3 0 0 1 -0.7,3.6c-1,0.5 -2,0 -2.7,-1.3a4,4 0 0 1 -0.5,-1.1c-0.2,-0.9 -0.4,-2 0.6,-2.4a5.4,5.4 0 0 1 2,-0.1l0.1,0zm-12.2,-70.5c-1,1.5 -1.8,1.9 -2.9,1.1s-1.3,-1.9 -0.5,-3.2s2.1,-2 3.2,-1.4s1.2,1.8 0.2,3.4l0,0.1zm-13.9,47a1.6,1.6 0 0 1 -2.9,0a3.6,3.6 0 0 1 0.6,-4.3a1.3,1.3 0 0 1 2,0.1a3.4,3.4 0 0 1 0.3,4.1l0,0.1zm17.6,11.3c1.3,1 1.9,2.8 1.2,3.8a2,2 0 0 1 -2.8,0.6a3.1,3.1 0 0 1 -0.7,-4.2a1.4,1.4 0 0 1 2.3,-0.2zm-29.9,-45.8c0.7,-0.3 1.4,-0.9 1.9,-0.7a3,3 0 0 1 1.4,1.7a5,5 0 0 1 -0.3,2.1c-0.1,0.9 -0.5,1.6 -1.5,1.6a1.8,1.8 0 0 1 -1.8,-1.7a15.8,15.8 0 0 1 0.3,-3zm31.2,0.8c-1,1.5 -2.7,2 -3.7,1.4a1.5,1.5 0 0 1 -0.6,-2c0.5,-1 2.6,-1.4 3.5,-0.8c0.8,0.4 1,1 0.8,1.4zm4.4,-41a2.4,2.4 0 0 1 -3,1.2a1.5,1.5 0 0 1 -0.9,-2.2a2,2 0 0 1 2.8,-0.4c0.6,0.3 0.8,1.1 1,1.4l0.1,0zm8.2,43.7c-0.4,0.8 -1,1.2 -2,0.7a2,2 0 0 1 -0.5,-2.8c0.6,-0.7 1.2,-1 2.1,-0.4a1.6,1.6 0 0 1 0.4,2.5zm-29,-24.1c-0.5,0.7 -1.3,0.6 -2,0.2c-1,-0.6 -1.5,-1.5 -1,-2.2a1.6,1.6 0 0 1 2.2,-0.6a1.9,1.9 0 0 1 0.8,2.6zm4.9,46.9a1.3,1.3 0 0 1 2.1,-0.5a1.7,1.7 0 0 1 0.5,2.4a1.3,1.3 0 0 1 -2,0.4a1.7,1.7 0 0 1 -0.5,-2.3l-0.1,0zm3.8,32.1c-1.2,-0.8 -1.5,-2 -1,-2.8a1.1,1.1 0 0 1 1.7,-0.4c0.9,0.6 1.4,1.8 0.8,2.5a4,4 0 0 1 -1.5,0.7zm-11.4,-51.7a1.4,1.4 0 0 1 0.5,2.1a1.3,1.3 0 0 1 -2,0.5a1.5,1.5 0 0 1 -0.4,-2.1a1.2,1.2 0 0 1 1.9,-0.5zm31.3,66.5a3.8,3.8 0 0 1 -1.5,0.2a1.7,1.7 0 0 1 -1,-2.2a1.1,1.1 0 0 1 1.6,-0.6a2,2 0 0 1 0.9,2.6zm14.3,4.1a12.2,12.2 0 0 1 -0.1,-2.5c0,-0.2 1,-0.4 1.4,-0.2c0.7,0.4 1.2,1.1 0.6,2c-0.2,0.3 -1,0.3 -2,0.7l0.1,0zm-43.9,168.7l-3.5,1.6a21.6,21.6 0 0 0 -8,6a14.4,14.4 0 0 0 0.2,19c3,3.3 6.3,6.4 9.2,9.8c5.3,6.2 8.7,13.1 9.2,21.3a35.1,35.1 0 0 1 -1.7,12.6a65.6,65.6 0 0 1 -6,13.5c-1,1.8 -1.8,2.2 -3,1.7c-1.3,-0.7 -1.6,-2 -0.8,-3.8a86.9,86.9 0 0 0 5.8,-13.3q4.7,-15 -4.7,-27.4c-2,-2.7 -4.5,-5.2 -6.7,-7.7l-5,-5.8c-5,-5.8 -4.7,-15.8 1.3,-22a24.2,24.2 0 0 1 10.6,-6.5c1,-0.3 2.2,-1 3.1,1zm-38.5,30.8c2,1.1 2.4,5.1 0.7,6.7a2,2 0 0 1 -2.9,-0.2a5.3,5.3 0 0 1 -0.4,-5.9a1.7,1.7 0 0 1 2.6,-0.6zm16.4,34.1c0.8,-1.3 2,-1.5 3.1,-0.4c1.5,1.4 1.6,3.2 1.3,5a2,2 0 0 1 -3.1,1.2a4.6,4.6 0 0 1 -1.4,-5.8l0.1,0zm-1.1,-49.7c-1,1.5 -2.3,2 -3.5,1.3a3.4,3.4 0 0 1 -1,-4.8c1,-1.4 2.3,-2 3.3,-1.5a3.8,3.8 0 0 1 1.2,5zm-8.9,59.6c-0.3,0.1 -1.2,0.9 -2,0.7a3,3 0 0 1 -1.7,-2a7.3,7.3 0 0 1 0.2,-3.6c0.5,-1.6 2,-1.7 3.2,-0.5a4.2,4.2 0 0 1 0.4,5.4l-0.1,0z" class="cls-1"/>
     <path stroke="null" id="svg_1592" d="m23055.70567,4411.6811l-1,1.2c-0.8,0.9 -1.6,1.5 -2.8,0.8a2.7,2.7 0 0 1 -1.3,-3.1a8.2,8.2 0 0 1 2.1,-2.6c0.8,-0.7 1.8,-0.3 2.8,0.7a2.2,2.2 0 0 1 0.2,3zm-9.3,-21.1a4.6,4.6 0 0 1 1.4,4.5a2.1,2.1 0 0 1 -3,1.2a3.6,3.6 0 0 1 -0.7,-5.7a1.6,1.6 0 0 1 2.3,0zm-25.5,7.1c1.5,1.1 1.6,3.9 0.3,5a1.6,1.6 0 0 1 -2.2,-0.3a3.4,3.4 0 0 1 0,-4.6a1.3,1.3 0 0 1 2,0l-0.1,-0.1zm8.4,-10.9a3,3 0 0 1 1.1,3.9a1.8,1.8 0 0 1 -2.5,0.4a2.9,2.9 0 0 1 -1,-3.6a1.8,1.8 0 0 1 2.4,-0.7zm5.5,13.4c-1.3,-0.9 -1.8,-2.3 -1.2,-3.2c0.5,-0.7 1.2,-1.2 2,-0.7c1.2,0.7 1.7,2.2 0.9,3.1a4.3,4.3 0 0 1 -1.7,0.8zm13.1,21.5a2.3,2.3 0 0 1 1,3.1a1.4,1.4 0 0 1 -2,0.5a2.3,2.3 0 0 1 -1,-2.9a1.4,1.4 0 0 1 2,-0.7zm-20.6,-56.5a3.7,3.7 0 0 1 -1.6,0.3a1.9,1.9 0 0 1 -1,-2.5a1.7,1.7 0 0 1 2,-1a2.5,2.5 0 0 1 0.6,3.2zm7.8,11a2.6,2.6 0 0 1 0.7,3.8l-0.2,0.1a4,4 0 0 1 -1.5,-0.4a2.4,2.4 0 0 1 -0.3,-3a3.5,3.5 0 0 1 1.3,-0.5zm21.3,24.8a4,4 0 0 1 -1.6,0.1a1.6,1.6 0 0 1 -1,-2.3a1.3,1.3 0 0 1 2,-0.4a1.8,1.8 0 0 1 0.6,2.6zm-37.7,10.6a10.6,10.6 0 0 1 0.3,2a1.5,1.5 0 0 1 -1.2,0.4a1.1,1.1 0 0 1 -0.6,-1.8c0.2,-0.3 0.7,-0.4 1.5,-0.7l0,0.1zm26.4,-29.4c-0.8,0 -1.3,0.2 -1.6,0a1,1 0 0 1 -0.5,-1.5a1.2,1.2 0 0 1 1.3,-0.1c0.3,0.3 0.4,0.8 0.8,1.6zm-123.8,-33.6l7.6,-9a48.3,48.3 0 0 0 4.4,-6.2a8.1,8.1 0 0 0 -0.3,-8.8l-4.1,-5.9a9,9 0 0 1 -1,-9.5a17.1,17.1 0 0 1 1.8,-3.5a64.7,64.7 0 0 1 4.8,-5.9a65.4,65.4 0 0 1 14.3,-11.5a6.5,6.5 0 0 1 2,-0.8a1.5,1.5 0 0 1 1.2,0.6a1.1,1.1 0 0 1 -0.2,1a11.4,11.4 0 0 1 -1.8,1.4a72.3,72.3 0 0 0 -13,10.4a33,33 0 0 0 -6.3,8.8c-1.4,3.2 -1.2,5.9 1.2,8.6a42.5,42.5 0 0 1 4,5.5a11.2,11.2 0 0 1 0.2,12.5a56.6,56.6 0 0 1 -5.8,7.6a43,43 0 0 0 -6.7,9.4a26.2,26.2 0 0 0 -1.8,14l0.5,4.4a1.7,1.7 0 0 1 -1,2c-1,0.3 -1.7,-0.3 -2.1,-1.2a5.4,5.4 0 0 1 -0.6,-1.6a43.9,43.9 0 0 1 -0.5,-12.5a28.8,28.8 0 0 1 3.2,-9.8zm-26.9,-2.6c1.1,-1.9 2.4,-2 3.7,-0.6c2,2 1.8,4.2 -0.4,5.4a2.5,2.5 0 0 1 -3.8,-2.3a12.1,12.1 0 0 1 0.5,-2.4l0,-0.1zm15.9,-32.8c2.2,1.5 2,5.1 0,6.2a2.5,2.5 0 0 1 -2.8,-0.7a3.3,3.3 0 0 1 1.1,-5.4a4.9,4.9 0 0 1 1.7,-0.1zm-0.7,34.4a2,2 0 0 1 -3.3,0.5a4.5,4.5 0 0 1 -1.2,-2a3.6,3.6 0 0 1 1.8,-3.8a1.6,1.6 0 0 1 2.2,0.5a4.2,4.2 0 0 1 0.5,4.8z" class="cls-1"/>
     <path stroke="null" id="svg_1593" d="m22925.60567,4333.2811c-0.8,1.3 -1.8,1.6 -2.9,0.9a3.6,3.6 0 0 1 -0.8,-4.5c0.7,-1.2 1.8,-1.6 2.8,-1a3.2,3.2 0 0 1 0.9,4.6zm-2.9,-11.1a2,2 0 0 1 -2.9,0.8a3.1,3.1 0 0 1 -1.1,-4a1.8,1.8 0 0 1 2.6,-0.8c1.8,1 2.3,2.5 1.4,4zm-28.1,12.2a2.6,2.6 0 0 1 -0.8,-3.5a1.7,1.7 0 0 1 2.6,-0.6a2.5,2.5 0 0 1 1,3.4a1.9,1.9 0 0 1 -2.8,0.6l0,0.1zm15,27.1a1.9,1.9 0 0 1 -2.7,0.7c-1,-0.6 -1.1,-2.2 -0.4,-3.5c0.6,-1 1.6,-1.4 2.4,-0.9a2.6,2.6 0 0 1 0.7,3.7zm12.9,-54c-0.6,1 -1.4,1.3 -2.2,0.7a2,2 0 0 1 -0.6,-2.6c0.7,-1 1.9,-1.5 2.6,-1s1,1.7 0.3,2.9l-0.1,0zm-12.5,24.9a3.5,3.5 0 0 1 -1.6,0.2a2,2 0 0 1 -0.9,-2.5c0.4,-0.6 1,-1.1 1.8,-0.8c1,0.5 1.4,1.7 0.7,3l0,0.1zm-20.5,8.7a1.3,1.3 0 0 1 -2,0.2a1.8,1.8 0 0 1 -0.6,-2.4a1.4,1.4 0 0 1 2,-0.4a1.8,1.8 0 0 1 0.6,2.6zm14.6,-17a7.2,7.2 0 0 1 -2.1,0.2a1.5,1.5 0 0 1 -0.8,-2c0.5,-0.7 1.3,-1 1.9,-0.3a9,9 0 0 1 1,2l0,0.1zm14.9,18.2c-0.3,0 -1,0.2 -1.3,0a1.3,1.3 0 0 1 -0.5,-2a1.5,1.5 0 0 1 1.4,-0.2c0.8,0.3 1.2,1 0.4,2.2zm267.8,-39.1a14.6,14.6 0 0 1 1.7,-1.5a48.3,48.3 0 0 1 22,-7.3a12.6,12.6 0 0 1 2.9,0a5,5 0 0 1 2,1a1.5,1.5 0 0 1 0.5,1.2c-0.2,0.4 -0.7,0.8 -1.2,1a1.3,1.3 0 0 1 -0.7,0.1c-6.8,-0.1 -13,2 -19.4,4.1c-1.8,0.7 -3.7,1.3 -5.6,1.8a10,10 0 0 1 -2,0.2l-0.2,-0.6zm-344.8,145.4c1.4,1.3 1.7,2 0.7,4a50,50 0 0 1 -3.6,5.8a17.3,17.3 0 0 1 -2.7,2.8c-4.5,4 -11.9,4.3 -14.5,-4.7a13.8,13.8 0 0 1 1,-9.8a17.2,17.2 0 0 1 7.7,-8.1c4.5,-2.4 8.4,-1.7 11.4,2.1a6.4,6.4 0 0 1 1.3,5.8c-0.1,0.4 -0.7,0.7 -1.1,1a4.8,4.8 0 0 1 -0.9,-1a13,13 0 0 1 -0.4,-1.6c-1,-3.4 -3.6,-4.8 -7,-3.7s-5.5,3.4 -7.2,6.4a11.9,11.9 0 0 0 -1.4,8.3c0.8,4 3.9,5.5 7.5,3.5c2.2,-1.2 3.6,-3.2 5,-5.1l2.6,-3.8l1.6,-1.9zm249.1,100.5c3.4,-5.3 9.1,-5.3 13.9,-0.6a1.7,1.7 0 0 1 0.3,2.4c-0.7,1 -1.6,0.7 -2.4,0.2l-2.6,-1.4a4.5,4.5 0 0 0 -6,2a8.7,8.7 0 0 0 -0.2,7.9a15.5,15.5 0 0 0 5.3,6.7a6.5,6.5 0 0 0 1.7,0.8c3,1.1 5.6,-0.5 5.6,-3.7a33,33 0 0 0 -1,-6c0,-0.8 -0.5,-1.5 -0.7,-2.3a1.4,1.4 0 0 1 0.5,-1.3a1.4,1.4 0 0 1 1.3,0.2a6,6 0 0 1 1.7,2.3a42.2,42.2 0 0 1 1.4,7a7.1,7.1 0 0 1 -3.7,7.2c-2.6,1.5 -5.4,0.9 -7.7,-0.6a19.3,19.3 0 0 1 -9,-13.2a10.6,10.6 0 0 1 1.5,-7.6l0.1,0zm-177.9,-349.1l1,-1.7c0.3,-0.6 1,-1.2 1.8,-0.7a1.6,1.6 0 0 1 0.8,2c-0.2,0.8 -0.6,1.4 -0.8,2c-1,2.4 -1.8,4.8 -2.8,7c-0.4,1 -0.7,2.2 -2.1,2c-1,-0.2 -1.6,-1.5 -1,-3c0.8,-2.6 2,-5.2 3,-7.7l0.1,0.1zm59.9,8.8l4,-0.1c0.8,0 2,1.5 2,1.5c-1.3,1.4 -3,1.4 -4.7,1.4c-3,0 -12.5,1.1 -15.4,-0.4a2,2 0 0 1 2.1,-1.9l12,-0.5m-0.8,-7.9l4,-0.1a1.8,1.8 0 0 1 2,1.5c-1.2,1.4 -3,1.5 -4.6,1.4c-3,0 -17.4,1.2 -17.4,-0.5c0,-2 7.4,-1.7 8.3,-1.8l7.7,-0.5m73,268.4a17.7,17.7 0 0 1 -2.6,1.8a31.8,31.8 0 0 1 -4.7,1.6c-3.5,1 -7.1,1.8 -10.7,2.6l-2,0.4c-1.6,0.2 -2.3,0 -2.5,-1s0.4,-1.6 2,-2l16.2,-4a4.3,4.3 0 0 1 4.3,0.6zm9,7.9a17.3,17.3 0 0 1 -2.6,1.7c-1.5,0.7 -8,3.3 -9.6,3.7c-3.6,1 -7.2,1.7 -10.7,2.6l-2,0.3c-1.6,0.3 -2.4,0 -2.6,-1s0.4,-1.6 2,-2c5.4,-1.4 15.8,-4.7 21.2,-6a4.4,4.4 0 0 1 4.3,0.7zm-13.8,-16.4l-2.7,1.5c-4.4,2 -9.3,2.8 -14,3.9a1.7,1.7 0 0 1 -2.2,-1.3a1.8,1.8 0 0 1 1.1,-2.2a5.9,5.9 0 0 1 1.6,-0.6l13.9,-2.1a10.8,10.8 0 0 1 2,0l0.3,0.8zm93.6,-125.4c-0.3,-0.7 -0.7,-1.3 -0.6,-1.8s0.7,-0.8 1,-1.1c0.3,-0.2 0.6,-0.1 0.8,-0.2l14.6,-3.2a5,5 0 0 1 2,-0.3a2.8,2.8 0 0 1 1.6,1.2c0.1,0.3 -0.5,1.1 -1,1.5a3.4,3.4 0 0 1 -1.2,0.7a69.2,69.2 0 0 1 -14.4,3.3a17.5,17.5 0 0 1 -2.8,-0.1zm7.4,20.8a1.9,1.9 0 0 0 -1,-1a2.7,2.7 0 0 0 -1.3,0.3l-16.3,4.2a5.1,5.1 0 0 0 -0.8,0.5c-0.5,0.5 -0.8,1.2 -0.4,1.7a1.8,1.8 0 0 0 1.2,0.6a1.7,1.7 0 0 0 0.4,0l15.5,-4a8.2,8.2 0 0 0 2.3,-1.2a1.2,1.2 0 0 0 0.4,-1.1zm-200.1,-274.5a21.1,21.1 0 0 1 -2,1l-14.6,4.9c-1,0.3 -1.8,0.3 -2.3,-0.7s0.1,-1.8 1,-2.2a23.6,23.6 0 0 1 5,-2c3.5,-0.8 7,-1.3 10.6,-1.8a8.6,8.6 0 0 1 2.1,0.2l0.2,0.6zm254.4,112.7a22.3,22.3 0 0 1 -2.7,0.3l-10.8,0c-1.7,0 -2.6,-0.5 -2.6,-1.5s0.6,-1.6 2.5,-1.7c3.5,-0.3 7.1,-0.7 10.6,0.4a23.6,23.6 0 0 1 3.2,1.6l-0.2,0.9zm-31.3,-34c-7.2,-6.8 -6.8,-17.3 -2.3,-25.5c2,-3.8 4.8,-8.4 8.8,-10.5c5.3,-2.8 9.6,2.1 9.8,7.3c0,2.5 4,2.5 3.8,0c-0.4,-4 -3.1,-9.5 -7,-11c-5.8,-2 -11.4,3 -14.5,7.1c-7.2,9.7 -14,27.2 -0.4,35a1.5,1.5 0 0 0 1.8,-2.4zm87.8,-133a8.5,8.5 0 0 1 -1.9,6a8,8 0 0 1 -2.5,2a4.7,4.7 0 0 1 -1.7,0.5l-1.7,0a9,9 0 0 1 -6.1,-2.3a3,3 0 0 1 -1,-1.4a4.7,4.7 0 0 0 -0.3,-0.8l-0.2,-0.8a8.8,8.8 0 0 1 -0.3,-1.6l0,-1.4a8.7,8.7 0 0 1 2.2,-5.8a10.5,10.5 0 0 1 2.5,-2a7.8,7.8 0 0 1 3.2,-1.1a7,7 0 0 1 6.1,2.7a9,9 0 0 1 1.7,6.1l0,-0.1zm-2.6,0a4,4 0 0 0 -2.2,-3a10.3,10.3 0 0 0 -3,-1a5.2,5.2 0 0 0 -1.7,0a3.4,3.4 0 0 0 -1.7,0.7a4.4,4.4 0 0 0 -1.6,3.4a2.5,2.5 0 0 0 0.3,1a5.5,5.5 0 0 0 0.5,0.8a2.4,2.4 0 0 0 0.6,0.6l0.4,0.3l0.3,0.3a4,4 0 0 0 3,1.5a1.6,1.6 0 0 0 0.4,-0.1l0.4,-0.2a3.3,3.3 0 0 1 0.8,-0.3a4.8,4.8 0 0 0 1.6,-0.7a4.5,4.5 0 0 0 1.8,-3.2l0.1,-0.1z" class="cls-1"/>
     <path stroke="null" id="svg_1594" d="m23175.50567,4182.9811c2.9,-6.2 5.6,-12.4 8.3,-18.6c1.4,-3.1 2.6,-6.3 3.9,-9.5c0.6,-1.5 1.3,-3.1 2.1,-4.6l2.3,-4.6q8.4,-18.6 16.2,-37.4q2,-4.7 4.2,-9.3a617.8,617.8 0 0 0 12.2,-28l7.9,-18.9l4,-9.4l4,-9.3l3,1.2c-1,3.2 -2.4,6.4 -3.6,9.6l-3.9,9.4c-2.5,6.3 -5,12.6 -7.7,18.9s-5.4,12.5 -8,18.8l-3.6,9.6c-1.2,3.2 -2.5,6.3 -3.9,9.4l-16.5,37.4c-1.4,3 -2.4,6.4 -4,9.4s-3,6 -4.4,9.2l-8.6,18.5l-3.9,-1.8z" class="cls-1"/>
    </g>
   </g>
  </g>
 </g>
</svg>