<?xml version="1.0" encoding="UTF-8"?> <svg xmlns="http://www.w3.org/2000/svg" width="632" height="170"><title>Logo/GotPhoto</title><g fill="none" fill-rule="evenodd"><path d="M160.432 98.424h21.918c-1.032 8.622-3.863 14.873-8.502 18.757-4.635 3.886-10.606 5.828-17.912 5.828-4.496 0-8.198-.7-11.1-2.105-2.906-1.404-5.198-3.53-6.887-6.39-1.686-2.856-2.858-6.51-3.512-10.964-.657-4.446-.984-9.765-.984-15.944 0-7.211.422-13.159 1.266-17.845.842-4.683 2.27-8.382 4.285-11.1 2.013-2.715 4.66-4.612 7.94-5.691 3.277-1.074 7.306-1.615 12.081-1.615 2.998 0 5.808.19 8.43.565 2.623.372 4.895 1.076 6.816 2.103 1.918 1.034 3.443 2.438 4.567 4.216 1.124 1.781 1.686 4.124 1.686 7.026h13.628c0-5.15-.913-9.414-2.74-12.786-1.828-3.372-4.334-6.018-7.516-7.936-3.185-1.921-6.934-3.256-11.24-4.006-4.309-.749-8.903-1.126-13.77-1.126-6.745 0-12.6.773-17.562 2.319-4.969 1.546-9.064 4.145-12.296 7.8-3.23 3.651-5.62 8.524-7.166 14.611-1.546 6.09-2.317 13.678-2.317 22.76 0 7.03.512 13.47 1.544 19.32 1.029 5.854 2.857 10.915 5.48 15.176 2.623 4.261 6.158 7.586 10.61 9.976 4.448 2.388 10.137 3.583 17.07 3.583 6.65 0 12.386-1.264 17.212-3.794 4.823-2.53 8.546-6.839 11.171-12.929l1.966 15.317h11.662V87.463h-35.828v10.96z" fill="#1B2251"></path><path d="M380.245 47.492c2.67 2.388 4.636 5.528 5.9 9.412 1.267 3.89 1.897 8.644 1.897 14.261 0 5.902-.63 10.87-1.897 14.894-1.264 4.032-3.23 7.31-5.9 9.834-2.67 2.53-6.042 4.335-10.116 5.412-4.073 1.076-8.876 1.617-14.4 1.617H333.67v30.628h-13.913V40.817h35.97c5.525 0 10.328.517 14.401 1.546 4.074 1.032 7.446 2.742 10.116 5.13zM373.08 80.58c.705-2.527 1.056-5.667 1.056-9.414 0-6.834-1.502-11.612-4.496-14.33-3-2.717-7.916-4.073-14.755-4.073h-21.213v38.216h21.213c3.464 0 6.414-.325 8.852-.984 2.436-.655 4.425-1.758 5.971-3.304 1.546-1.543 2.67-3.58 3.372-6.11z" fill="#4FACFE"></path><path d="M258.782 74.82c2.435 2.622 4.237 6.09 5.409 10.398 1.171 4.306 1.757 9.649 1.757 16.013 0 6.375-.586 11.715-1.757 16.024-1.172 4.308-2.974 7.77-5.41 10.393-2.434 2.622-5.55 4.498-9.342 5.622-3.794 1.124-8.27 1.686-13.42 1.686-5.153 0-9.601-.562-13.348-1.686-3.746-1.124-6.862-3-9.343-5.622-2.483-2.623-4.308-6.085-5.48-10.393-1.171-4.31-1.754-9.65-1.754-16.024 0-6.364.583-11.707 1.754-16.013 1.172-4.309 2.997-7.776 5.48-10.399 2.48-2.622 5.597-4.496 9.343-5.62 3.747-1.124 8.195-1.686 13.348-1.686 5.15 0 9.626.562 13.42 1.686 3.791 1.124 6.908 2.998 9.343 5.62zm-7.588 37.089c.562-2.9.844-6.462.844-10.678 0-4.214-.282-7.77-.844-10.675-.56-2.903-1.475-5.243-2.74-7.024-1.263-1.781-2.928-3.042-4.986-3.797-2.063-.747-4.546-1.121-7.449-1.121-2.905 0-5.387.374-7.445 1.121-2.064.755-3.723 2.016-4.987 3.797-1.267 1.78-2.18 4.121-2.742 7.024-.562 2.904-.841 6.461-.841 10.675 0 4.216.28 7.778.841 10.678.562 2.908 1.475 5.253 2.742 7.029a10.273 10.273 0 0 0 4.987 3.794c2.058.752 4.54 1.124 7.445 1.124 2.903 0 5.386-.372 7.449-1.124a10.297 10.297 0 0 0 4.987-3.794c1.264-1.776 2.18-4.121 2.739-7.03z" fill="#1B2251"></path><path d="M629.354 85.218c1.172 4.306 1.758 9.649 1.758 16.013 0 6.375-.586 11.715-1.758 16.024-1.171 4.308-2.976 7.77-5.408 10.393-2.436 2.622-5.55 4.498-9.346 5.622-3.792 1.124-8.264 1.686-13.417 1.686-5.153 0-9.601-.562-13.348-1.686-3.747-1.124-6.863-3-9.343-5.622-2.485-2.623-4.309-6.085-5.48-10.393-1.174-4.31-1.755-9.65-1.755-16.024 0-6.364.58-11.707 1.755-16.013 1.171-4.309 2.995-7.776 5.48-10.399 2.48-2.622 5.596-4.496 9.343-5.62 3.747-1.124 8.195-1.686 13.348-1.686 5.153 0 9.625.562 13.417 1.686 3.797 1.124 6.91 2.998 9.346 5.62 2.432 2.623 4.237 6.09 5.408 10.399zm-12.997 26.69c.562-2.899.845-6.46.845-10.677 0-4.214-.283-7.77-.845-10.675-.562-2.903-1.475-5.243-2.739-7.024-1.263-1.781-2.928-3.042-4.986-3.797-2.064-.747-4.546-1.121-7.449-1.121-2.902 0-5.388.374-7.446 1.121-2.063.755-3.723 2.016-4.99 3.797-1.263 1.78-2.176 4.121-2.74 7.024-.56 2.904-.842 6.461-.842 10.675 0 4.216.282 7.778.842 10.678.564 2.908 1.477 5.253 2.74 7.029 1.267 1.778 2.927 3.047 4.99 3.794 2.058.752 4.544 1.124 7.446 1.124 2.903 0 5.385-.372 7.449-1.124a10.297 10.297 0 0 0 4.986-3.794c1.264-1.776 2.177-4.121 2.74-7.03zM429.35 67.513c-5.057 0-9.155.842-12.295 2.53-3.137 1.684-5.504 4.776-7.092 9.272h-.285c.19-1.873.353-3.815.493-5.83.143-2.014.211-4.003.211-5.972V35.2c-2.343.372-4.662.699-6.955.981-2.295.28-4.614.562-6.955.842v96.527h13.91v-32.878c0-8.148 1.312-13.858 3.934-17.14 2.62-3.277 6.837-4.918 12.647-4.918 4.4 0 7.654 1.195 9.762 3.583 2.108 2.388 3.164 6.862 3.164 13.42v37.933h13.91V95.616c0-10.21-2.016-17.446-6.042-21.71-4.03-4.26-10.166-6.393-18.406-6.393z" fill="#4FACFE"></path><path d="M290.956 52.057A470.82 470.82 0 0 1 284 53.674a316.825 316.825 0 0 1-6.955 1.475v13.77h-8.57v11.098h8.57v28.246c0 4.775.68 8.78 2.036 12.01 1.36 3.232 3.325 5.828 5.903 7.797 2.575 1.968 5.736 3.372 9.483 4.216 3.746.84 8.01 1.264 12.786 1.264v-11.103c-5.058 0-8.71-.673-10.958-2.034-2.248-1.356-3.702-3.813-4.356-7.375a13.53 13.53 0 0 1-.702-2.108c-.19-.752-.282-1.638-.282-2.667V80.017h19.25V68.92h-19.25V52.057z" fill="#1B2251"></path><path d="M516.603 74.82c2.436 2.622 4.235 6.09 5.41 10.398 1.168 4.306 1.756 9.649 1.756 16.013 0 6.375-.588 11.715-1.757 16.024-1.174 4.308-2.973 7.77-5.409 10.393-2.438 2.622-5.551 4.498-9.343 5.622-3.796 1.124-8.269 1.686-13.42 1.686-5.152 0-9.603-.562-13.347-1.686-3.75-1.124-6.863-3-9.343-5.622-2.483-2.623-4.312-6.085-5.48-10.393-1.172-4.31-1.758-9.65-1.758-16.024 0-6.364.586-11.707 1.758-16.013 1.168-4.309 2.997-7.776 5.48-10.399 2.48-2.622 5.593-4.496 9.343-5.62 3.744-1.124 8.195-1.686 13.348-1.686 5.15 0 9.623.562 13.42 1.686 3.79 1.124 6.904 2.998 9.342 5.62zm-7.588 37.089c.562-2.9.842-6.462.842-10.678 0-4.214-.28-7.77-.842-10.675-.562-2.903-1.475-5.243-2.739-7.024-1.266-1.781-2.931-3.042-4.99-3.797-2.06-.747-4.545-1.121-7.445-1.121-2.905 0-5.388.374-7.446 1.121-2.063.755-3.726 2.016-4.99 3.797-1.266 1.78-2.176 4.121-2.738 7.024-.562 2.904-.844 6.461-.844 10.675 0 4.216.282 7.778.844 10.678.562 2.908 1.472 5.253 2.739 7.029a10.28 10.28 0 0 0 4.99 3.794c2.057.752 4.54 1.124 7.445 1.124 2.9 0 5.385-.372 7.446-1.124a10.316 10.316 0 0 0 4.99-3.794c1.263-1.776 2.176-4.121 2.738-7.03zM548.777 52.057a486.943 486.943 0 0 1-6.955 1.617 320.119 320.119 0 0 1-6.955 1.475v13.77h-8.57v11.098h8.57v28.246c0 4.775.678 8.78 2.037 12.01 1.359 3.232 3.324 5.828 5.9 7.797 2.577 1.968 5.738 3.372 9.485 4.216 3.744.84 8.008 1.264 12.786 1.264v-11.103c-5.058 0-8.712-.673-10.957-2.034-2.251-1.356-3.705-3.813-4.36-7.375a13.81 13.81 0 0 1-.698-2.108c-.19-.752-.283-1.638-.283-2.667V80.017h19.248V68.92h-19.248V52.057z" fill="#4FACFE"></path><path d="M26.359 37.793c42.88 5.876 58.614 38.27 47.028 60.974-.614 1.377-.554 1.799.903.825C84.838 91.537 97.65 71.71 92.6 40.355c-.3-1.409-8.139-6.548-66.02-4.031-2.712.11-2.485 1.364-.221 1.47z" fill="#4FACFE" fill-rule="nonzero"></path><path d="M75.102 133.051c-42.886-5.886-58.62-38.282-47.031-60.976.617-1.38.557-1.804-.9-.833-10.548 8.066-23.366 27.889-18.316 59.24.306 1.411 8.148 6.548 66.026 4.036 2.707-.116 2.488-1.366.221-1.467z" fill="#1B2251"></path><path d="M63.828 63.015c1.372.612 1.802.557.831-.903C56.588 51.553 36.768 38.746 5.414 43.8c-1.411.303-6.543 8.14-4.026 66.02.108 2.715 1.364 2.486 1.462.222 5.883-42.884 38.282-58.62 60.978-47.026z" fill="#1B2251"></path><path d="M98.305 60.355c-5.878 42.881-38.271 58.617-60.973 47.032-1.38-.615-1.802-.555-.828.9 8.068 10.553 27.883 23.366 59.237 18.318 1.411-.303 6.546-8.14 4.031-66.026-.11-2.71-1.364-2.485-1.467-.224z" fill="#C7DCEE" fill-rule="nonzero"></path></g></svg> 