<svg xmlns="http://www.w3.org/2000/svg" viewBox="0 0 485.4 364.7"><defs/><g id="Ebene_2" data-name="Ebene 2"><g id="Hintergrund_Ebene_58_Ebene_59_Ebene_60_Kurven_1_Bild" data-name="Hintergrund + Ebene 58 + Ebene 59 + Ebene 60 + Kurven 1 Bild"><g id="Nk6duM.tif"><path d="M284.2 21.8c2.8-2.4 5.4-4.8 8.2-7 4.5-3.7 9.1-7.2 14.6-9 6.6-2.2 13.2-4.5 20.4-5C336.2.2 345-.4 353.8.3a71 71 0 0 1 21.8 5 53.5 53.5 0 0 1 21.2 16.5 65.5 65.5 0 0 1 11.8 26l5.4 22a45.4 45.4 0 0 0 1.7 4.5l7.5-4.5a39.2 39.2 0 0 1 12.5-5.6c1-.2 1.8-.7 2.7-1a2.3 2.3 0 0 1 1.5 0c1.5.8 1.7 1.3.7 2.7a65.7 65.7 0 0 1-5.7 7.4 31.2 31.2 0 0 1-5.8 4.3l-8.2 4.9c-.9.5-1.1.9-.6 1.8a124.7 124.7 0 0 1 9.2 18.5A131.7 131.7 0 0 1 436 125c1.5 7.3 2.8 14.5 2.9 22 0 10.6-.5 21.2-2.8 31.7a122.8 122.8 0 0 1-19.1 43.5l-.8 1 4.2 2a65.1 65.1 0 0 1 27.8 25.3 151.2 151.2 0 0 1 15.5 36.7 192 192 0 0 1 5.9 28.3l3 27a9 9 0 0 1-.6 3.5c-.1.5-.9 1.3-1.2 1.2a2.6 2.6 0 0 1-1.8-1.1 13.1 13.1 0 0 1-1-3.8c-.6-6.4-1.2-12.9-2-19.3-.7-5-1.4-10.2-2.5-15.2-1.5-7.2-3-14.4-5-21.4-3.9-13.6-9.2-26.6-17.3-38.3a50.4 50.4 0 0 0-15.3-14.8 85.9 85.9 0 0 0-13.6-7c-6.6-2.6-13.5-4.4-20.2-6.5l-7-2-.7-.1-.5 5.8c-.8 9.6-1.8 19-3.4 28.5a198.6 198.6 0 0 1-5.8 23.9 2085 2085 0 0 1-10.7 34 230.8 230.8 0 0 1-11.8 29.3l-6.3 13a22 22 0 0 1-2.4 3.6 8.9 8.9 0 0 1-2 1.4 2.3 2.3 0 0 1-.8-2.9c.9-2.5 1.7-5 2.7-7.4 3.5-7.9 7.3-15.6 10.5-23.6 3.2-8.2 6-16.6 8.8-24.9 1.8-5.3 3.6-10.7 5.2-16 2.4-8.3 4.5-16.6 6.8-25l.8-3.9-6.9 2.3a166.8 166.8 0 0 1-19.5 5.5 72 72 0 0 1-20.8.8l-8-.8a78.3 78.3 0 0 1-26.8-7.3c-3.1-1.5-6.1-3.3-9.2-5l.3 6 1.6 16c1.4 11.2 3 22.3 5.3 33.2l5.7 27c.6 3.5 1 7 1.4 10.4.2 1.4-.4 2.8-1.3 3a3 3 0 0 1-3.2-2c-.5-2-.7-4-1-6-1-5.7-2.1-11.4-3.3-17-1.9-9.7-4-19.3-5.7-29a398.2 398.2 0 0 1-4.6-46.7c-.2-7 0-13.8.3-20.7.3-4.6 1.1-9.2 1.7-13.8a8.6 8.6 0 0 0 0-1c-1.3.3-2.5.5-3.7.9a827 827 0 0 0-13.8 4.4 33.2 33.2 0 0 0-3.1 1.6c-.8.4-1.7.5-2.4.9-3.7 1.9-7.5 3.7-11 5.8a126.6 126.6 0 0 0-11.1 7.6 114.4 114.4 0 0 0-16 14.7A132.9 132.9 0 0 0 208 260a110.8 110.8 0 0 0-10.7 21.9c-5.4 14.1-8.8 28.9-12.6 43.5-1.4 5.2-2.5 10.6-3.8 15.8l-2 7c-.1.9-.5 1.5-1.6 1.3s-1.5-.9-1.3-2c1.1-7.3 2-14.5 3.5-21.6 1.5-6.7 3.4-13.4 5.2-20l.2-1.2h-1.3l-112.4-.5-67-.4a4.5 4.5 0 0 1-1.5-.1c-2.5-1-2.7-1.1-2.7-3.7v-46-33.2l.1-32v-32.3l.2-21.2v-25.8-17.2-11.5c0-8 .3-16.1.3-24.2l.2-25L1 25a1.4 1.4 0 0 1 1.4-1.5h.2c1-2 3-1.4 4.6-1.4 7-.3 14-.5 21-.5l47.8.2h73.4c12.6 0 25.1.7 37.7.7 28.8-.1 57.6-.5 86.5-.7h10.6zM3.9 25.5c.7 88.5.6 177.3.8 265.9l125.8-.5-.4-1.3c-1.4-4.3 1-8.6 5.3-9.3a45.8 45.8 0 0 1 7.3-.4h26.8c2.5 0 6.1 2 6.4 5.3v5.8h12.4c.3 0 .7-.5.8-.9l3.7-10.4a108 108 0 0 1 14.7-27.8 128.2 128.2 0 0 1 21.4-22.8 131 131 0 0 1 17.6-12.4l6-3.4-1-1.3c-2-2.6-4-5.1-5.8-7.9a81.8 81.8 0 0 1-8-17.6 119.3 119.3 0 0 1-5.2-21.9 95.1 95.1 0 0 1-.5-21.7 72 72 0 0 1 3-16.4c1.6-5 3.8-10 5.7-15a106.7 106.7 0 0 1 10.5-20.7 47 47 0 0 0 6.2-15c2.3-9.9 4.6-19.7 9.2-28.8a100.5 100.5 0 0 1 10.2-16.9l3.4-4.2h-.8c-12.6-.3-25.1-.6-37.7-.6-12 0-23.9.3-35.8.5a88 88 0 0 1-9.5 0 157.5 157.5 0 0 0-18.3-.7l-56.6.6H74.8c-8.3 0-16.6-.2-24.8-.1-9.2 0-18.3.4-27.4.4-6.2 0-12.4-.3-18.8-.5zm362 186l-2.6-2.3c-2-2.2-2.4-5-2.5-7.8-.1-6.1 0-12.2.1-18.3a3 3 0 0 1 1.6-2.8l1.3-.5c6.2-4 11.9-8.6 16.2-14.6a88.2 88.2 0 0 0 6.6-10 68.6 68.6 0 0 0 6.2-16.5 7.4 7.4 0 0 1 4.8-5.5 19 19 0 0 0 10.2-8.7 28 28 0 0 0 4-15.8 19 19 0 0 0-3.5-10.3c-1.2-1.7-2.8-2.7-5-2.3a55 55 0 0 0-4.2 1c-1.1.3-2.2.6-2.7-.9a1.8 1.8 0 0 0-.7-.7c-3.3-2.2-6.5-4.5-9.8-6.6-6-3.7-12-7.1-17.3-11.8a3.9 3.9 0 0 0-1.6-.8 21.6 21.6 0 0 0-12.8.8c-1.1.4-2.6 0-2.8-.8-.3-1 .4-1.8 1.3-2.3h.1c1.7-.6 3.4-1.3 5.2-1.8l4.2-1a99 99 0 0 1-20-36l-.3.6a42.4 42.4 0 0 1-9.1 13.9c-5.6 5.8-12 10.7-18.2 15.8l-9 6.9h.9c2.6 0 5.2 0 7.8.3a27 27 0 0 1 5.9 1.7c1.1.4 1.2 1.3.7 2.4-.7 1.4-1.7 1-2.7.8a37.5 37.5 0 0 0-12.8-1c-3.6.3-7.3.6-10.2 3.4a14.4 14.4 0 0 1-1.5 1.3c-5.6 4.3-11.2 8.6-16 13.8-1 1.1-2.2 2.5-2.4 3.8a86.6 86.6 0 0 0 2.3 33.4 89.3 89.3 0 0 0 10.1 23.3 68 68 0 0 0 19.3 20.6 45.4 45.4 0 0 0 22.4 7.5c2 .2 4.2.2 6 1.3 1.1.7 1.4 1.6.4 2.3a5 5 0 0 1-2.7.9 52.5 52.5 0 0 1-27.8-8.6l-1.8-1.3v4.2c-.4 4.5-.6 9-1.3 13.5-.6 4-2.4 7.4-7 8.3a8 8 0 0 0-1.5.8 2 2 0 0 0 .2.4 46 46 0 0 0 22.3 21.7 1.9 1.9 0 0 0 1.5-.5l2.6-2.3a12 12 0 0 1 17 3.4 1 1 0 0 0 1.3.5 57.6 57.6 0 0 0 27.2-16.9zm-21.7-186a8.7 8.7 0 0 1 .4 1.5l.1 3.3a46.7 46.7 0 0 0 4.3 13c2.4 4.8 5 9.5 7.8 14A69.3 69.3 0 0 0 371 73.9c6.5 5.6 14 9.5 21.1 14.1a2 2 0 0 0 1.6.2c2-1.1 4.1-2.2 6-3.5 3.8-2.3 7.5-4.8 11.3-7.3a1.2 1.2 0 0 0 .5-1.7 51.7 51.7 0 0 1-2.4-6.5l-5.3-21.9c-2-7.9-4.7-15.5-9.7-22A46.3 46.3 0 0 0 369 7 86 86 0 0 0 345.8 4c-8.7 0-17.5-.2-26 2-5.6 1.4-11 2.8-16 5.8a91.8 91.8 0 0 0-21.6 18.7 88 88 0 0 0-11.9 19c-4 8-6.1 16.7-8 25.4a58.3 58.3 0 0 1-8 19.5 111.1 111.1 0 0 0-10 19.7 94.3 94.3 0 0 0-7.2 25.6 105.9 105.9 0 0 0 0 23.3 114.9 114.9 0 0 0 3.5 16.8 85.6 85.6 0 0 0 9.8 23.4c1.8 2.9 4 5.5 6.2 8.3 2.4-1.2 4.6-2.4 7-3.3a45 45 0 0 1 4.6-1.3l11.2-3.2 13.4-3.4c2.8-.8 5-2.2 5.2-5.4l1.8-18.2a2.2 2.2 0 0 0-1-2.2 68.7 68.7 0 0 1-20.1-27.8c-1.9-4.8-3-10-4.7-14.9-2.2-6.5-2.7-13.4-3.3-20.2-.3-2.2 0-4.4 0-6.6h-.5l-1.4 2.6c-1 2.3-1.9 4.7-3 7-.1.4-.9.9-1.2.8a1.2 1.2 0 0 1-1-1.4l.5-2.4a39 39 0 0 1 6.5-14.8 70.8 70.8 0 0 1 14.7-14.4c7.9-6 16-11.6 23.7-17.6 6.7-5 13.1-10.3 19.5-15.7a42.3 42.3 0 0 0 13.3-20c.4-1.2.1-3.1 2.3-3.7zm53.1 112.3c0 .7-.2 1.4-.3 2a70.9 70.9 0 0 1-9.4 22 75.4 75.4 0 0 1-9.8 12.3 67.8 67.8 0 0 1-11.7 8.9 2 2 0 0 0-1 1.7 55.7 55.7 0 0 0-.1 13l1 7.4a2.1 2.1 0 0 0 1 1.4l10.4 4.4a1.4 1.4 0 0 0 1.7-.4c2.2-2.4 4.7-4.7 6.5-7.3 4.2-6 8.2-11.9 12-18 2.1-3.8 3.5-8 5.3-12a19.3 19.3 0 0 1 1.3-2c.4.8 1 1.4.8 1.8a38.4 38.4 0 0 1-1.7 6.2c-1.6 3.9-3.3 7.7-5.2 11.5a102.9 102.9 0 0 1-12.1 19.2l-2.5 3c1.5.5 3 1 4.3 1.2a1.8 1.8 0 0 0 1.5-.4c2.4-2.8 5-5.6 7.2-8.6 2.8-3.8 5.4-7.9 8-11.9.4-.5.7-1.2 1.7-.8a1.3 1.3 0 0 1 .7 1.9 64.3 64.3 0 0 1-7.9 14.2l-5.3 7.3 5.5 1.5a1.1 1.1 0 0 0 .8-.3 16.5 16.5 0 0 0 1.6-1.7 71.9 71.9 0 0 0 8-11.8c4.1-7.7 8.3-15.3 10.6-23.8a9.2 9.2 0 0 1 .7-1.5 1.6 1.6 0 0 1 1.3 2.3c-1 3.8-1.8 7.7-3 11.4-1.2 3.4-2.6 6.6-4 9.8a65.4 65.4 0 0 1-8.4 15l-2 2.4 7.1 2.5c2.4-3.8 4.7-7.4 6.9-11.2a106.5 106.5 0 0 0 9.1-20.1 111.8 111.8 0 0 0 5.7-27.6c.6-9.4 1-18.8-.6-28.1q-1.8-10-4.3-19.9a99 99 0 0 0-8.1-21c-1.4-2.8-3-5.4-4.5-8.3l-11 6.8c6.6 3 9.5 6.6 10.7 13.5a28.6 28.6 0 0 1-.2 11.1 31.9 31.9 0 0 1-5.9 12.8 23.3 23.3 0 0 1-12.4 8.2zm-107 68.3l-4 1a1.3 1.3 0 0 0-.7.8c-.5 3.8-1.1 7.6-1.2 11.4-.3 7.4-.3 14.9-.4 22.4a3.4 3.4 0 0 0 1.5 3 60.7 60.7 0 0 0 23 10.4c7 1.7 14.2 2.2 21.3 2.8a70 70 0 0 0 24.9-2.7c3.7-1 7.5-2.2 11.1-3.5 3.2-1 6.3-2.4 9.4-3.6a2.5 2.5 0 0 0 1.7-2.4l2.8-23 .6-5.8-9-3.5a1.3 1.3 0 0 0-1.7.5 79.8 79.8 0 0 1-6.6 6.8 54.4 54.4 0 0 1-21.5 11.7c-2 .5-3 1.2-2.8 3.3a1 1 0 0 1 0 .6c-.6.5-1 1.5-1.7 1.5a1.8 1.8 0 0 1-2-1.7l-.5-3.3c-.5-3.4-2.3-5.7-5-6a9 9 0 0 0-6.8 1.4 11.2 11.2 0 0 0-3.9 13.1c1.5 4 4 5.5 8.2 5 3-.2 4.9-2 6.7-4 .6-.6 1.2-.9 2-.3a1.4 1.4 0 0 1 .4 2 11 11 0 0 1-12.4 6c-6.7-1.6-9.7-7.6-9.7-13.3a45 45 0 0 1 .7-5.8c-10.9-5.3-19.6-13.1-24.4-24.8zM4.7 295v6h1.1l32.4-.2h78.3l66-.6c1.1 0 2.6.4 3.4-.2s.8-2.1 1.2-3.2.2-1.3-1-1.3H32.7c-5.2 0-10.4-.2-15.5-.3L4.7 295zm136.5-4h27.5c2.2 0 3.3-.9 3.6-2.9a8.9 8.9 0 0 0-.1-3 1.9 1.9 0 0 0-2.1-1.5h-29.2c1.2 4 1 3.8.3 7.4zM435.3 67.7a13 13 0 0 0-4.6 1.8l-20 12.4-12 7.8-2 1.5c1 .4 1.3 1.8 2.6 1l4.2-2.6 13.4-8.3c3.3-2 6.8-4 10.1-6.2 3.1-2.1 6.6-3.7 8.3-7.4zM138.1 287.3l-.1-1.4a5.3 5.3 0 0 0-1.8-2c-.9-.4-2.4.7-2.8 1.7a4.8 4.8 0 0 0 .5 4.6 2 2 0 0 0 1.7.5c1.9-.5 2.4-1.4 2.5-3.4zM467.1 103l-5 3-4 2.3c-1.4.7-3.6-.2-3.4-1.7a3.1 3.1 0 0 1 1.4-1.9c2.8-1.9 5.7-3.6 8.7-5.4l2.7-1.7-1.4-1-8.5-6a1.6 1.6 0 0 1-.5-2.4c.5-.6 1-1 1.7-.5l7.5 4.8 2.3 1.5 1.3-8v-.6c.4-.7.6-1.7 1.7-1.7A2.8 2.8 0 0 1 474 86a22 22 0 0 1-.2 3.3l-.7 4.8 4.6-2.7 2.9-1.7a2.8 2.8 0 0 1 3.5.6c.8 1 .4 2.3-1 3.2l-7 4-.8.7 3.2 2 5.6 3.6c1.4 1 1.6 1.7.8 3-.2.3-.9.7-1.2.6a25.3 25.3 0 0 1-4-1.9c-2.5-1.5-5-3.2-7.6-5l-1.2 6.9-1.5 8.2c-.3 1.5-1 2-2.1 1.9-1.8-.3-2.6-1.2-2.3-2.8.5-3.3 1.2-6.5 1.8-9.8l.3-1.9z" class="cls-1"/><path d="M296.6 362.9a1 1 0 0 1 0 .3l-.4 1.5c-.6-.3-1.6-.4-1.9-1l-4.7-8.3a70.1 70.1 0 0 0-20.9-24.9 178.2 178.2 0 0 0-22.2-13.5 46.3 46.3 0 0 1-10.7-7 13 13 0 0 1-1.5-1.7 1.4 1.4 0 0 1 0-1.9c.6-.7 1.1-.3 1.6 0 1.2.8 2.2 1.8 3.5 2.5l11 6c9 4.7 18 9.7 25.7 16.4a70.4 70.4 0 0 1 19.3 26.4 41.2 41.2 0 0 1 1.5 5zM427.4 327.8a58 58 0 0 1-3.5 22.5 9.2 9.2 0 0 1-.5 1.4c-.8 1.4-1.5 1.7-2.8 1.2a2.5 2.5 0 0 1-1.6-3.1l2.3-7.8c1.3-4.8 1.3-9.8 1.4-14.8.1-7.7-1.3-15.2-2.7-22.8-.8-4.5-1.6-9-1-13.7a2.2 2.2 0 0 1 .2-1c.5-.6 1.1-1.6 1.4-1.5a3.1 3.1 0 0 1 2 1.5 12.9 12.9 0 0 1 .4 3.1c.8 5.1 1.4 10.2 2.4 15.3a86.9 86.9 0 0 1 2 19.7zM222.9 328.6a81.3 81.3 0 0 1 2.3-17.3l3.8-15.2a64.4 64.4 0 0 0 1.2-15.8 9 9 0 0 1 .6-2.9c.2-.6.7-.7 1.3-.3a3.8 3.8 0 0 1 1.6 2.7c1.5 7.7.5 15.2-1.3 22.7-1.6 6.4-3 12.9-4 19.4-.6 4-.2 8-.2 12l.2 3.3c.2 1.4-.5 2.8-1.4 3a3 3 0 0 1-3.1-2.2l-1-9.4zM141 349.7a3.4 3.4 0 0 1-3-2 13.5 13.5 0 0 0-4-5.3c-1.8-1.4-4-1.2-6.1-1.4a15.8 15.8 0 0 1-2.6-.7 1.4 1.4 0 0 1-1.1-1.6 3.4 3.4 0 0 1 1.2-1.8 43 43 0 0 1 4.9-2.6c3-1.3 4.2-3.8 4.5-6.9v-.3c.4-.7.7-1.8 1.2-1.9a3.1 3.1 0 0 1 2.2 1 6.7 6.7 0 0 1 1.4 2.3 8 8 0 0 0 4.7 4.4 16.5 16.5 0 0 1 3 1.4c.6.5 1.3 1.3 1.3 1.9s-.9 1.4-1.4 2l-.8.4c-3.4 1.6-4.5 3.7-4.1 7.4.1 1 .3 2.2-.5 3a5.1 5.1 0 0 1-.8.7zm-7.7-11.8l5 3.1 3.8-5-4.3-3a25.7 25.7 0 0 1-2 2.7 26 26 0 0 1-2.5 2.2zM305.4 331a3 3 0 0 1-2.4-2c-.1-1.2.7-1.8 1.7-2.2l10.4-4.5 16.2-8 11.1-5.1a7.3 7.3 0 0 1 2.2-.6c.4 0 1.1.2 1.1.4 0 .5 0 1.3-.3 1.5a178 178 0 0 1-8.3 5c-4.5 2.5-9 5-13.6 7.2-5.6 2.8-11.3 5.3-17 7.9a7.7 7.7 0 0 1-1 .3zM204.6 272.2c2-.5 2 .1 2.5 1.8a40.8 40.8 0 0 0 10.6 18.7l4.3 4c.7.7 1.7 1.3.8 2.7-.4.6-.9 1-1.5.6a22 22 0 0 1-3.8-2.5A39.9 39.9 0 0 1 207 283a31.8 31.8 0 0 1-2.4-10.9zM325.3 310.6c-.3-2.3 1.8-2.7 3.3-3.5l14.3-7.9 8.4-4.5a2 2 0 0 1 1.3-.3 1 1 0 0 1 .4 2c-3.2 2-6.4 4.2-9.6 6-3.8 2.2-7.6 4.2-11.4 6a37.5 37.5 0 0 1-5 2 8 8 0 0 1-1.7.2zM416 232.7a6.5 6.5 0 0 1 4.4 1.7 2.1 2.1 0 0 1 .7 1.7 2.8 2.8 0 0 1-2.1 2.3 6.4 6.4 0 0 1-4.7-.7 2.8 2.8 0 0 1-1.5-2.8 3.1 3.1 0 0 1 2.7-2.2 3.5 3.5 0 0 1 .5 0zM387.1 268c0 1.1-1.8 4.2-3 4.3a4.6 4.6 0 0 1-2.7-.8 2 2 0 0 1-.4-1.9 15.2 15.2 0 0 1 2.1-3.5 2 2 0 0 1 1.8-.2c1 .3 2.1.8 2.2 2.1zM399.9 231.9c-2 0-3-1-3.3-2.4a1.5 1.5 0 0 1 0-.7c.7-2.3 4.7-3.2 6.4-1.5a1.6 1.6 0 0 1 .2 2.3c-1 1.2-2 2.2-3.3 2.3zM401.6 242.3c-2.5 0-5-1.7-5-3.4a4.1 4.1 0 0 1 1-2.2c.5-.8 1.4-.5 2 0a18.6 18.6 0 0 1 3 2.3 2 2 0 0 1 .3 2 5 5 0 0 1-1.3 1.3zM384.4 247.2V246c.1-1.4.8-2.5 1.8-2.5a3.3 3.3 0 0 1 2.7 2.2c.2 1.2.7 2.5-.2 3.7-.5.7-.9 1.3-1.8 1s-2-.5-2.3-1.7a12 12 0 0 1-.2-1.5zM401.3 253.8c1.4 0 3.2 1.5 3.1 2.5s-1.5 2.3-3 2.2a2.6 2.6 0 0 1-2.6-2.3 2.4 2.4 0 0 1 2.5-2.4zM414.3 253.1c0 1.3-1.5 3.1-2.5 3.1-1.3 0-2.2-1.2-2.1-2.9 0-1.1 1.2-2.6 2-2.6a3 3 0 0 1 2.6 2.4zM410.7 245.6a14.1 14.1 0 0 1-2.4-1.3 1.5 1.5 0 0 1-.2-2.2 2.8 2.8 0 0 1 1.8-1 5.3 5.3 0 0 1 2.6 1 1.9 1.9 0 0 1 .6 1.7c-.3 1-1 1.9-2.3 1.5zM391.2 228a3 3 0 0 1-2.7-2.6 2.5 2.5 0 0 1 1.7-2c1.1 0 2.9 1.5 2.9 2.5a2.2 2.2 0 0 1-1.9 2zM390.8 262.2a2.7 2.7 0 0 1 1.9-2.3 2.7 2.7 0 0 1 2.4 2.1c0 1-1.1 2.4-1.8 2.4a2.5 2.5 0 0 1-2.5-2.2zM386 260a2.3 2.3 0 0 1-2.2-1.9c0-1 1.3-2.6 2.1-2.6s2.4 1.3 2.4 2c0 .8-1.5 2.5-2.3 2.5zM390.5 235.9c-1.5 0-2.8-1-2.8-2.1a2 2 0 0 1 1.9-1.8c1 0 2.7 1.2 2.8 2a2.1 2.1 0 0 1-2 1.9zM424.6 240.4c1.6 0 3 1 3 1.8a2.1 2.1 0 0 1-2 1.8c-1 0-2.4-1.3-2.1-2.2a4.7 4.7 0 0 1 1.1-1.4zM402.8 249.7a2.2 2.2 0 0 1-2.2-1.8 1.6 1.6 0 0 1 1.4-1.7c.9-.1 2.3 1.2 2.3 2s-.5 1.5-1.5 1.5zM392 255.8c-1 0-2.1-1-2-1.7a1.7 1.7 0 0 1 1.7-1.6 2.5 2.5 0 0 1 2 1.7 2 2 0 0 1-1.7 1.6zM391.8 239.6a12.9 12.9 0 0 1 2.3 2.4c.1.3-.7 1.4-1.3 1.6-1 .3-2.4-1-2.2-1.8a9.5 9.5 0 0 1 1.2-2.2zM396 250c-1.5-.2-2.7-1.1-2.5-1.9s.5-1.4 1.4-1.4 2.3 1.2 2 1.8a5.8 5.8 0 0 1-1 1.4zM407.6 235c-1 0-2-1-1.8-1.6.2-.5 1-1.2 1.2-1.1a3.2 3.2 0 0 1 1.9 1.4 1.2 1.2 0 0 1-1.3 1.3zM419.7 248.2a8.1 8.1 0 0 1-1.3-1.7c0-.2.6-1 .8-1 .6 0 1.5.4 1.6.8s-.4 1.2-.6 1.8zM181 88.8c-2.5 3.7-4.6 7.2-7 10.5l-12 15.4a2.4 2.4 0 0 1-3 1 1.7 1.7 0 0 1-1.2-2.5 12 12 0 0 1 1.6-2.6 255.4 255.4 0 0 0 19-27l2.3-3.5c.5-.8 1-1.6 2.3-1.3 1.8.5 2.7 1.2 2.8 2.7v6.1l.8 29.1.4 17.6c0 5 .4 10 .5 15v3.4l4.7-.3 12.7-.7a8 8 0 0 1 3.2.6 2.2 2.2 0 0 1 1.3 1.6 1.8 1.8 0 0 1-1.6 2.1l-5.5.4-21.1 1.5-9.4.9a9.7 9.7 0 0 1-2.5-.4 1.6 1.6 0 0 1-1.4-1.8 2 2 0 0 1 1.7-2l4.2-.5 7.8-.8a7.3 7.3 0 0 0 1-.3c-.5-21.3-1-42.6-1.7-64.2zM89 189l7.2-1.6a47 47 0 0 1 5.3-1.1 8.1 8.1 0 0 1 3.3.5 1.9 1.9 0 0 1 1 1.5 2 2 0 0 1-1.6 2.2l-8.5 2-19.4 4a29.1 29.1 0 0 1-3.1.8 9.4 9.4 0 0 1-2.7-.3 1.6 1.6 0 0 1-1.3-1.8 2.1 2.1 0 0 1 1.6-2c3.2-.9 6.4-1.7 9.7-2.4l3.5-.7-8.4-58.2-2.2 6.8a149.6 149.6 0 0 1-10.8 23.9c-1 1.7-1.6 2-3 1.3a1.8 1.8 0 0 1-1.2-2.7l4.3-8.8a132.6 132.6 0 0 0 10-28l1.2-4.7c.4-1 .6-2.3 2-2.3a3.3 3.3 0 0 1 3.4 2.6l.5 3c1.3 10.5 2.5 21 3.9 31.4.8 6.3 1.9 12.5 2.8 18.7l2.3 15.3.1.7zM126.2 135.5l10.5-1.6c1.8-.3 3.5-.8 5.3 0 .8.3 1.6.7 1.5 1.7a2.1 2.1 0 0 1-1.8 2.2l-9.6 1.5-5.6.9.8 10.9.7 10.7a3.4 3.4 0 0 1-.1 1.3c-.4 1-.8 1.8-2.1 1.5a2.8 2.8 0 0 1-2.7-2.6l-.7-11.5-.8-9.6-7.3 1.2c-3.8.6-7.6 1.4-11.5 1.9a4.8 4.8 0 0 1-2.7-.6 2 2 0 0 1-.8-1.6 2.1 2.1 0 0 1 1.7-2 217.1 217.1 0 0 1 19.3-3.4.9.9 0 0 0 .9-1l-1-13-.1-2c0-1.4.7-2.5 1.5-2.6 1.2-.2 3 1.1 3.2 2.3l.7 7.8.5 6.4.2 1.2zM50.7 36.9c.3-1.6 1.6-1.4 2.7-1.4l16.6-.1 34.8-.5c6.6 0 13 .1 19.6.3a19.2 19.2 0 0 1 3.8.9 3.1 3.1 0 0 1 .6.3c-1.7 2.3-4 2-6.2 2h-21l-45.7.1-2.6-.1a2.5 2.5 0 0 1-2.6-1.5zM84.3 46.4c-3.8 1.5-7.4 1.4-11 1.4-7.6.2-15.3.5-23 .6H34l-15.5-.5h-2.6a4.7 4.7 0 0 1-.8 0c-1 0-2-.9-2-1.8a2 2 0 0 1 2.1-1.7h10.5l35.4.4c6.3 0 12.5.3 18.8.4a16.3 16.3 0 0 1 3 .4 7.7 7.7 0 0 1 1.5.8zM149.4 214.5a8.4 8.4 0 0 1-2.3-1.6c-.8-1.1 0-2.5 1.8-3l8.8-2 21.8-4.1a48.8 48.8 0 0 1 7-.8 3.9 3.9 0 0 1 2.4 1c.8.8 0 2.3-1.2 2.6l-15 3.2-22.4 4.4-.8.1zM181.3 189c-1.6 2-3.8 2.4-6 2.8-7.3 1.3-14.6 2.4-22 3.6a45.7 45.7 0 0 1-5 .7 5.5 5.5 0 0 1-2.7-.8 1.8 1.8 0 0 1-.4-1.6 2 2 0 0 1 1.8-1.6l9-1.5c4-.7 8.3-1.3 12.5-1.8 3-.5 6.2-.8 9.4-1 1.1 0 2.5 0 3.4 1.3zM24.2 54.5L41 56a18 18 0 0 1 3.7.8c.5.1.9.7 1.3 1-.5.3-1 .8-1.4.8H16.1c-1.5 0-2.6-1.2-2-2.3a2.3 2.3 0 0 1 1.6-1h8.5zM22.8 33.6l16 1.1a16.1 16.1 0 0 1 3.4.9.8.8 0 0 1 .4.5c0 .3-.1.6-.3.7a13.4 13.4 0 0 1-3.3.7l-16.4-.2h-8.3a3.5 3.5 0 0 1-1.8-.5c-.4-.3-1-1-.8-1.4a2 2 0 0 1 1.3-1.2 23.3 23.3 0 0 1 3.8-.3h6zM52.1 228.6a7.3 7.3 0 0 1-2.6 4.8c-1.4 1.3-3.6 1-5.5-.4a4 4 0 0 1-1-4.7 15 15 0 0 1 1.7-2.9c1.4-2 2-2 4.2-1 2 .8 3.3 2.5 3.2 4.2zM34.3 268.3a17 17 0 0 1-2.6-1.4c-1-.8-1-2.2 0-3.5a23.6 23.6 0 0 1 2.4-2.5 4.2 4.2 0 0 1 5.7 0c.7.8 1.2 1.7.4 2.7a43.7 43.7 0 0 1-3.7 3.9 6.5 6.5 0 0 1-2.2.8zM24.2 250.2a29.3 29.3 0 0 1-5-1.8c-2-1.2-1.8-3.5.1-4.8a5.4 5.4 0 0 1 6 .5 11.6 11.6 0 0 1 1.2 1 2.4 2.4 0 0 1 .7 3c-.8 1.5-1.3 2-2.9 1.8zM94.5 280.8a5 5 0 0 1-4.3-3.4 4.1 4.1 0 0 1 .9-4.5 2.1 2.1 0 0 1 1.8-.5 6.1 6.1 0 0 1 4 3.2 3.7 3.7 0 0 1-1 4.7 5.4 5.4 0 0 1-1.4.5zM55 285.7a4.6 4.6 0 0 1-3.9-2.6 3.6 3.6 0 0 1 0-4 2 2 0 0 1 2.7-1 9.8 9.8 0 0 1 4.6 3.8 2.2 2.2 0 0 1-1.3 3.5 19.5 19.5 0 0 1-2.1.3zM66.4 254.7a7.5 7.5 0 0 1-2.1-1.6c-.8-1-.3-2.1.5-3a19.4 19.4 0 0 1 2.6-2.3 3.2 3.2 0 0 1 4.3.3 2.3 2.3 0 0 1 .7 1.5c0 2.3-3 5.1-6 5.1zM70.5 277.9c-1.7-.1-2.9-.6-3.5-1.7a3 3 0 0 1 .5-3.7 7 7 0 0 1 1.7-1.8 3.2 3.2 0 0 1 2-.4 7 7 0 0 1 2.5 1c.8.4 1.4 1.2.8 2.2a34.1 34.1 0 0 1-3 3.9c-.2.4-.8.4-1 .5zM14.7 287.4a29 29 0 0 1-3.8-1.4 2.3 2.3 0 0 1-.8-3.6 3.6 3.6 0 0 1 3.9-1.6 14.2 14.2 0 0 1 2.5.8c1.5.7 2 1.7 1.8 2.7a3.3 3.3 0 0 1-3 2.8h-.5zM20.8 221.3c-2.2 0-4-1.4-3.8-3a8.8 8.8 0 0 1 1.4-2.9 4.7 4.7 0 0 1 1-.9c1.4-1.2 2.2-1.2 3.7-.1a3.1 3.1 0 0 1 1.2 3.7c-.7 1.9-2.1 3.2-3.6 3.2zM114.3 269.4c-2.5 0-3.6-1.6-2.9-3.5a22.3 22.3 0 0 1 2.3-4c.5-.9 1.3-.8 2.2-.4 1.1.5 2 1 2 2.4a7.3 7.3 0 0 1-2.7 5.2 2.4 2.4 0 0 1-1 .3zM243 32.6c0 1.7-1.7 3.6-3.5 4.2-1.3.4-2.5-.2-3.6-1.5-1.3-1.5-1-2.6.7-3.8a7 7 0 0 1 .8-.4c.6-.3 1.2-1 1.7-.8a13.3 13.3 0 0 1 3.3 1.3c.4.2.5.8.7 1zM260 36.8a3.3 3.3 0 0 1-2.9-1.7c-.4-1.3 0-2.2 1.3-3.2 1.4-1.1 2.8-2 4.7-.8 1.4.9 2 2 1 3.5a7.4 7.4 0 0 1-4.1 2.2zM122.6 251.5c-1.4-.4-2.8-.8-4-1.4a1.9 1.9 0 0 1-1-2.3 2.3 2.3 0 0 1 2.3-1.8 8.1 8.1 0 0 1 5 2 1.9 1.9 0 0 1-.7 3 8 8 0 0 1-1.5.3zM86.1 260.2c0-1.6 1-3.1 2-3 1.9.3 4.2 1.4 4 3-.1 1.7-1.5 3.2-3 3.1a2.8 2.8 0 0 1-3-3zM28.9 281.5c1 .4 2 .8 3 1.4s.8 1.2.2 1.9a4.8 4.8 0 0 1-6.4.8 2 2 0 0 1 .6-3.5 17.4 17.4 0 0 1 2.6-.6zM250.2 69.6c-2-.3-3.6-1.5-2.3-3.6l.7-1.4c1-1.5 2.6-1.7 3.9-.4a2.1 2.1 0 0 1 .4 1.9 16.8 16.8 0 0 1-1.9 3.1c-.2.3-.7.3-.8.4zM119.3 286.5a12 12 0 0 1-2.5-1.3 1.9 1.9 0 0 1-.4-1.7 4 4 0 0 1 2-1.8 4.7 4.7 0 0 1 2.8.3c.6.3 1.5 1.1 1.4 1.6a4.7 4.7 0 0 1-1.4 2.3c-.3.4-1 .4-1.9.6zM27 231.6a3 3 0 0 1-2.7 3.2 2.7 2.7 0 0 1-2.7-2.3c0-1.4 1.8-3.4 3-3.5a2.7 2.7 0 0 1 2.4 2.6zM46.9 259.4c0-1.6 1.4-3.2 2.7-3.1s2.6 1.3 2.6 2.3c0 1.6-1.6 3.5-2.7 3.5a2.6 2.6 0 0 1-2.6-2.7zM83.3 235.4c1.5 0 3.4 1.2 3.5 2.2 0 1.3-1.8 2.8-3.3 2.8a3.2 3.2 0 0 1-2.9-2.8c0-1.2 1.3-2.2 2.7-2.2zM44 203c1.3 0 3 1.1 3 2.2a3.4 3.4 0 0 1-3.3 2.8c-1.4-.1-2.8-.9-2.8-2.3a3 3 0 0 1 3-2.7zM16.1 259.3c-1.3 0-3-1.4-3-2.6 0-1 1.5-2.1 3-2.2 1.1 0 3 1.2 3 2a3 3 0 0 1-3 2.8zM104.5 262.2a2.5 2.5 0 0 1-2.5-2.2c0-1.3 1.5-2.9 2.6-2.9s2.6 1 2.6 1.8c0 1.5-1.5 3.3-2.7 3.3zM89 249.7c-1.3 0-2.8-1.3-2.7-2.4a3.5 3.5 0 0 1 2.7-2.6c1.2 0 2.6 1.3 2.6 2.2a3 3 0 0 1-2.5 2.8zM150.6 261.1a2.6 2.6 0 0 1-2.9-2.4c0-1 1.1-2.4 2-2.4 1.4 0 3.3 1.3 3.3 2.3a2.6 2.6 0 0 1-2.4 2.5zM233.5 57.5a2.6 2.6 0 0 1-2.6-2.6 2 2 0 0 1 2.2-2c1.3 0 3 1.4 3 2.4a2.4 2.4 0 0 1-2.6 2.2zM256 49a5.6 5.6 0 0 1-1.7-1.3 1.7 1.7 0 0 1 .5-2.2 2 2 0 0 0 .3-.4 2 2 0 0 1 3.6-.3 1.3 1.3 0 0 1 .2 2c-.6.9-1 2-2.9 2.1zM125.8 276a2.4 2.4 0 0 1-2.4-2c0-1.3 1.2-3 2.2-3a2.7 2.7 0 0 1 2.6 2 3 3 0 0 1-2.4 3zM106 281.3a17.8 17.8 0 0 1 2 1 1 1 0 0 1 .3 1.7 3.6 3.6 0 0 1-3.5 1.4c-1.2-.4-1.9-1.2-1.7-2.1a3 3 0 0 1 3-2zM136 264.5c-1.4 0-2.7-1.2-2.6-2.3s1-2.4 1.9-2.4c1.2 0 2.9 1.6 2.9 2.6a2.5 2.5 0 0 1-2.1 2zM12 275.2a2.3 2.3 0 0 1-2.5-1.7 2 2 0 0 1 1.4-2.3c1-.4 3.3.6 3.6 1.6.5 1.2-.9 2.4-2.5 2.4zM9.8 204c.6-.8.8-1.6 1.4-2 .4-.2 1.2 0 1.8.3a6 6 0 0 1 1.5 1c.6.6.4 2.4-.5 2.6a4.5 4.5 0 0 1-2.7-.1c-.6-.2-1-1-1.5-1.8zM247.7 41.6c-1.2 0-2.4-1-2.4-2a3.4 3.4 0 0 1 2.3-2.4c1 0 2.5 1.1 2.5 1.9a2.7 2.7 0 0 1-2.4 2.5zM146.9 273a17 17 0 0 1-2-.9 1.6 1.6 0 0 1-.5-2.4c.7-1 2.4-1 3.8 0a1.5 1.5 0 0 1 .3 2.4 6 6 0 0 1-1.6.9zM83.1 270.5a2.2 2.2 0 0 1-2.5-2.2c0-1 1-2.2 1.7-2.2 1.2 0 2.8 1.4 2.8 2.3a2.4 2.4 0 0 1-2 2.1zM81.6 282.4a2.2 2.2 0 0 1-2.2-2c0-1 1-2.6 1.7-2.6 1 0 2.3 1.4 2.4 2.6a2 2 0 0 1-1.9 2zM21.5 278a2.5 2.5 0 0 1-2.4-2 2.4 2.4 0 0 1 2.1-2c1.1.1 2.6 1.3 2.6 2a2.2 2.2 0 0 1-2.3 2zM157.3 277c-1.6-.2-2.6-.8-2.6-2.1a2.1 2.1 0 0 1 2.1-1.8c1.3.1 2.8 1.3 2.7 2.1a2 2 0 0 1-2.2 1.9zM44.3 219.5a2.3 2.3 0 0 1-2.4-1.8 2.4 2.4 0 0 1 2.2-2.2c1 0 2.4 1 2.4 1.6a3 3 0 0 1-2.2 2.4zM39.7 273.8c0-1.2 1-2.3 1.8-2.3 1.1 0 2.1 1.5 2 3A1.8 1.8 0 0 1 42 276a2.1 2.1 0 0 1-2.2-2.2zM62.5 238.4c-1.4 0-2.5-1-2.5-2a2.6 2.6 0 0 1 2-2c1 0 2.5 1.3 2.5 2a2 2 0 0 1-2 2zM44.4 247.6c-1.5 0-2.7-1-2.7-2a2.1 2.1 0 0 1 2-1.8c1.2 0 2.8 1.2 2.7 1.9a2.1 2.1 0 0 1-2 1.9zM118 237.5c-1.3 0-2.6-1-2.6-2a2.1 2.1 0 0 1 1.7-1.8c1.2 0 2.9 1.3 2.8 2.2a1.9 1.9 0 0 1-1.9 1.6zM101.3 245.5c0-1 .8-2.2 1.6-2.2s2.6 1.4 2.6 2.2a2.5 2.5 0 0 1-2 2 2.3 2.3 0 0 1-2.2-2zM12.2 231c-1.2 0-2.4-1-2.4-2a2.1 2.1 0 0 1 1.9-1.8c1 0 2.5 1.2 2.5 2a2 2 0 0 1-2 1.8zM107 273.7c-.2.3-.6 1-1.2 1.2a2.7 2.7 0 0 1-2.8-2 2.2 2.2 0 0 1 1.7-2c1.1-.1 2.3 1.1 2.4 2.8zM196.7 34.2a1.9 1.9 0 0 1 2.1-1.7c1 0 2.4.7 2.4 1.4a3.1 3.1 0 0 1-2.4 2.2 2 2 0 0 1-2.1-1.9zM16.6 239.1a2 2 0 0 1-2.2-1.7 2 2 0 0 1 1.7-1.9c1 0 2.5.9 2.7 1.7s-1 2-2.2 2zM225 34.3a2.4 2.4 0 0 1-2.5-2c0-.7.9-1.8 1.6-1.8 1 0 2.7 1.3 2.8 2a2 2 0 0 1-2 1.8zM35.8 241.7a2.2 2.2 0 0 1-2.2-2 2.6 2.6 0 0 1 2-2 2.8 2.8 0 0 1 2 1.6c0 .8-1.1 2.3-1.8 2.4zM63.1 222.5c-1 0-2.3-1-2.3-2a2 2 0 0 1 1.7-1.7c1 0 2.5 1 2.5 1.8a2 2 0 0 1-1.9 1.9zM22.2 197.3a2.3 2.3 0 0 1-2.2-2 2.1 2.1 0 0 1 1.7-1.7c1 0 2.5 1.3 2.4 2a1.7 1.7 0 0 1-1.9 1.7zM30.5 274.6c0-1 .8-1.7 2-1.7 1 0 2.1 1 2.2 1.7a2.3 2.3 0 0 1-1.9 1.9c-1.1 0-2.3-1-2.3-2zM58.7 272c0-1 .8-2.2 1.5-2.3s2.3 1.3 2.3 2a2.2 2.2 0 0 1-1.7 2 2 2 0 0 1-2.1-1.8zM34 226c0-1 .7-2 1.5-2 1 .1 2.3 1.3 2.2 2.2s-.4 1.8-1.5 1.9a2 2 0 0 1-2.1-2zM40.1 284.2c0-1 .7-2 1.5-2s2.3 1.3 2.3 2c0 .8-.8 2-1.6 2a2.2 2.2 0 0 1-2.2-2zM125.5 261.7c-1.4-.1-2.6-1.2-2.3-2.2a2.5 2.5 0 0 1 1.5-1.5c1-.2 2.4 1.3 2.4 2.1s-1 1.7-1.6 1.6zM184.4 285c-1.2-.1-2.3-1-2.2-2 0-.8.9-1.8 1.5-1.8 1 .1 2.4 1.4 2.4 2-.1 1-1 1.8-1.7 1.8zM12 247a2.2 2.2 0 0 1-2.2-1.8 2.3 2.3 0 0 1 1.7-2 2.2 2.2 0 0 1 2 2 1.8 1.8 0 0 1-1.6 1.8zM10.7 266.5c-1 0-2.4-1-2.2-1.9a2.6 2.6 0 0 1 1.3-1.6c.9-.3 2.7 1.2 2.5 2s-.3 1.6-1.6 1.5zM67.1 285.4a1.8 1.8 0 1 1-.2-3.6 2.3 2.3 0 0 1 1.8 1.6c0 1.2-.7 2-1.6 2zM217.2 48.5a2.1 2.1 0 0 1-2.3-1.8c0-.7.8-1.8 1.4-1.8 1 0 2.3 1.2 2.2 2s-.3 1.6-1.3 1.6zM27.5 209.1c-1 0-2.1-.9-2-1.7a1.7 1.7 0 0 1 1.5-1.7 2.2 2.2 0 0 1 2.1 1.7 2 2 0 0 1-1.6 1.7zM62.6 264.7a2 2 0 0 1-1.9-1.7c0-.8 1.1-2 1.7-1.8a3.6 3.6 0 0 1 1.8 1.6c.3.9-.8 2-1.6 2zM26.8 259a2 2 0 0 1-2-1.6c0-.9.8-2 1.4-2 .8 0 2 1.3 2 2a1.7 1.7 0 0 1-1.4 1.6zM55 250.2c-1-.1-2.2-1-2-1.8s.6-1.6 1.6-1.6 2 .9 2 1.7-1 1.7-1.6 1.7zM96 237.8c-1.5 0-2.8-.9-2.6-1.7a2.4 2.4 0 0 1 1.3-1.6c.8-.2 2.4 1.2 2.2 1.8a6.1 6.1 0 0 1-.9 1.5zM12 216a2 2 0 0 1-2-1.6c0-.8 1-1.8 1.7-1.5a3.7 3.7 0 0 1 1.8 1.5c.3.7-.8 1.6-1.6 1.5zM139.7 274.6c-.9.6-1.4 1.3-2 1.3-1 .2-2-1-1.8-1.8.1-.6 1-1.5 1.1-1.4a17 17 0 0 1 2.7 1.9zM235.4 68.6c-1.5 0-2.4-.6-2.4-1.4s.8-1.9 1.4-1.6a4.8 4.8 0 0 1 1.9 1.7c.1.2-.7 1-1 1.3zM37.7 254c-1.1 0-2.3-.8-2-1.6a2 2 0 0 1 1-1.2c.9-.3 2.4.8 2.4 1.4a1.4 1.4 0 0 1-1.4 1.5zM22 267.3c-.8-.3-1.9-.3-1.8-1.5.1-.8.5-1.7 1.5-1.5a3.4 3.4 0 0 1 1.9 1.5c.3.5-.9 1.6-1.7 1.5zM80.1 253a6.9 6.9 0 0 1-1.7 1.3c-.8.2-1.8-.9-1.7-1.6s.4-1.6 1.3-1.5a7.3 7.3 0 0 1 2.1 1.3zM73.7 263.4c-.9 0-2.1-1-2-1.5a2.1 2.1 0 0 1 1.3-1.3c.8-.2 2.3.8 2.2 1.4-.2.8-.5 1.5-1.5 1.4zM245.7 50.5c.7.6 2.1.4 1.7 1.8-.1.6-.7 1.3-1 1.4a2.1 2.1 0 0 1-1.7-.9c-.6-1 0-1.7 1-2.3zM49.5 268c.4-.4 1-1.2 1.2-1.2a13.7 13.7 0 0 1 2 1.7c-.3.5-.7 1.2-1.2 1.3-.8.3-1.8-.8-2-1.7zM230.6 42c.5.8 2 1 1.3 2.3-.2.4-.8 1-1.1.8a2.4 2.4 0 0 1-1.6-1.1c-.3-1 .4-1.6 1.4-2zM71.7 243c-1 0-2-.8-1.8-1.5s.8-1.2 1.2-1.2c.8 0 1.8.3 1.8 1.3 0 .7-.4 1.5-1.2 1.4zM88.5 283.6a14.8 14.8 0 0 1 2 2c.1.1-.5 1-1 1.2-.8.2-2-.6-1.9-1.3a8.3 8.3 0 0 1 1-1.9zM166.9 273l.8-.4-1-.2 1-1.8c.6.7 1.5 1.3 1.4 1.8-.1 1-1.1 1-2.2.6zM331 134.4c-.4 1.8-1.5 1.4-2.5 1-6.1-2.5-9.3-8-7.2-15 .8-2.6 2.3-5 3.5-7.5 1.3-2.8 2.8-5.6 3.8-8.5s.5-6-.7-9c-.9-2-1.6-4.2-3.5-5.6a23 23 0 0 0-7.2-3.2c1.8 4 1.2 7.3-1.7 9.4-2.1 1.6-6 1-8.4-1.2-2-1.9-2.7-4 0-8.5a12.8 12.8 0 0 0-2 .3l-8.2 2.8-1.3.5c-.6.2-1.4.2-1.6-.6a2 2 0 0 1 .4-1.6 13.8 13.8 0 0 1 6-3.9c7.8-2.9 15.3-2 22.6 2a15.4 15.4 0 0 1 8 9.6 21.2 21.2 0 0 1 0 10.2c-.8 4.1-3 7.8-4.8 11.6a16.7 16.7 0 0 0-1.5 8.4c.1 3.1 2 5.4 4.4 7.3zM369.5 89.5c1.3 3.5.8 6-1.6 7.7-2.8 2.2-5.3 2.2-8.2 0-2-1.6-2.5-4.8-1-8.8-1.6.3-3 .5-4.5 1a16.7 16.7 0 0 0-3.5 1.6c-1.2.7-2 .3-2.6-.9a9.8 9.8 0 0 1 4.7-3.3 25.6 25.6 0 0 1 26.8 4.5 6 6 0 0 1 .8.9c.6.7.8 1.6.2 2.2a2.1 2.1 0 0 1-1.9 0 21.6 21.6 0 0 1-3-2 16.1 16.1 0 0 0-6.2-3zM336 157.2a28 28 0 0 1-18.3-6.5 71 71 0 0 1-6.2-6.8 1.8 1.8 0 0 1-.5-1 2.4 2.4 0 0 1 .3-1.4c.2-.1 1 0 1.2.2a78 78 0 0 1 3.6 3.5 25.6 25.6 0 0 0 17 8.1 20 20 0 0 0 11.8-3c3.5-2.1 6.7-4.4 10-6.7a2.4 2.4 0 0 1 1.6-.4 1.2 1.2 0 0 1 .7 2 31.2 31.2 0 0 1-4.4 4.7c-3.4 2.7-7 5.3-11.3 6.3-2.1.5-4.2.8-5.4 1zM301.6 57v-1h-.6v-.3l8.6-7.5a108.4 108.4 0 0 0 15.8-15.7c1.1-1.4 2-3 3.1-4.3a2.3 2.3 0 0 1 1.3-1c1 0 1.5.8 1.2 1.7-.8 2.7-2.5 4.8-4.1 7a80.4 80.4 0 0 1-16.7 16.7 36.8 36.8 0 0 1-4.7 3 24 24 0 0 1-3.9 1.4zM262.7 122.5l1.8.5c0 3.4.2 6.7 0 10a109.8 109.8 0 0 0 2 25.4 11.3 11.3 0 0 1 0 3c0 .8-.4 1.2-1.4.8a4 4 0 0 1-2.2-3c-.7-2.9-1.2-5.8-1.6-8.7a75 75 0 0 1 .2-20.8l1.2-7.2zM254.3 154.3c-1.5-.2-1.8-.7-2-2.9-.8-5.3-.2-10.6.3-15.8a102.7 102.7 0 0 1 3.4-18.3l2-6c2 .6 2 .6 1.7 2.4-.6 3.3-1.5 6.6-2 10-.7 4.3-1.3 8.7-1.8 13l-1 15a21.3 21.3 0 0 1-.6 2.6zM246.7 125.5c1.9.7 2 1.7 1.8 3.1-.7 6.5-1.4 13-1.9 19.6-.3 3.7 0 7.5 0 11.3a4.4 4.4 0 0 1-.3 1.5c-.5 1.3-1.6 1.6-2.3.3a8.2 8.2 0 0 1-1-4c0-6 .3-12 .7-18.1a87.3 87.3 0 0 1 1.5-10.3 16.7 16.7 0 0 1 1.5-3.4zM357.5 37.3c.4-.6.6-1.4 1-1.5s1.2.4 1.6.8a5 5 0 0 1 .7 1.5 86 86 0 0 0 12.6 20l3.4 4c.5.7 1.2 1.5.3 2.3s-1.7.2-2.3-.3a48 48 0 0 1-10.3-12.5c-1.7-2.9-3.5-5.7-5-8.7a49.9 49.9 0 0 1-2-5.6zM395.5 73.1a7.3 7.3 0 0 1-4.2-3 122 122 0 0 1-14.1-19.5l-2.2-4v-1l-.8-.6 1.3-1.4c1.2 1.3 2.3 2.5 3.2 3.8l6.8 9.9c2.3 3.2 5 6.4 7.5 9.6a26.7 26.7 0 0 1 2.6 4c.3.6 0 1.4-.1 2.2zM284 47a11 11 0 0 1 .8-2c2.1-3.1 4.1-6.4 6.5-9.3 2.6-3.2 5.4-6.1 8.3-9 1.8-1.9 3.9-3.6 5.8-5.3.7-.7 1.4-.2 2 .2s0 1-.3 1.5a21.7 21.7 0 0 1-1.5 1.8c-2.7 3-5.6 5.8-8.2 8.8-3.4 4-6.6 8.2-9.8 12.3a32.8 32.8 0 0 1-2.4 2.6c-.1.1-.7 0-.8-.2a6.3 6.3 0 0 1-.4-1.5zM302.3 40.7c6.3-7.3 12.8-14.3 19.5-21h.5c1.9 1 2.5.9.6 3.2l-9 10a90.1 90.1 0 0 1-5.2 5.4 36 36 0 0 1-4.3 3.3c-1.2.8-1.5.7-2.1-.9zM270.4 139c1.3.6 1.7 1.5 2 2.7.7 3.8 1.7 7.4 2.7 11.1.3 1.3.8 2.5 1.3 3.8.2.7.3 1.6-.4 1.8a2.8 2.8 0 0 1-2.2-.6 6.7 6.7 0 0 1-1.2-2.4 45 45 0 0 1-3.3-12.9c0-1.2-.2-2.5 1.1-3.4zM393.6 56.4c-1.4.5-2.2-.2-3-1.3l-6-9.4a30.4 30.4 0 0 1-1.8-4 2.2 2.2 0 0 1 .8-2.7 6 6 0 0 1 2.7 3c1.5 2.9 3.2 5.6 4.9 8.4 1.2 1.9 2.4 3.7 2.4 6zM392.1 179c-1.2 6-4.6 11-8 15.9a36 36 0 0 1-2.6 3.2 1.9 1.9 0 0 1-2.8.3c-1.1-.8-.6-1.7 0-2.5 1.2-2 2.7-3.8 4-5.7l6.9-10c.5-1 1-2 2.5-1.1zM408.7 187.5a6.2 6.2 0 0 1-.4-2.2c.3-1.6.8-3.2 1.3-4.8l3.5-12.2.8-2.2c1.6 0 2 .7 1.9 2a43.5 43.5 0 0 1-2.3 12 40.6 40.6 0 0 1-2.5 5.8 8.8 8.8 0 0 1-1.9 1.9z" class="cls-1"/></g></g></g></svg>