<?xml version="1.0" encoding="UTF-8"?> <svg xmlns="http://www.w3.org/2000/svg" viewBox="0 0 260.66 324.45"><defs><style>.cls-1{fill:#1b2251}</style></defs><g id="Ebene_2" data-name="Ebene 2"><g id="Hintergrund_Ebene_58_Ebene_59_Ebene_60_Kurven_1_Bild" data-name="Hintergrund + Ebene 58 + Ebene 59 + Ebene 60 + Kurven 1 Bild"><path class="cls-1" d="M239.25 233.73a13.57 13.57 0 0 0 1.45 0c1.7-.23 2.63.6 3.42 2.06A153.89 153.89 0 0 1 254 259c2.18 6.31 4.1 12.71 6.28 19a6.09 6.09 0 0 1-.42 5.18c-1.86 3.46-4.7 6.08-7.59 8.63a47.43 47.43 0 0 1-4.08 3.13 2.3 2.3 0 0 0-1.13 2.14c.42 8-3.33 14-9.2 18.89-7.29 6.1-15.63 9.1-25.2 8.4a24.77 24.77 0 0 1-16.12-7.65 2 2 0 0 1-.33-.54c-3.56.4-6.87.82-10.19 1.12a29.3 29.3 0 0 1-13.89-1.68 8.31 8.31 0 0 1-3.69-3c-4.25-6.64-8.31-13.4-12.4-20.14-3.33-5.49-6.51-11.08-10-16.49-1.5-2.33-1.77-4.45-.12-6.59a2.63 2.63 0 0 0 0-3.48 36.54 36.54 0 0 0-11.57-11.51 17.37 17.37 0 0 0-5.33-1.79 99.86 99.86 0 0 1-31.83-13.41 96 96 0 0 1-32.47-33.77 93 93 0 0 1-10.22-25.68c-3.12-14-3.61-28-.42-42.08a99.69 99.69 0 0 1 14.48-33.52 97.7 97.7 0 0 1 34.86-31.64 102.32 102.32 0 0 1 23.1-9.21 111.5 111.5 0 0 1 25.65-3.6 114.4 114.4 0 0 1 41.14 6.6 100.1 100.1 0 0 1 21.12 10.46A101.29 101.29 0 0 1 231 90.11a96.08 96.08 0 0 1 19.43 27.59 90.49 90.49 0 0 1 8.5 46.3 82.86 82.86 0 0 1-7.33 29.24c-2.45 5.17-5.19 10.23-8 15.22a40.13 40.13 0 0 0-4.66 14.85 25.77 25.77 0 0 0 .31 10.42zm-87.69 35.44c.66.07 1.24.16 1.83.19a124.88 124.88 0 0 0 50.38-7.88 92.26 92.26 0 0 0 23.41-12.77c2.95-2.3 5.59-5 8.34-7.58a2.53 2.53 0 0 0 .68-3 26.37 26.37 0 0 1-1-9.65 53.66 53.66 0 0 1 6.17-21.85c2.55-5 5.19-10.06 7.36-15.27 6.4-15.35 7.83-31.37 5.48-47.72A91.26 91.26 0 0 0 243.64 113a93.29 93.29 0 0 0-21.3-26.17 101.79 101.79 0 0 0-68.62-24.46 103.55 103.55 0 0 0-32.66 6.26 101.76 101.76 0 0 0-37.47 23.63 94 94 0 0 0-18.86 26.37A91.31 91.31 0 0 0 56 153.56a87.51 87.51 0 0 0 9.77 44.68 96.48 96.48 0 0 0 20 26.57 91.93 91.93 0 0 0 17 12.9 115 115 0 0 0 27.45 11.43 32.17 32.17 0 0 1 15.34 9.91 31.25 31.25 0 0 1 6 10.12zm97.65-11.45a87.09 87.09 0 0 1-24.31 13.49 142.76 142.76 0 0 1-29 7.69c-10.88 1.68-21.81 2.44-32.78 1.13-3.64-.43-7.23-1.22-10.84-1.84A3.47 3.47 0 0 0 154 280a34.5 34.5 0 0 0 6 1.48c3.31.44 6.65.75 10 .9a139.22 139.22 0 0 0 23.63-.63c2-.25 4.08-.56 6.11-.84.72-.09 1.57-.1 1.58.8a2 2 0 0 1-1 1.48 9.5 9.5 0 0 1-2.9.95c-1.94.31-3.91.44-5.87.69a102.13 102.13 0 0 1-30-.57c-2.09-.35-4.17-.78-6.7-1.25 1.77 2.8 3.36 5.21 4.84 7.68a4.64 4.64 0 0 0 2.55 2 42 42 0 0 0 11.56 2.22 126 126 0 0 0 22.06-.42 131.79 131.79 0 0 0 26.18-5.11c2.87-.87 5.7-1.86 8.56-2.74 1-.31 2.15-.88 3 .38-.43 2.63-2.39 3.7-4.54 4.4-4.47 1.44-8.94 2.92-13.5 4a110.44 110.44 0 0 1-25.22 3.08c-8.07.07-16.09-.39-23.9-2.76a32.63 32.63 0 0 0-3.58-.66 3.08 3.08 0 0 0 .19.89q4.86 8 9.76 16a4.65 4.65 0 0 0 3.34 2.11c6.09 1.18 12.15.52 18.17-.37a114 114 0 0 0 24.95-7c10.17-4 19.88-8.87 28.49-15.7 3.1-2.46 6-5.16 7.8-8.77a4.94 4.94 0 0 0 .63-2.89c-1-5.39-3.06-10.48-4.91-15.73-5.34 3-10.21 6.49-16 8.18 4.2-4.82 9.76-7.84 15-11.41zm-8-20c-.76 3.7-3.15 6-5.41 8.26-6.8 6.84-14.94 11.72-23.78 15.45a129.6 129.6 0 0 1-32.41 8.81c-9.28 1.31-18.57 2-27.93 1a10.46 10.46 0 0 0-2.54-.18 1.57 1.57 0 0 0-1 1.13c-.06 1.07 2.46 3.68 3.65 3.83 4.08.51 8.16 1.15 12.26 1.38a147.7 147.7 0 0 0 38.89-3c12.33-2.6 24.17-6.51 35-13a64.57 64.57 0 0 0 10-7.68c-2.36-5.27-3.94-10.72-6.75-15.97zm-24.73 73l-17.59 4.93a31.15 31.15 0 0 0 3.69 2.11 35 35 0 0 0 19.36 2.32c7.84-1.39 14.47-4.65 18.38-12.08a17.86 17.86 0 0 0 2.16-8.91l-23.3 10.92a13.51 13.51 0 0 0 2 2.3 4.64 4.64 0 0 0 4.12.89c1.48-.43 2.94-.94 4.43-1.29.37-.09.85.31 1.29.48-.22.4-.33 1-.66 1.18a15 15 0 0 1-7 2.21c-1.74 0-3.52-.13-4.72-1.53a23.72 23.72 0 0 1-2.18-3.48zM31 32.32l4.16-2.45c1.36 1.44 2.75 2.81 4 4.26q11.67 13 23.3 26.09c2 2.31 3.93 4.76 5.9 7.14l.16.2c.48.63 1 1.28.26 2s-1.42.23-2-.3c-2-1.87-4.09-3.68-6-5.64Q47.46 49.93 34.16 36.13C33.1 35 32.22 33.78 31 32.32zM101.33 54.74C91.47 39.91 82.1 24.7 72.87 9l3.85-2.11a19.43 19.43 0 0 1 1.44 1.89q8.25 14.39 16.45 28.8c2.66 4.69 5.19 9.45 7.8 14.17.69 1.25.86 2.25-1.08 2.99zM47.83 94.37l-1.07 2a51.29 51.29 0 0 1-4.67-2.14q-13.86-7.85-27.66-15.85A40.57 40.57 0 0 1 11 75.89l3-4c11.54 7.33 22.87 14.53 33.83 22.48zM153.3 0c1.29 14.63 2.08 28.79 2.68 43l-2.73 1.23a19.74 19.74 0 0 1-.78-3q-1.12-11.61-2.13-23.23c-.4-4.61-.7-9.22-1-13.84-.07-1 0-2 0-3.26zM36.74 193.09a3.43 3.43 0 0 1-2.8 2.64c-5.85 1.25-11.68 2.6-17.52 3.85-3.68.79-7.38 1.49-11.07 2.21-.57.11-1.16.13-2.06.23-.3-1.31-.64-2.52-.83-3.75-.23-1.47.2-2 1.75-2.22q6.48-.9 13-1.73c4.92-.63 9.84-1.25 14.76-1.8 1.55-.18 3.19-.52 4.77.57zM212.13 20.47a25.93 25.93 0 0 1-.48 2.89q-4.08 13.64-8.21 27.26c-.84 2.77-1.07 2.89-3.74 3-.75-2.18.21-4.21.74-6.21 1.67-6.27 3.52-12.5 5.29-18.74.56-2 1.11-3.95 1.68-5.92.66-2.26.79-2.35 3.2-2.38.39-.02.68.03 1.52.1zM0 140.44l2.19-3.87 26.54 8.54c.89.29 1.9.64 1.56 1.93s-1.2 1.34-2.23 1.13-1.84-.38-2.75-.62c-7.31-1.93-14.71-3.85-22.06-5.82A32 32 0 0 1 0 140.44zM240 72.68c2.61-6.25 6.82-11.11 10.29-16.59l4.41 1.07a11.51 11.51 0 0 1-1 2.66c-2.87 4-5.87 8-8.74 12-1.32 1.87-2.88 1.42-4.96.86z"></path><path class="cls-1" d="M200.82 139c-4 1.83-8 1.43-12.1.83-1.91 3.35-4.87 5.52-7.89 7.66a14.39 14.39 0 0 1-11.72 2.43c-1.67-.33-3.33-.74-5-1.11-5.82 11-15 14.6-26.84 11.83-1.93 9.16-8.39 12.6-17 14 7.82 13.11 15.7 25.9 23.15 38.94s14.41 26.22 21.67 39.5a248 248 0 0 1 48.17-21.13 5.34 5.34 0 0 1-3 3.6 43.59 43.59 0 0 1-6.08 2.73c-8.53 3.14-17 6.34-25.22 10.28-4.23 2-8.48 4-12.88 6.14 1.39 2.73 2.66 5.21 4 7.88-2.28.36-2.74-1.49-3.72-2.42a28.67 28.67 0 0 1-2.76-3.61c-3.25 1.19-5.73 3.62-8.95 5.46.25-2.41 2-3.14 3.33-4.18s2.9-2.09 4.42-3.16c-2.33-4.09-4.55-8-6.81-12q-5.7-9.9-11.44-19.8c-1.75-3-3.44-6.12-5.28-9.11-2.37-3.87-4.94-7.61-7.29-11.5-5.49-9.26-10.96-18.56-16.58-27.78a7.94 7.94 0 0 0-3-2.28c-3.54-2-6.91-4.16-9.13-7.71-.82-1.3-1.86-2.53-1-4.23a7.4 7.4 0 0 1 4.11-3.7c1.41-.49 2.69.52 3.5 1.65 2.26 3.13 4.54 6.25 6.52 9.54.8 1.33 1.63 2.18 3.09 2.3a21.6 21.6 0 0 0 4.33 0A41.59 41.59 0 0 0 128 169a6.16 6.16 0 0 0 5-5 24.11 24.11 0 0 0 .56-4.31 2.86 2.86 0 0 0-.95-1.63 47.1 47.1 0 0 1-4-4 24.38 24.38 0 0 1-2.93-5.35c-.78-1.92.11-3.46 1.77-4.62 1.37-.95 2.48-.95 4.25.17 3.74 2.37 5.12 6.12 5.61 10.2a2.26 2.26 0 0 0 1.89 2.31c5.73 1.42 11.35 1.67 16.67-1.53 3.19-1.92 4.17-5.1 4.85-8.42.11-.51-.42-1.26-.83-1.77-1-1.2-2-2.32-3.06-3.47a15.67 15.67 0 0 1-3.29-6.9c-.71-2.82.49-5.05 3.22-6.22a2 2 0 0 1 1.65.06 9.62 9.62 0 0 1 2.31 2 18 18 0 0 1 4.36 11.8c0 2.25 0 2.33 2.26 3 3.22 1 6.46 1.65 9.85.76a12.72 12.72 0 0 0 8-6.38 1.61 1.61 0 0 0-.37-2.26 20.83 20.83 0 0 1-5.6-9.68c-.92-3 1.34-6.89 4.38-7.39a3 3 0 0 1 3 1.58 20.28 20.28 0 0 1 3.4 10.34v2.46c3.13 1.61 6.12 1.82 10.06.7-.16-.93-.27-1.93-.5-2.89a33.57 33.57 0 0 1-.92-10.19c.19-2.63 2-3.89 4-4.92a2.4 2.4 0 0 1 2.13.34 10.11 10.11 0 0 1 2.77 3.26 18.75 18.75 0 0 1 1.93 8.94c-.16 2.41-.92 4.37-3 5.68-1.27.82-1.5 1.67-1.16 3.21 1.21 5.61 2.08 11.29 3.26 16.91 2.37 11.24 4.86 22.44 7.3 33.66 1.85 8.54 3.67 17.09 5.57 25.62.72 3.26 1.63 6.47 2.52 10l-2.36 1.76a32.85 32.85 0 0 1-1.48-3.22 156.2 156.2 0 0 1-4-15.66c-1.37-6.36-3.09-12.65-4.61-19q-2.42-10.11-4.75-20.26c-1.36-5.92-2.7-11.84-4-17.79-.57-2.67-.93-5.38-1.38-8.08-.1-1.18-.3-2.34-.56-3.82zm2.12-17.29a7.58 7.58 0 0 0-.44 2 32 32 0 0 0 2 9.71c1.81-3.01 1.09-8.48-1.56-11.72zm-70 31.25c-.62-3.15-1.52-4.42-3.67-5.18a10.38 10.38 0 0 0 3.64 5.22zm27.46-13.9c-.5-2.09-1-4.2-2.77-5.66.45 2.09.91 4.2 2.74 5.65zm22.86-14.17a11.12 11.12 0 0 0 2.43 6.3 10.13 10.13 0 0 0-2.46-6.31zm-73.91 40.39c-2-3.42-2.19-3.57-3.84-4.51a8.48 8.48 0 0 0 3.81 4.5z"></path><path class="cls-1" d="M126.07 243a26.66 26.66 0 0 1-8.06-5 99.1 99.1 0 0 1-14.53-16.62 92.29 92.29 0 0 1-5-8.67c-5.34-10.13-7.7-21.1-8.08-32.4A58.4 58.4 0 0 1 92.23 165c1.62-6.81 3.4-13.65 6.54-20 3.68-7.44 7.3-14.86 12.62-21.39A153.46 153.46 0 0 0 122 108.16a41.08 41.08 0 0 0 3.18-7.56 6.12 6.12 0 0 0 .19-2.53 3.8 3.8 0 0 0-5-3.64 17.22 17.22 0 0 0-4.29 1.67c-3.37 1.93-7 2.19-10.71 1.93-2.05-.15-2.49-.79-2.32-2.89a8.63 8.63 0 0 1 .72-3c3.94-8.09 9.34-15 17.08-19.76 1-.63 2.09-1.18 3.15-1.75a3.65 3.65 0 0 1 3.17-.18c.25 1.19-.53 1.6-1.28 2-1.48.86-3 1.6-4.43 2.59a43.16 43.16 0 0 0-14.58 18.21 5.84 5.84 0 0 0-.38 1.23c-.18 1 .27 1.62 1.23 1.44 1.83-.34 3.85-.49 5.39-1.41A17.8 17.8 0 0 1 124 92.36c3 .22 5 2.16 5 5.12a19.94 19.94 0 0 1-1 5.5c-1.66 5.38-4.84 10-8 14.6-2.53 3.76-5.51 7.23-7.92 11-3 4.71-5.68 9.57-8.25 14.51a86.55 86.55 0 0 0-9.08 30.08 67.68 67.68 0 0 0 1.07 20 63.25 63.25 0 0 0 2.73 11.21 80 80 0 0 0 5.47 10.76A105.9 105.9 0 0 0 119 234.86c1.85 2 3.9 3.82 5.88 5.69a2.62 2.62 0 0 1 1.19 2.45zM183.55 250.15l4.63-1.28a86.07 86.07 0 0 0 26.9-13.05 63.23 63.23 0 0 0 12.32-11.17c1.17-1.4 2.43-.76 3.69-.58.55 1.25-.13 2-.79 2.85a54.25 54.25 0 0 1-11 10 80.82 80.82 0 0 1-23.51 11.87 100.07 100.07 0 0 1-10.74 2.21 4.06 4.06 0 0 1-1.41-.28zM249.31 167.46c-2.23-14.77-4.95-29.4-12.22-42.85.65-.24.94-.38 1.25-.46 2.32-.55 2.35-.56 3.49 1.41a62.87 62.87 0 0 1 5.31 12.5 75.1 75.1 0 0 1 3.56 18.1 87.43 87.43 0 0 1-.36 10 5.49 5.49 0 0 1-.47 1.36zM242.59 187.93c-.56-14.29-2-28.36-9.68-41.23l2.76-1.36c1 1.85 2 3.44 2.75 5.13 4.24 9.11 6.89 18.61 6.79 28.74a35.24 35.24 0 0 1-.63 5.87 15.48 15.48 0 0 1-1.18 3zM206.92 306c-2.14 0-3.27-.89-3.34-2.68-.12-2.62.88-3.76 3.32-3.77s3.66 1.17 3.71 3.31-1.02 3.14-3.69 3.14zM183.85 301.77c0 2.46-.57 3.12-2.91 3.21-1.51.07-2.16-.65-2.21-2.44-.06-2.07 1-3.08 3.18-3.06 1.55 0 1.92.44 1.94 2.29zM180.35 310.19c.05-1.5 1.26-2.29 3.41-2.24 1.47 0 2.08.86 2 2.67s-.95 2.6-2.82 2.49a2.7 2.7 0 0 1-2.59-2.92zM234.88 293c1.2 0 1.79.47 1.86 1.6a2.82 2.82 0 0 1-2.67 2.86 1.9 1.9 0 0 1-1.8-2.05c-.02-1.63.83-2.41 2.61-2.41zM219.88 298.72c1.14 3.48.67 4.23-2.68 4.39a2.91 2.91 0 0 1-.65-3.47c.67-1.19 1.98-1.12 3.33-.92zM197.32 308.1c0-1.53.7-2.18 2.21-2.17 1.23 0 1.85.57 1.81 1.65a2.42 2.42 0 0 1-2.5 2.4c-1.1.02-1.55-.55-1.52-1.88zM243.43 287.27c1.37-.09 1.69.66 1.73 1.58a2.32 2.32 0 0 1-2.07 2.44c-1.08.09-1.54-.45-1.55-1.49-.02-1.69.64-2.5 1.89-2.53zM192.91 300.83c.25 2.5-.26 3.32-2 3.33-1.06 0-1.57-.67-1.43-1.89.21-1.56.87-1.86 3.43-1.44zM170.6 299.73c2-.46 2.77-.19 2.88 1s-.59 1.35-1.4 1.43c-1.08.08-1.46-.53-1.48-2.43zM174.68 308.33c-.4-2.49-.4-2.49 1.86-2.61.77 2.39.69 2.51-1.86 2.61zM191.83 311.28c-.1-.67-.19-1.32-.33-2.23a6.74 6.74 0 0 1 2-.15c.29.07.64.81.58 1.19-.15 1.23-1.08 1.28-2.25 1.19zM227.59 295c.22 1.1.17 1.9-1 2-.74.08-1.41-.05-1.59-.92s.47-1.19 1.21-1.23a11 11 0 0 1 1.38.15zM196.15 303.59c-.16-1.4.48-1.84 1.6-1.62a1.12 1.12 0 0 1 .58.91c-.33 1.38-1.33.8-2.18.71zM221 265.79c0 2.07-.85 2.93-2.72 2.88s-2.85-.89-2.87-2.27a2.7 2.7 0 0 1 2.94-2.78c2.22.01 2.71.38 2.65 2.17zM233.6 259.38c-1.43 0-1.8-.39-1.82-1.8 0-2.47 1.38-3.85 3.55-3.45a1.42 1.42 0 0 1 1.33 1.76c-.24 2.6-1 3.53-3.06 3.49zM242.46 246.45c0 1.64-.82 2.48-2.54 2.5a1.71 1.71 0 0 1-1.93-1.86 2.64 2.64 0 0 1 2.46-3c1.42.02 1.99.68 2.01 2.36zM183.35 270.85c.91 2.85.51 3.8-1.46 4a1.7 1.7 0 0 1-2.06-1.06 2.16 2.16 0 0 1 1.12-2.56 16.8 16.8 0 0 1 2.4-.38zM244 252.49c-.07 1.71-1.14 3-2 2.63a3.35 3.35 0 0 1-1.51-2c-.25-1 1.09-2 2.27-1.73.62.11 1.02.86 1.24 1.1zM223.61 260.52c.18-3.14.49-3.4 3.3-2.93.52 3.15-.37 3.98-3.3 2.93zM210.79 264.39c-.19 2.27-.79 2.94-2.36 2.72a1.69 1.69 0 0 1-1.22-.95 1.64 1.64 0 0 1 .68-1.44 13.34 13.34 0 0 1 2.9-.33zM192.21 271.29c0 2-.51 2.61-1.88 2.5a1.24 1.24 0 0 1-1.23-1.59c.14-1.14 1.2-1.43 3.11-.91zM201.45 272.23c-.48-.69-1.08-1.16-1.07-1.62 0-1 1-.76 1.6-.78s1.51.33 1.27 1.16c-.14.45-.97.7-1.8 1.24zM175.23 274c-.45 1-1.07 1.53-2.1.91a1.12 1.12 0 0 1-.25-1 1.42 1.42 0 0 1 2.35.09zM166.32 274.34l1.31-.36.17.45a3.41 3.41 0 0 1-.74.37 2 2 0 0 1-.67-.08zM96 291.51a13.29 13.29 0 0 1 3.73-.13c-.45.59-.88 1.16-1.32 1.72-1.15 1.51-2.24 2.93-3.37 4.34a1.65 1.65 0 0 0-.47 1.23 1.68 1.68 0 0 0 .79 1.09 2.37 2.37 0 0 0 .88.45 1.21 1.21 0 0 0 .5 0 1.58 1.58 0 0 0 1-.73l.3-.44c.34-.48.68-1 1-1.45.53-.7 1-1.46 1.49-2.19a21.36 21.36 0 0 1 2.72-3.63 2 2 0 0 1 .92 1c.06.1.12.21.19.31l.65 1c1 1.51 2 3.08 2.87 4.65a8 8 0 0 0 2.58 2.54 1.12 1.12 0 0 0 1.56-.05 1.06 1.06 0 0 0 .18-1.54c-.14-.19-.28-.4-.41-.6s-.3-.46-.46-.68l-1.65-2.24c-1.07-1.43-2.17-2.92-3.22-4.39l-.23-.27c-.3-.34-.56-.63-.28-1.15l2-.22c1.87-.21 3.81-.43 5.73-.62.61-.06 1.64-.17 1.75-1.08.1-.72-.57-1.18-1.1-1.55l-.17-.12a2.24 2.24 0 0 0-1.85-.2h-.25l-4.1.69-1.72.3a5.29 5.29 0 0 1 1.12-2.21c.15-.2.29-.39.42-.59.6-.92 1.2-1.83 1.81-2.73l1.32-2 .06-.09c.25-.38.63-.95 0-1.43a1.09 1.09 0 0 0-1.55.3c-.78.9-1.48 1.71-2.14 2.57-.49.65-1 1.32-1.44 2s-1 1.32-1.45 2c-.66.86-1 1.27-1.34 1.27s-.69-.43-1.35-1.34-1.4-1.92-2.08-2.86c-.79-1.12-1.62-2.27-2.45-3.39l-.21-.28a2.51 2.51 0 0 0-2.17-1.38h-.25l6.64 10.88a9 9 0 0 1-3 .72 11.32 11.32 0 0 0-2.22.41 6.86 6.86 0 0 1-1.61.28 4.59 4.59 0 0 0-3.42 1.4l-.14.16.2.07a10.71 10.71 0 0 0 5.01.2z"></path></g></g></svg> 